<svg xmlns="http://www.w3.org/2000/svg" xmlns:xlink="http://www.w3.org/1999/xlink" width="500" zoomAndPan="magnify" viewBox="0 0 375 374.999991" height="500" preserveAspectRatio="xMidYMid meet" version="1.0"><defs><g/><clipPath id="fecc133242"><path d="M 138.046875 82.648438 L 254.203125 82.648438 L 254.203125 267.148438 L 138.046875 267.148438 Z M 138.046875 82.648438 " clip-rule="nonzero"/></clipPath></defs><g fill="#9f9e9e" fill-opacity="0.4"><g transform="translate(27.474561, 108.244369)"><g><path d="M 44.632812 -60.289062 C 46.894531 -60.289062 46.980469 -56.984375 44.71875 -50.371094 L 29.578125 -6.003906 L 13.832031 -51.851562 C 12.355469 -56.636719 12.179688 -60.289062 12.875 -60.289062 L 12.875 -61.074219 L 2.609375 -61.074219 L 2.609375 -60.289062 C 4.003906 -60.289062 6.175781 -55.070312 8.4375 -48.460938 L 25.054688 0 L 31.582031 0 L 29.929688 -4.871094 L 45.5 -50.199219 C 48.109375 -58.027344 50.722656 -60.289062 52.027344 -60.289062 L 52.027344 -61.074219 L 44.632812 -61.074219 Z M 44.632812 -60.289062 "/></g></g></g><g fill="#9f9e9e" fill-opacity="0.4"><g transform="translate(82.110528, 108.244369)"><g><path d="M 12.875 -61.074219 L 2.609375 -61.074219 L 2.609375 -60.289062 C 3.132812 -60.289062 4.609375 -59.335938 4.609375 -53.59375 L 4.609375 -7.480469 C 4.609375 -1.828125 3.132812 -0.78125 2.609375 -0.78125 L 2.609375 0 L 12.875 0 L 12.875 -0.78125 C 12.265625 -0.78125 10.789062 -1.828125 10.789062 -7.480469 L 10.789062 -53.59375 C 10.789062 -59.335938 12.265625 -60.289062 12.875 -60.289062 Z M 12.875 -61.074219 "/></g></g></g><g fill="#9f9e9e" fill-opacity="0.4"><g transform="translate(97.596523, 108.244369)"><g><path d="M 27.492188 -33.667969 C 38.976562 -35.320312 43.152344 -40.628906 43.152344 -47.589844 C 43.152344 -56.027344 37.148438 -62.03125 19.488281 -62.03125 C 14.441406 -62.03125 8.527344 -61.160156 3.394531 -61.074219 L 2.609375 -61.074219 L 2.609375 -60.289062 C 3.132812 -60.289062 4.609375 -59.335938 4.609375 -53.59375 L 4.609375 -7.480469 C 4.609375 -1.828125 3.132812 -0.78125 2.609375 -0.78125 L 2.609375 0 L 12.789062 0 L 12.789062 -0.78125 C 12.265625 -0.78125 10.789062 -1.828125 10.789062 -7.480469 L 10.789062 -33.234375 L 20.617188 -33.234375 L 33.84375 -10.351562 C 37.0625 -4.785156 38.367188 -0.78125 37.671875 -0.78125 L 37.671875 0 L 47.851562 0 L 47.851562 -0.78125 C 46.546875 -0.78125 43.675781 -5.742188 39.847656 -12.265625 Z M 10.789062 -60.8125 C 13.832031 -61.074219 16.789062 -61.335938 19.488281 -61.335938 C 27.058594 -61.335938 37.0625 -58.378906 37.0625 -47.589844 C 37.0625 -36.886719 27.058594 -33.929688 19.488281 -33.929688 L 10.789062 -33.929688 Z M 10.789062 -60.8125 "/></g></g></g><g fill="#9f9e9e" fill-opacity="0.4"><g transform="translate(148.056496, 108.244369)"><g><path d="M 52.199219 -61.074219 L 2.609375 -61.074219 L 2.609375 -53.679688 L 3.394531 -53.679688 C 8.4375 -59.246094 12.355469 -60.289062 24.273438 -60.289062 L 24.273438 -7.480469 C 24.273438 -1.828125 22.792969 -0.78125 22.273438 -0.78125 L 22.273438 0 L 32.449219 0 L 32.449219 -0.78125 C 31.929688 -0.78125 30.449219 -1.828125 30.449219 -7.480469 L 30.449219 -60.289062 C 42.367188 -60.289062 46.371094 -59.246094 51.417969 -53.679688 L 52.199219 -53.679688 Z M 52.199219 -61.074219 "/></g></g></g><g fill="#9f9e9e" fill-opacity="0.4"><g transform="translate(202.866459, 108.244369)"><g><path d="M 4.609375 -22.96875 C 4.609375 -1.914062 22.792969 0.523438 27.839844 0.523438 C 32.800781 0.523438 48.894531 -1.132812 48.894531 -22.96875 L 48.894531 -46.894531 C 48.894531 -54.984375 50.894531 -60.289062 52.199219 -60.289062 L 52.199219 -61.074219 L 44.804688 -61.074219 L 44.804688 -60.289062 C 46.109375 -60.289062 48.109375 -54.984375 48.109375 -46.894531 L 48.109375 -22.96875 C 48.109375 -4.175781 35.84375 -0.523438 27.230469 -0.523438 C 9.570312 -0.523438 10.789062 -22.96875 10.789062 -22.96875 L 10.789062 -53.59375 C 10.789062 -59.335938 12.265625 -60.289062 12.789062 -60.289062 L 12.789062 -61.074219 L 2.609375 -61.074219 L 2.609375 -60.289062 C 3.132812 -60.289062 4.609375 -59.335938 4.609375 -53.59375 Z M 4.609375 -22.96875 "/></g></g></g><g fill="#9f9e9e" fill-opacity="0.4"><g transform="translate(257.676434, 108.244369)"><g><path d="M 40.714844 -9.308594 C 42.28125 -4.4375 42.367188 -0.78125 41.761719 -0.78125 L 41.761719 0 L 51.9375 0 L 51.9375 -0.78125 C 50.632812 -0.78125 48.460938 -6.089844 46.195312 -12.613281 L 29.578125 -61.074219 L 22.96875 -61.074219 L 24.621094 -56.289062 L 9.136719 -10.960938 C 6.4375 -3.132812 3.914062 -0.78125 2.609375 -0.78125 L 2.609375 0 L 10.003906 0 L 10.003906 -0.78125 C 7.742188 -0.78125 7.570312 -4.089844 9.917969 -10.699219 L 14.179688 -23.402344 C 15.398438 -26.796875 19.75 -27.578125 22.882812 -27.316406 C 31.40625 -26.449219 37.410156 -19.054688 40.019531 -11.398438 Z M 25.054688 -55.070312 L 37.84375 -17.835938 C 34.539062 -23.140625 29.40625 -27.40625 22.882812 -28.015625 C 20.359375 -28.273438 17.140625 -27.839844 15.136719 -26.011719 Z M 25.054688 -55.070312 "/></g></g></g><g fill="#9f9e9e" fill-opacity="0.4"><g transform="translate(312.225403, 108.244369)"><g><path d="M 12.875 -60.988281 L 2.609375 -60.988281 L 2.609375 -60.203125 C 3.132812 -60.203125 4.609375 -59.246094 4.609375 -53.503906 L 4.609375 -7.480469 C 4.609375 -1.738281 3.132812 -0.78125 2.609375 -0.78125 L 2.609375 0 L 30.625 0 L 32.886719 0.0859375 L 40.367188 0.0859375 L 40.367188 -7.308594 L 39.585938 -7.308594 C 34.277344 -4.089844 29.40625 -1.738281 20.707031 -0.78125 L 10.875 -0.78125 L 10.875 -53.503906 C 10.875 -59.246094 12.355469 -60.203125 12.875 -60.203125 Z M 12.875 -60.988281 "/></g></g></g><g fill="#000000" fill-opacity="1"><g transform="translate(23.629668, 104.399477)"><g><path d="M 44.632812 -60.289062 C 46.894531 -60.289062 46.980469 -56.984375 44.71875 -50.371094 L 29.578125 -6.003906 L 13.832031 -51.851562 C 12.355469 -56.636719 12.179688 -60.289062 12.875 -60.289062 L 12.875 -61.074219 L 2.609375 -61.074219 L 2.609375 -60.289062 C 4.003906 -60.289062 6.175781 -55.070312 8.4375 -48.460938 L 25.054688 0 L 31.582031 0 L 29.929688 -4.871094 L 45.5 -50.199219 C 48.109375 -58.027344 50.722656 -60.289062 52.027344 -60.289062 L 52.027344 -61.074219 L 44.632812 -61.074219 Z M 44.632812 -60.289062 "/></g></g></g><g fill="#000000" fill-opacity="1"><g transform="translate(78.265636, 104.399477)"><g><path d="M 12.875 -61.074219 L 2.609375 -61.074219 L 2.609375 -60.289062 C 3.132812 -60.289062 4.609375 -59.335938 4.609375 -53.59375 L 4.609375 -7.480469 C 4.609375 -1.828125 3.132812 -0.78125 2.609375 -0.78125 L 2.609375 0 L 12.875 0 L 12.875 -0.78125 C 12.265625 -0.78125 10.789062 -1.828125 10.789062 -7.480469 L 10.789062 -53.59375 C 10.789062 -59.335938 12.265625 -60.289062 12.875 -60.289062 Z M 12.875 -61.074219 "/></g></g></g><g fill="#000000" fill-opacity="1"><g transform="translate(93.751631, 104.399477)"><g><path d="M 27.492188 -33.667969 C 38.976562 -35.320312 43.152344 -40.628906 43.152344 -47.589844 C 43.152344 -56.027344 37.148438 -62.03125 19.488281 -62.03125 C 14.441406 -62.03125 8.527344 -61.160156 3.394531 -61.074219 L 2.609375 -61.074219 L 2.609375 -60.289062 C 3.132812 -60.289062 4.609375 -59.335938 4.609375 -53.59375 L 4.609375 -7.480469 C 4.609375 -1.828125 3.132812 -0.78125 2.609375 -0.78125 L 2.609375 0 L 12.789062 0 L 12.789062 -0.78125 C 12.265625 -0.78125 10.789062 -1.828125 10.789062 -7.480469 L 10.789062 -33.234375 L 20.617188 -33.234375 L 33.84375 -10.351562 C 37.0625 -4.785156 38.367188 -0.78125 37.671875 -0.78125 L 37.671875 0 L 47.851562 0 L 47.851562 -0.78125 C 46.546875 -0.78125 43.675781 -5.742188 39.847656 -12.265625 Z M 10.789062 -60.8125 C 13.832031 -61.074219 16.789062 -61.335938 19.488281 -61.335938 C 27.058594 -61.335938 37.0625 -58.378906 37.0625 -47.589844 C 37.0625 -36.886719 27.058594 -33.929688 19.488281 -33.929688 L 10.789062 -33.929688 Z M 10.789062 -60.8125 "/></g></g></g><g fill="#000000" fill-opacity="1"><g transform="translate(144.211603, 104.399477)"><g><path d="M 52.199219 -61.074219 L 2.609375 -61.074219 L 2.609375 -53.679688 L 3.394531 -53.679688 C 8.4375 -59.246094 12.355469 -60.289062 24.273438 -60.289062 L 24.273438 -7.480469 C 24.273438 -1.828125 22.792969 -0.78125 22.273438 -0.78125 L 22.273438 0 L 32.449219 0 L 32.449219 -0.78125 C 31.929688 -0.78125 30.449219 -1.828125 30.449219 -7.480469 L 30.449219 -60.289062 C 42.367188 -60.289062 46.371094 -59.246094 51.417969 -53.679688 L 52.199219 -53.679688 Z M 52.199219 -61.074219 "/></g></g></g><g fill="#000000" fill-opacity="1"><g transform="translate(199.021567, 104.399477)"><g><path d="M 4.609375 -22.96875 C 4.609375 -1.914062 22.792969 0.523438 27.839844 0.523438 C 32.800781 0.523438 48.894531 -1.132812 48.894531 -22.96875 L 48.894531 -46.894531 C 48.894531 -54.984375 50.894531 -60.289062 52.199219 -60.289062 L 52.199219 -61.074219 L 44.804688 -61.074219 L 44.804688 -60.289062 C 46.109375 -60.289062 48.109375 -54.984375 48.109375 -46.894531 L 48.109375 -22.96875 C 48.109375 -4.175781 35.84375 -0.523438 27.230469 -0.523438 C 9.570312 -0.523438 10.789062 -22.96875 10.789062 -22.96875 L 10.789062 -53.59375 C 10.789062 -59.335938 12.265625 -60.289062 12.789062 -60.289062 L 12.789062 -61.074219 L 2.609375 -61.074219 L 2.609375 -60.289062 C 3.132812 -60.289062 4.609375 -59.335938 4.609375 -53.59375 Z M 4.609375 -22.96875 "/></g></g></g><g fill="#000000" fill-opacity="1"><g transform="translate(253.831542, 104.399477)"><g><path d="M 40.714844 -9.308594 C 42.28125 -4.4375 42.367188 -0.78125 41.761719 -0.78125 L 41.761719 0 L 51.9375 0 L 51.9375 -0.78125 C 50.632812 -0.78125 48.460938 -6.089844 46.195312 -12.613281 L 29.578125 -61.074219 L 22.96875 -61.074219 L 24.621094 -56.289062 L 9.136719 -10.960938 C 6.4375 -3.132812 3.914062 -0.78125 2.609375 -0.78125 L 2.609375 0 L 10.003906 0 L 10.003906 -0.78125 C 7.742188 -0.78125 7.570312 -4.089844 9.917969 -10.699219 L 14.179688 -23.402344 C 15.398438 -26.796875 19.75 -27.578125 22.882812 -27.316406 C 31.40625 -26.449219 37.410156 -19.054688 40.019531 -11.398438 Z M 25.054688 -55.070312 L 37.84375 -17.835938 C 34.539062 -23.140625 29.40625 -27.40625 22.882812 -28.015625 C 20.359375 -28.273438 17.140625 -27.839844 15.136719 -26.011719 Z M 25.054688 -55.070312 "/></g></g></g><g fill="#000000" fill-opacity="1"><g transform="translate(308.380511, 104.399477)"><g><path d="M 12.875 -60.988281 L 2.609375 -60.988281 L 2.609375 -60.203125 C 3.132812 -60.203125 4.609375 -59.246094 4.609375 -53.503906 L 4.609375 -7.480469 C 4.609375 -1.738281 3.132812 -0.78125 2.609375 -0.78125 L 2.609375 0 L 30.625 0 L 32.886719 0.0859375 L 40.367188 0.0859375 L 40.367188 -7.308594 L 39.585938 -7.308594 C 34.277344 -4.089844 29.40625 -1.738281 20.707031 -0.78125 L 10.875 -0.78125 L 10.875 -53.503906 C 10.875 -59.246094 12.355469 -60.203125 12.875 -60.203125 Z M 12.875 -60.988281 "/></g></g></g><g clip-path="url(#fecc133242)"><path fill="#000000" d="M 187.695312 102.96875 C 187.996094 103.140625 188.285156 103.316406 188.574219 103.5 C 187.164062 102.867188 185.539062 102.015625 183.769531 101.0625 C 185.152344 101.625 186.476562 102.257812 187.695312 102.96875 Z M 190.707031 105.03125 C 192.082031 106.144531 193.285156 107.402344 194.324219 108.828125 C 196.070312 111.214844 197.367188 114.078125 198.253906 117.527344 C 199.117188 120.886719 199.597656 124.800781 199.742188 128.859375 C 199.894531 133.1875 199.664062 137.679688 199.109375 141.824219 C 198.585938 145.746094 197.769531 149.359375 196.742188 152.574219 C 195.667969 155.925781 194.355469 158.839844 192.898438 161.214844 C 191.589844 163.347656 190.15625 165.046875 188.890625 166.542969 C 187.375 168.34375 186.097656 169.855469 185.53125 171.511719 C 185.019531 173.019531 185.109375 174.609375 185.636719 176.082031 C 186.195312 177.636719 187.246094 179.058594 188.59375 180.097656 C 189.5 180.796875 190.535156 181.324219 191.515625 181.714844 C 193.335938 182.441406 194.976562 182.691406 195.125 182.691406 C 195.359375 182.691406 195.472656 182.578125 195.472656 182.351562 C 195.472656 182.089844 195.320312 182.050781 195.050781 181.976562 C 194.421875 181.808594 192.183594 181.199219 191.304688 179.929688 C 191.105469 179.644531 190.972656 179.320312 190.902344 178.980469 C 190.78125 178.40625 190.835938 177.789062 191.023438 177.242188 C 191.210938 176.707031 191.527344 176.246094 191.9375 175.957031 C 192.117188 175.832031 192.320312 175.742188 192.535156 175.695312 C 193.953125 175.398438 196.164062 176.980469 198.703125 178.796875 C 199.007812 179.011719 199.3125 179.230469 199.535156 179.386719 C 201.019531 180.4375 202.59375 181.507812 204.222656 182.347656 C 205.867188 183.195312 207.566406 183.804688 209.273438 183.914062 C 209.894531 183.957031 210.519531 183.929688 211.132812 183.855469 C 211.746094 184.761719 212.433594 185.660156 213.128906 186.570312 C 214.710938 188.648438 216.351562 190.796875 217.25 193.207031 C 217.910156 194.992188 218.175781 196.933594 218.066406 198.765625 C 217.953125 200.601562 217.46875 202.320312 216.632812 203.644531 C 215.816406 204.9375 214.664062 205.859375 213.398438 206.351562 C 212.113281 206.851562 210.703125 206.90625 209.398438 206.460938 C 208.464844 206.140625 207.5625 205.550781 206.65625 204.960938 C 204.925781 203.832031 203.171875 202.691406 200.957031 203.132812 C 199.15625 203.496094 197.125 204.917969 195.089844 206.34375 C 193.375 207.546875 191.65625 208.75 190.128906 209.269531 C 188.914062 209.683594 187.8125 209.667969 186.929688 209.492188 C 186.453125 209.261719 186.050781 209.0625 185.734375 208.902344 C 185.222656 208.648438 184.910156 208.488281 184.753906 208.464844 C 184.628906 208.441406 184.523438 208.472656 184.441406 208.542969 C 184.234375 208.71875 184.269531 208.972656 184.566406 209.214844 C 184.679688 209.308594 184.855469 209.421875 185.078125 209.542969 C 185.46875 209.753906 186.03125 209.984375 186.71875 210.132812 C 188.421875 210.945312 191.09375 212.109375 194.671875 213.152344 C 197.910156 214.09375 201.882812 214.9375 206.300781 215.570312 C 207.292969 215.710938 208.300781 215.839844 209.332031 215.960938 C 209.070312 216.03125 208.808594 216.097656 208.542969 216.167969 C 207.765625 216.367188 206.984375 216.566406 206.253906 216.804688 C 203.992188 215.804688 201.261719 215.089844 198.65625 214.449219 C 196.015625 213.796875 193.5 213.214844 191.558594 213.097656 C 189.476562 212.96875 188.019531 213.375 187.683594 214.765625 C 187.359375 216.101562 188.21875 218.371094 189.898438 220.769531 C 191.40625 222.917969 193.582031 225.195312 196.15625 227.007812 C 198.808594 228.875 201.878906 230.246094 205.28125 231.148438 C 206.230469 231.402344 207.207031 231.617188 208.207031 231.796875 C 208.085938 232.078125 207.960938 232.363281 207.839844 232.648438 C 207.347656 233.773438 206.847656 234.921875 206.394531 236.042969 C 205.234375 238.910156 204.289062 241.800781 203.863281 244.613281 C 203.433594 247.445312 203.527344 250.203125 204.445312 252.78125 C 205.367188 255.363281 207.117188 257.761719 209.535156 259.820312 C 210.878906 260.960938 212.425781 262 214.15625 262.914062 C 214.230469 262.972656 214.296875 263.027344 214.359375 263.078125 C 213.378906 262.78125 211.035156 261.6875 208.3125 259.894531 C 206.175781 258.488281 203.855469 256.625 201.851562 254.320312 C 197.824219 249.695312 195.035156 243.257812 192.070312 236.40625 C 191.089844 234.132812 190.085938 231.816406 189.03125 229.546875 C 186.867188 224.886719 184.417969 220.253906 181.863281 215.691406 C 179.332031 211.171875 176.660156 206.664062 174.054688 202.285156 L 173.667969 201.632812 C 168.644531 193.171875 163.902344 185.1875 159.828125 177.585938 C 157.746094 173.703125 155.84375 169.929688 154.113281 165.886719 C 152.386719 161.847656 150.824219 157.539062 149.425781 152.582031 C 148.03125 147.632812 146.792969 142.035156 145.828125 136.425781 C 144.855469 130.796875 144.152344 125.164062 143.832031 120.160156 C 143.554688 115.871094 143.554688 112.050781 143.554688 108.675781 C 143.554688 106.679688 143.554688 104.835938 143.496094 103.136719 C 143.632812 103.460938 143.773438 103.769531 143.917969 104.054688 C 144.714844 105.617188 145.660156 106.515625 146.855469 106.898438 C 148.03125 107.269531 149.425781 107.125 151.144531 106.597656 C 152.109375 106.304688 153.171875 105.894531 154.320312 105.433594 C 154.859375 106.273438 155.511719 107.144531 156.339844 108.023438 C 157.6875 109.449219 159.496094 110.894531 161.515625 112.078125 C 163.332031 113.148438 165.320312 114.007812 167.296875 114.457031 C 169.296875 114.914062 171.273438 114.953125 173.125 114.675781 C 174.601562 114.457031 175.996094 114.035156 177.25 113.46875 C 177.699219 113.496094 178.140625 113.523438 178.574219 113.546875 C 179.5625 113.605469 180.511719 113.664062 181.359375 113.746094 C 183.820312 113.980469 185.59375 114.441406 186.839844 114.761719 C 187.488281 114.929688 187.996094 115.0625 188.398438 115.113281 C 189.21875 115.214844 189.679688 115.019531 189.664062 114.332031 C 189.652344 113.859375 189.292969 113.097656 188.5 111.925781 C 187.605469 110.605469 186.144531 108.714844 184.199219 106.921875 C 182.808594 105.636719 181.171875 104.402344 179.3125 103.457031 C 177.148438 102.355469 174.695312 101.652344 172.152344 101.324219 C 172.011719 101.304688 171.867188 101.28125 171.730469 101.265625 C 170.765625 101.132812 169.882812 101.082031 169.089844 101.121094 C 167.378906 101.101562 165.664062 101.25 164 101.554688 C 160.644531 102.167969 157.519531 103.425781 154.828125 104.507812 L 154.59375 104.601562 C 154 103.609375 153.558594 102.660156 153.152344 101.792969 C 152.925781 101.308594 152.710938 100.847656 152.496094 100.433594 C 152.191406 99.847656 151.875 99.316406 151.582031 98.867188 C 152.371094 99.238281 153.453125 99.554688 154.859375 99.554688 C 156.144531 99.554688 157.691406 99.289062 159.5 98.980469 C 162.089844 98.535156 165.21875 98 168.804688 98.042969 C 171.9375 98.078125 175.433594 98.554688 178.832031 99.441406 C 179.1875 99.535156 179.542969 99.632812 179.898438 99.734375 C 180.519531 100.070312 181.132812 100.402344 181.734375 100.726562 C 185.320312 102.671875 188.460938 104.375 190.707031 105.03125 Z M 194.867188 108.429688 C 194.03125 107.289062 193.09375 106.25 192.054688 105.304688 C 192.117188 105.308594 192.179688 105.316406 192.238281 105.316406 C 192.753906 105.339844 193.191406 105.257812 193.554688 105.085938 C 194.195312 104.785156 194.585938 104.234375 194.757812 103.519531 C 194.921875 102.855469 194.890625 102.050781 194.703125 101.1875 C 194.390625 99.777344 193.636719 98.195312 192.585938 96.851562 C 191.257812 95.148438 189.457031 93.824219 186.976562 92.613281 C 184.527344 91.417969 181.402344 90.332031 177.390625 89.101562 C 172.917969 87.726562 167.339844 86.175781 161.960938 84.957031 C 157.710938 84 153.582031 83.25 150.210938 82.960938 C 146.582031 82.652344 143.8125 82.878906 141.863281 83.457031 C 139.570312 84.140625 138.371094 85.320312 138.203125 86.714844 C 138.046875 87.992188 138.769531 89.367188 139.679688 91.101562 C 140.457031 92.578125 141.375 94.328125 141.980469 96.476562 C 142.011719 96.949219 142.0625 97.429688 142.128906 97.910156 C 142.257812 98.859375 142.453125 99.816406 142.691406 100.722656 C 142.882812 103.035156 142.882812 105.683594 142.882812 108.675781 C 142.882812 112.070312 142.882812 115.910156 143.160156 120.203125 C 143.488281 125.230469 144.191406 130.890625 145.164062 136.539062 C 146.136719 142.167969 147.378906 147.789062 148.78125 152.765625 C 150.1875 157.75 151.757812 162.085938 153.496094 166.152344 C 155.238281 170.214844 157.148438 174.007812 159.238281 177.902344 C 163.292969 185.472656 168.050781 193.484375 173.09375 201.972656 L 173.480469 202.625 C 176.058594 206.960938 178.703125 211.421875 181.277344 216.019531 C 183.828125 220.570312 186.269531 225.191406 188.421875 229.828125 C 189.5 232.148438 190.488281 234.433594 191.457031 236.671875 C 194.445312 243.570312 197.253906 250.058594 201.347656 254.761719 C 203.394531 257.117188 205.765625 259.019531 207.945312 260.453125 C 211.648438 262.894531 214.933594 263.933594 215.257812 263.660156 C 215.3125 263.613281 215.351562 263.566406 215.378906 263.519531 C 216.378906 263.988281 217.429688 264.417969 218.53125 264.800781 C 222.164062 266.0625 226.332031 266.832031 230.210938 266.992188 C 233.933594 267.144531 237.40625 266.730469 239.914062 265.65625 C 240.941406 265.214844 241.8125 264.660156 242.507812 264.011719 C 243.507812 263.078125 244.148438 261.953125 244.382812 260.699219 C 244.613281 259.453125 244.445312 258.085938 243.832031 256.65625 C 243.316406 255.449219 242.488281 254.203125 241.320312 252.945312 C 238.800781 250.226562 234.683594 247.453125 230.25 245.484375 C 226.234375 243.703125 221.945312 242.578125 218.335938 242.75 C 217.445312 242.792969 216.597656 242.914062 215.796875 243.105469 C 213.023438 243.757812 210.792969 245.222656 209.277344 247.046875 C 207.757812 248.878906 206.960938 251.078125 207.058594 253.179688 C 207.082031 253.617188 207.140625 254.050781 207.238281 254.472656 C 207.714844 256.5 209.105469 258.320312 210.566406 259.800781 C 210.363281 259.636719 210.164062 259.472656 209.96875 259.308594 C 207.640625 257.324219 205.960938 255.027344 205.078125 252.554688 C 204.199219 250.089844 204.113281 247.441406 204.527344 244.710938 C 204.945312 241.960938 205.871094 239.121094 207.015625 236.296875 C 207.480469 235.144531 207.96875 234.019531 208.453125 232.914062 C 208.597656 232.578125 208.742188 232.246094 208.886719 231.910156 C 211.363281 232.3125 213.980469 232.496094 216.703125 232.472656 C 220.832031 232.433594 225.207031 231.917969 229.367188 230.945312 C 233.304688 230.019531 237.054688 228.6875 240.230469 226.953125 C 242.972656 225.460938 245.277344 223.671875 247.082031 221.957031 C 249.59375 219.570312 251.140625 217.304688 251.53125 216.179688 C 251.785156 215.445312 251.632812 215.050781 251.136719 214.878906 C 250.597656 214.691406 249.609375 214.941406 248.242188 215.285156 C 247.296875 215.523438 246.164062 215.808594 244.902344 216.027344 C 243.757812 216.226562 242.503906 216.367188 241.226562 216.515625 C 237.816406 216.902344 234.246094 217.3125 232.042969 218.820312 C 230.640625 219.777344 229.832031 221.144531 228.980469 222.578125 C 228.011719 224.21875 226.984375 225.953125 224.941406 227.164062 C 223 228.316406 220.125 229.027344 217.136719 229.175781 C 214.796875 229.289062 212.394531 229.054688 210.316406 228.417969 C 211.34375 225.636719 211.902344 223.125 211.1875 221.144531 C 210.585938 219.46875 209.097656 218.21875 207.15625 217.230469 C 207.660156 217.085938 208.183594 216.949219 208.707031 216.816406 C 209.519531 216.605469 210.328125 216.398438 211.074219 216.148438 C 213.761719 216.417969 216.5625 216.609375 219.421875 216.695312 C 223.761719 216.824219 228.226562 216.71875 232.414062 216.476562 C 237.496094 216.183594 242.171875 215.691406 245.726562 215.179688 C 249.5625 214.625 252.105469 214.039062 253.269531 213.589844 C 253.589844 213.464844 253.820312 213.347656 253.960938 213.234375 C 254.265625 212.992188 254.300781 212.746094 254.0625 212.503906 C 253.96875 212.40625 253.808594 212.332031 253.585938 212.285156 C 253.136719 212.191406 252.316406 212.167969 251.214844 212.140625 C 248.785156 212.078125 244.945312 211.980469 240.941406 210.992188 C 237.878906 210.234375 234.707031 208.949219 231.742188 207.75 C 229.085938 206.675781 226.59375 205.667969 224.472656 205.15625 C 222.289062 204.625 220.5 204.621094 219.089844 205.007812 C 217.503906 205.449219 216.398438 206.382812 215.753906 207.632812 C 215.328125 208.460938 215.113281 209.410156 214.894531 210.375 C 214.523438 212.023438 214.144531 213.714844 212.632812 214.710938 C 212.179688 215.007812 211.621094 215.253906 211 215.464844 C 209.421875 215.304688 207.882812 215.117188 206.398438 214.90625 C 202.003906 214.277344 198.0625 213.441406 194.859375 212.507812 C 192.300781 211.761719 190.210938 210.953125 188.617188 210.261719 C 189.160156 210.21875 189.738281 210.109375 190.34375 209.90625 C 191.957031 209.355469 193.714844 208.121094 195.472656 206.890625 C 197.449219 205.507812 199.421875 204.128906 201.089844 203.792969 C 203.039062 203.402344 204.675781 204.46875 206.292969 205.523438 C 207.234375 206.136719 208.171875 206.75 209.183594 207.09375 C 210.640625 207.59375 212.207031 207.53125 213.636719 206.976562 C 215.035156 206.433594 216.304688 205.421875 217.199219 204.003906 C 218.09375 202.578125 218.617188 200.75 218.734375 198.804688 C 218.847656 196.882812 218.570312 194.847656 217.875 192.972656 C 216.941406 190.464844 215.273438 188.277344 213.660156 186.164062 C 213.035156 185.347656 212.421875 184.542969 211.867188 183.742188 C 213.769531 183.390625 215.578125 182.625 217.128906 181.96875 C 217.566406 181.785156 217.980469 181.609375 218.402344 181.441406 C 219.308594 181.085938 220.074219 180.847656 220.613281 180.699219 C 220.832031 180.660156 221.015625 180.625 221.15625 180.59375 C 221.332031 180.558594 221.441406 180.527344 221.496094 180.507812 L 221.527344 180.5 C 222.207031 180.398438 222.59375 180.195312 222.714844 180.011719 C 222.949219 179.875 222.9375 179.789062 222.675781 179.765625 C 222.511719 179.640625 222.070312 179.617188 221.378906 179.839844 L 221.332031 179.847656 C 221.277344 179.851562 221.179688 179.871094 221.046875 179.898438 C 220.902344 179.929688 220.703125 179.976562 220.460938 180.042969 C 219.71875 180.171875 218.597656 180.320312 217.675781 180.265625 C 217.027344 180.230469 216.5 180.105469 216.347656 179.820312 C 216.332031 179.792969 216.320312 179.761719 216.3125 179.730469 C 216.226562 179.382812 216.46875 178.832031 216.949219 178.238281 C 217.46875 177.59375 218.257812 176.929688 219.222656 176.414062 C 219.792969 176.109375 220.421875 175.855469 221.09375 175.691406 C 222.46875 175.355469 224.03125 175.382812 225.515625 175.613281 C 227.417969 175.902344 229.179688 176.515625 230.277344 177.101562 C 230.824219 177.398438 231.199219 177.683594 231.425781 177.953125 C 231.585938 178.140625 231.667969 178.3125 231.6875 178.476562 C 231.707031 178.625 231.671875 178.777344 231.589844 178.925781 C 231.5 179.097656 231.347656 179.269531 231.152344 179.433594 C 230.839844 179.695312 230.429688 179.941406 230.070312 180.152344 C 229.5625 180.449219 229.148438 180.695312 229.082031 180.996094 C 229.019531 181.292969 229.175781 181.503906 229.644531 181.601562 C 230.289062 181.742188 231.972656 181.742188 233.980469 181.125 C 235.277344 180.726562 236.714844 180.070312 238.113281 179.019531 C 239.957031 177.636719 241.714844 175.570312 242.964844 173.273438 C 244.109375 171.171875 244.824219 168.871094 244.789062 166.714844 C 244.75 164.371094 243.824219 162.203125 242.226562 160.628906 C 240.710938 159.132812 238.589844 158.175781 236.050781 158.101562 C 233.78125 158.035156 231.175781 158.683594 228.652344 159.667969 C 225.476562 160.90625 222.417969 162.675781 220.3125 164.21875 C 217.496094 166.277344 216.367188 167.9375 215.289062 169.519531 C 214.917969 170.058594 214.558594 170.589844 214.136719 171.125 C 213.253906 172.238281 212.101562 173.371094 210.769531 174.253906 C 210.390625 174.503906 210 174.730469 209.59375 174.933594 C 209.71875 174.484375 209.886719 174.027344 210.101562 173.5625 C 210.828125 171.972656 212.101562 170.277344 213.257812 168.738281 C 214.726562 166.78125 216.015625 165.066406 215.882812 163.945312 C 215.75 162.832031 214.382812 162.410156 212.4375 162.363281 C 210.644531 162.316406 208.328125 162.570312 206.085938 162.859375 C 203.84375 163.148438 201.671875 163.476562 199.882812 163.96875 C 198.042969 164.472656 196.597656 165.15625 195.863281 166.164062 C 195.144531 167.152344 195.117188 168.40625 195.566406 169.691406 C 196.042969 171.058594 197.070312 172.46875 198.359375 173.601562 C 199.601562 174.699219 201.09375 175.542969 202.660156 176.039062 C 204.175781 176.519531 205.761719 176.675781 207.261719 176.417969 C 207.75 176.335938 208.226562 176.207031 208.691406 176.046875 C 208.585938 176.917969 208.621094 177.769531 208.773438 178.605469 C 209.0625 180.195312 209.773438 181.722656 210.71875 183.222656 C 210.253906 183.265625 209.78125 183.273438 209.3125 183.246094 C 207.710938 183.140625 206.101562 182.558594 204.527344 181.75 C 202.9375 180.933594 201.386719 179.875 199.921875 178.839844 C 199.582031 178.597656 199.335938 178.421875 199.09375 178.25 C 196.425781 176.34375 194.101562 174.683594 192.398438 175.039062 C 192.089844 175.101562 191.804688 175.230469 191.550781 175.40625 C 191.023438 175.773438 190.625 176.359375 190.390625 177.023438 C 190.164062 177.679688 190.101562 178.421875 190.246094 179.117188 C 190.335938 179.542969 190.5 179.949219 190.753906 180.3125 C 190.890625 180.515625 191.058594 180.703125 191.246094 180.875 C 190.476562 180.535156 189.699219 180.105469 189.003906 179.570312 C 187.753906 178.601562 186.78125 177.289062 186.265625 175.855469 C 185.789062 174.519531 185.707031 173.082031 186.167969 171.726562 C 186.691406 170.191406 187.929688 168.722656 189.402344 166.976562 C 190.683594 165.460938 192.136719 163.738281 193.472656 161.566406 C 194.953125 159.152344 196.285156 156.1875 197.378906 152.777344 C 198.417969 149.527344 199.242188 145.875 199.773438 141.910156 C 200.332031 137.730469 200.5625 133.203125 200.410156 128.835938 C 200.265625 124.730469 199.777344 120.769531 198.902344 117.363281 C 197.992188 113.824219 196.660156 110.886719 194.867188 108.429688 Z M 191.03125 104.429688 C 190.105469 103.6875 189.105469 103.011719 188.03125 102.386719 C 185.683594 101.027344 182.972656 99.925781 180.15625 99.109375 C 178.09375 98 175.914062 96.855469 173.695312 95.816406 C 170 94.085938 166.226562 92.65625 162.691406 91.546875 C 158.691406 90.289062 154.984375 89.4375 152.027344 89.015625 C 149.214844 88.613281 147.0625 88.597656 145.484375 89.082031 C 143.839844 89.585938 142.816406 90.613281 142.3125 92.277344 C 142.128906 92.890625 142.015625 93.59375 141.964844 94.347656 C 141.433594 92.996094 140.816406 91.824219 140.273438 90.789062 C 139.417969 89.160156 138.738281 87.867188 138.867188 86.792969 C 139.003906 85.671875 140.046875 84.699219 142.050781 84.101562 C 143.925781 83.546875 146.609375 83.332031 150.15625 83.632812 C 153.5 83.917969 157.597656 84.660156 161.8125 85.613281 C 167.179688 86.824219 172.738281 88.375 177.195312 89.742188 C 181.167969 90.960938 184.261719 92.035156 186.683594 93.21875 C 189.074219 94.382812 190.796875 95.652344 192.058594 97.261719 C 193.050781 98.53125 193.757812 100.011719 194.046875 101.332031 C 194.21875 102.09375 194.246094 102.796875 194.109375 103.359375 C 193.980469 103.875 193.710938 104.273438 193.273438 104.476562 C 193.003906 104.601562 192.671875 104.664062 192.261719 104.648438 C 191.902344 104.632812 191.488281 104.554688 191.03125 104.429688 Z M 216.867188 181.351562 C 215.273438 182.027344 213.394531 182.820312 211.457031 183.128906 L 211.441406 183.109375 C 210.457031 181.59375 209.71875 180.066406 209.433594 178.488281 C 209.273438 177.601562 209.25 176.695312 209.410156 175.761719 C 210.011719 175.496094 210.589844 175.175781 211.140625 174.8125 C 212.535156 173.890625 213.738281 172.703125 214.660156 171.542969 C 215.097656 170.992188 215.464844 170.449219 215.84375 169.898438 C 216.890625 168.359375 217.984375 166.753906 220.707031 164.757812 C 222.777344 163.246094 225.777344 161.507812 228.894531 160.292969 C 231.34375 159.339844 233.859375 158.710938 236.03125 158.773438 C 238.390625 158.839844 240.355469 159.726562 241.757812 161.105469 C 243.230469 162.558594 244.085938 164.558594 244.121094 166.726562 C 244.15625 168.761719 243.46875 170.945312 242.378906 172.953125 C 241.171875 175.167969 239.480469 177.15625 237.710938 178.484375 C 236.386719 179.480469 235.015625 180.105469 233.78125 180.484375 C 232.089844 181.007812 230.675781 181.0625 229.988281 180.980469 C 230.101562 180.910156 230.25 180.824219 230.40625 180.730469 C 230.792969 180.503906 231.234375 180.242188 231.585938 179.945312 C 231.839844 179.730469 232.046875 179.492188 232.183594 179.238281 C 232.324219 178.972656 232.386719 178.6875 232.351562 178.390625 C 232.3125 178.101562 232.183594 177.808594 231.9375 177.519531 C 231.660156 177.1875 231.222656 176.851562 230.589844 176.511719 C 229.433594 175.890625 227.589844 175.25 225.617188 174.945312 C 224.058594 174.707031 222.40625 174.679688 220.933594 175.042969 C 220.207031 175.21875 219.523438 175.492188 218.910156 175.820312 C 217.859375 176.382812 216.996094 177.109375 216.425781 177.816406 C 215.816406 178.570312 215.527344 179.332031 215.664062 179.886719 C 215.683594 179.976562 215.714844 180.058594 215.757812 180.136719 C 216.042969 180.667969 216.773438 180.886719 217.636719 180.9375 C 217.707031 180.941406 217.773438 180.945312 217.839844 180.945312 C 217.539062 181.070312 217.210938 181.207031 216.867188 181.351562 Z M 229.738281 181.132812 C 229.734375 181.167969 229.730469 181.179688 229.738281 181.132812 Z M 208.820312 175.28125 C 208.277344 175.496094 207.722656 175.660156 207.152344 175.757812 C 205.757812 175.996094 204.277344 175.847656 202.859375 175.398438 C 201.382812 174.929688 199.972656 174.128906 198.796875 173.097656 C 197.59375 172.035156 196.636719 170.730469 196.199219 169.472656 C 195.820312 168.386719 195.828125 167.347656 196.402344 166.558594 C 197.035156 165.691406 198.359375 165.082031 200.058594 164.613281 C 201.8125 164.132812 203.953125 163.8125 206.171875 163.523438 C 208.386719 163.238281 210.671875 162.988281 212.421875 163.03125 C 214.019531 163.070312 215.132812 163.335938 215.214844 164.023438 C 215.316406 164.882812 214.105469 166.496094 212.722656 168.335938 C 211.546875 169.902344 210.25 171.628906 209.492188 173.28125 C 209.179688 173.960938 208.957031 174.628906 208.820312 175.28125 Z M 219.441406 216.023438 C 217.050781 215.953125 214.699219 215.808594 212.417969 215.601562 C 212.625 215.5 212.820312 215.390625 213 215.269531 C 214.738281 214.125 215.148438 212.300781 215.546875 210.519531 C 215.757812 209.601562 215.960938 208.695312 216.347656 207.941406 C 216.910156 206.851562 217.875 206.039062 219.265625 205.65625 C 220.570312 205.296875 222.25 205.304688 224.3125 205.804688 C 226.386719 206.308594 228.855469 207.308594 231.492188 208.371094 C 234.476562 209.582031 237.671875 210.875 240.78125 211.640625 C 244.851562 212.648438 248.738281 212.746094 251.199219 212.8125 C 252.066406 212.832031 252.753906 212.851562 253.1875 212.902344 C 253.140625 212.921875 253.085938 212.941406 253.03125 212.964844 C 251.910156 213.394531 249.421875 213.964844 245.628906 214.511719 C 242.09375 215.027344 237.433594 215.515625 232.378906 215.808594 C 228.199219 216.046875 223.753906 216.152344 219.441406 216.023438 Z M 205.328125 217.140625 C 204.320312 217.554688 203.476562 218.078125 202.972656 218.839844 C 202.96875 218.847656 202.960938 218.855469 202.957031 218.863281 C 202.859375 219.015625 202.773438 219.175781 202.703125 219.339844 C 202.214844 220.484375 202.375 221.96875 203.09375 223.449219 C 203.796875 224.890625 205.039062 226.34375 206.730469 227.472656 C 207.339844 227.878906 208.007812 228.246094 208.730469 228.554688 C 208.960938 228.652344 209.199219 228.746094 209.441406 228.835938 C 209.148438 229.59375 208.820312 230.371094 208.480469 231.164062 C 207.445312 230.980469 206.433594 230.761719 205.449219 230.5 C 202.128906 229.617188 199.128906 228.277344 196.542969 226.457031 C 194.035156 224.691406 191.914062 222.472656 190.449219 220.382812 C 188.871094 218.140625 188.054688 216.074219 188.332031 214.925781 C 188.570312 213.9375 189.777344 213.660156 191.519531 213.765625 C 193.40625 213.882812 195.890625 214.457031 198.496094 215.101562 C 200.824219 215.675781 203.25 216.304688 205.328125 217.140625 Z M 203.53125 219.210938 C 204.042969 218.4375 205.039062 217.929688 206.21875 217.523438 C 208.328125 218.488281 209.960938 219.710938 210.558594 221.371094 C 211.207031 223.167969 210.667969 225.546875 209.679688 228.207031 C 209.445312 228.121094 209.214844 228.03125 208.992188 227.9375 C 208.308594 227.644531 207.675781 227.300781 207.101562 226.917969 C 205.515625 225.855469 204.351562 224.496094 203.699219 223.152344 C 203.0625 221.847656 202.910156 220.566406 203.320312 219.605469 C 203.375 219.472656 203.441406 219.347656 203.515625 219.230469 C 203.523438 219.226562 203.527344 219.21875 203.53125 219.210938 Z M 210.078125 229.046875 C 212.242188 229.71875 214.742188 229.960938 217.167969 229.84375 C 220.261719 229.691406 223.25 228.949219 225.28125 227.742188 C 227.472656 226.441406 228.542969 224.632812 229.558594 222.921875 C 230.367188 221.554688 231.140625 220.25 232.417969 219.375 C 234.484375 217.960938 237.972656 217.5625 241.300781 217.183594 C 242.589844 217.035156 243.859375 216.890625 245.015625 216.691406 C 246.300781 216.46875 247.449219 216.179688 248.402344 215.9375 C 249.660156 215.621094 250.570312 215.390625 250.921875 215.511719 C 251 215.539062 251 215.675781 250.898438 215.960938 C 250.535156 217.011719 249.050781 219.160156 246.617188 221.472656 C 244.851562 223.148438 242.59375 224.902344 239.910156 226.367188 C 236.792969 228.066406 233.101562 229.378906 229.214844 230.289062 C 225.097656 231.253906 220.773438 231.765625 216.695312 231.800781 C 214.074219 231.824219 211.550781 231.652344 209.160156 231.277344 C 209.484375 230.519531 209.796875 229.773438 210.078125 229.046875 Z M 218.75 264.167969 C 217.246094 263.644531 215.835938 263.035156 214.527344 262.351562 C 214.390625 262.238281 214.238281 262.117188 214.074219 261.984375 C 212.203125 260.484375 208.675781 257.65625 207.894531 254.320312 C 207.800781 253.933594 207.75 253.542969 207.730469 253.148438 C 207.636719 251.210938 208.378906 249.179688 209.792969 247.472656 C 211.21875 245.757812 213.324219 244.378906 215.949219 243.757812 C 216.714844 243.578125 217.523438 243.460938 218.367188 243.421875 C 221.867188 243.253906 226.046875 244.355469 229.980469 246.101562 C 234.335938 248.03125 238.371094 250.746094 240.832031 253.402344 C 241.945312 254.601562 242.730469 255.785156 243.214844 256.917969 C 243.773438 258.222656 243.929688 259.460938 243.722656 260.578125 C 243.515625 261.6875 242.945312 262.6875 242.050781 263.519531 C 241.414062 264.117188 240.609375 264.628906 239.652344 265.039062 C 237.238281 266.074219 233.867188 266.46875 230.234375 266.320312 C 226.417969 266.164062 222.324219 265.40625 218.75 264.167969 Z M 143.355469 100.613281 C 143.257812 99.445312 143.109375 98.355469 142.890625 97.347656 C 142.816406 97.007812 142.730469 96.675781 142.644531 96.355469 C 142.550781 94.90625 142.632812 93.539062 142.953125 92.472656 C 143.386719 91.039062 144.269531 90.15625 145.679688 89.722656 C 147.15625 89.269531 149.214844 89.292969 151.933594 89.679688 C 154.855469 90.097656 158.523438 90.941406 162.492188 92.1875 C 166.007812 93.289062 169.75 94.707031 173.410156 96.425781 C 174.753906 97.050781 176.085938 97.722656 177.394531 98.402344 C 174.460938 97.753906 171.503906 97.402344 168.8125 97.371094 C 165.15625 97.328125 162 97.871094 159.386719 98.316406 C 157.613281 98.621094 156.09375 98.882812 154.859375 98.882812 C 152.007812 98.882812 150.648438 97.488281 150.441406 97.273438 C 150.433594 97.265625 150.425781 97.257812 150.421875 97.25 C 150.253906 97.085938 150.101562 97.074219 149.933594 97.242188 C 149.726562 97.457031 149.808594 97.5625 149.972656 97.769531 C 150.210938 98.070312 151.097656 99.195312 151.898438 100.742188 C 152.121094 101.167969 152.328125 101.609375 152.546875 102.078125 C 152.945312 102.933594 153.386719 103.871094 153.964844 104.855469 C 152.867188 105.292969 151.851562 105.683594 150.949219 105.957031 C 149.359375 106.441406 148.09375 106.585938 147.058594 106.253906 C 146.039062 105.933594 145.222656 105.140625 144.511719 103.75 C 144.070312 102.882812 143.671875 101.796875 143.355469 100.613281 Z M 154.957031 105.179688 L 155.074219 105.132812 C 157.738281 104.0625 160.832031 102.816406 164.121094 102.214844 C 164.773438 102.09375 165.429688 102 166.09375 101.929688 C 165.382812 102.386719 164.898438 103.035156 164.671875 103.886719 C 164.34375 105.128906 164.582031 106.800781 165.421875 108.359375 C 166.132812 109.683594 167.277344 110.929688 168.867188 111.761719 C 170.75 112.746094 173.238281 113.136719 175.722656 113.351562 C 174.871094 113.648438 173.96875 113.871094 173.027344 114.011719 C 171.253906 114.277344 169.355469 114.242188 167.441406 113.804688 C 165.539062 113.367188 163.613281 112.535156 161.851562 111.5 C 159.890625 110.347656 158.128906 108.945312 156.828125 107.5625 C 156.066406 106.757812 155.460938 105.957031 154.957031 105.179688 Z M 169.078125 101.789062 C 170.050781 101.800781 171.023438 101.863281 171.984375 101.984375 L 172.109375 102 C 173.949219 102.296875 176.035156 102.882812 177.816406 103.660156 C 179.453125 104.371094 180.820312 105.238281 181.476562 106.183594 C 181.523438 106.25 181.566406 106.316406 181.609375 106.386719 C 182.09375 107.21875 182.035156 108.125 181.59375 109.011719 C 181.128906 109.941406 180.25 110.851562 179.128906 111.636719 C 178.859375 111.828125 178.574219 112.011719 178.273438 112.183594 C 177.910156 112.398438 177.527344 112.601562 177.128906 112.785156 C 174.277344 112.59375 171.285156 112.273438 169.179688 111.167969 C 167.714844 110.40625 166.664062 109.257812 166.011719 108.039062 C 165.253906 106.632812 165.03125 105.144531 165.320312 104.058594 C 165.570312 103.117188 166.230469 102.476562 167.226562 102.125 C 167.753906 101.9375 168.375 101.828125 169.078125 101.789062 Z M 182.226562 106.125 C 182.761719 106.539062 183.269531 106.976562 183.746094 107.414062 C 185.648438 109.167969 187.074219 111.015625 187.945312 112.300781 C 188.664062 113.363281 188.988281 114.007812 188.996094 114.34375 C 188.996094 114.464844 188.808594 114.488281 188.480469 114.445312 C 188.109375 114.398438 187.625 114.273438 187.007812 114.113281 C 185.742188 113.785156 183.9375 113.320312 181.421875 113.078125 C 180.542969 112.992188 179.597656 112.9375 178.613281 112.878906 L 178.433594 112.867188 C 178.492188 112.832031 178.554688 112.796875 178.613281 112.761719 C 178.925781 112.582031 179.226562 112.386719 179.511719 112.1875 C 180.722656 111.339844 181.679688 110.34375 182.195312 109.308594 C 182.722656 108.25 182.796875 107.15625 182.226562 106.125 " fill-opacity="1" fill-rule="nonzero"/></g><g fill="#808080" fill-opacity="1"><g transform="translate(66.956813, 309.412979)"><g><path d="M 28.207031 -27.542969 L 16.242188 -2.707031 L 4.277344 -27.542969 L 1.175781 -27.542969 L 2.667969 -24.441406 L 2.667969 -6.433594 C 2.667969 -2.785156 1.765625 -0.351562 1.175781 -0.351562 L 1.175781 0 L 4.511719 0 L 4.511719 -0.351562 C 3.921875 -0.351562 3.019531 -2.785156 3.019531 -6.433594 L 3.019531 -23.734375 L 14.4375 0 L 17.535156 0 L 16.4375 -2.316406 L 28.207031 -26.71875 L 28.207031 -3.375 C 28.207031 -0.824219 27.542969 -0.351562 27.304688 -0.351562 L 27.304688 0 L 31.933594 0 L 31.933594 -0.351562 C 31.699219 -0.351562 31.03125 -0.824219 31.03125 -3.375 L 31.03125 -24.167969 C 31.03125 -26.757812 31.699219 -27.1875 31.933594 -27.1875 L 31.933594 -27.542969 Z M 28.207031 -27.542969 "/></g></g></g><g fill="#808080" fill-opacity="1"><g transform="translate(114.303981, 309.412979)"><g><path d="M 1.6875 -10.199219 C 5.335938 3.453125 25.03125 3.375 27.582031 -9.375 L 27.226562 -9.453125 C 24.914062 2.234375 8.003906 2.195312 4.472656 -10.945312 C 4.082031 -12.359375 3.921875 -13.847656 3.921875 -15.339844 L 4.746094 -15.339844 C 11.023438 -15.339844 17.890625 -13.847656 17.890625 -13.847656 L 18.242188 -13.847656 L 18.242188 -17.183594 L 17.890625 -17.183594 C 17.890625 -17.183594 11.023438 -15.691406 4.746094 -15.691406 L 3.960938 -15.691406 C 4.121094 -20.636719 6.550781 -25.578125 11.613281 -26.953125 C 17.300781 -28.445312 22.046875 -24.246094 24.480469 -19.378906 L 24.835938 -19.378906 L 25.777344 -22.832031 C 22.402344 -26.796875 16.910156 -28.71875 11.535156 -27.265625 C 4.121094 -25.265625 -0.3125 -17.65625 1.6875 -10.199219 Z M 1.6875 -10.199219 "/></g></g></g><g fill="#808080" fill-opacity="1"><g transform="translate(157.29744, 309.412979)"><g><path d="M 23.539062 -27.542969 L 1.175781 -27.542969 L 1.175781 -24.207031 L 1.53125 -24.207031 C 3.804688 -26.71875 5.570312 -27.1875 10.945312 -27.1875 L 10.945312 -3.375 C 10.945312 -0.824219 10.277344 -0.351562 10.042969 -0.351562 L 10.042969 0 L 14.632812 0 L 14.632812 -0.351562 C 14.398438 -0.351562 13.730469 -0.824219 13.730469 -3.375 L 13.730469 -27.1875 C 19.105469 -27.1875 20.910156 -26.71875 23.1875 -24.207031 L 23.539062 -24.207031 Z M 23.539062 -27.542969 "/></g></g></g><g fill="#808080" fill-opacity="1"><g transform="translate(196.250963, 309.412979)"><g><path d="M 2 -28.011719 L 1.175781 -28.011719 L 1.175781 -24.363281 L 2 -24.363281 Z M 2 -28.011719 "/></g></g></g><g fill="#808080" fill-opacity="1"><g transform="translate(213.67125, 309.412979)"><g><path d="M 18.359375 -4.199219 C 19.066406 -2 19.105469 -0.351562 18.832031 -0.351562 L 18.832031 0 L 23.421875 0 L 23.421875 -0.351562 C 22.832031 -0.351562 21.851562 -2.746094 20.832031 -5.6875 L 13.339844 -27.542969 L 10.355469 -27.542969 L 11.101562 -25.382812 L 4.121094 -4.941406 C 2.902344 -1.414062 1.765625 -0.351562 1.175781 -0.351562 L 1.175781 0 L 4.511719 0 L 4.511719 -0.351562 C 3.492188 -0.351562 3.414062 -1.84375 4.472656 -4.824219 L 6.394531 -10.554688 C 6.945312 -12.082031 8.90625 -12.4375 10.316406 -12.320312 C 14.164062 -11.925781 16.871094 -8.59375 18.046875 -5.140625 Z M 11.300781 -24.835938 L 17.066406 -8.042969 C 15.574219 -10.4375 13.261719 -12.359375 10.316406 -12.632812 C 9.179688 -12.75 7.730469 -12.554688 6.828125 -11.730469 Z M 11.300781 -24.835938 "/></g></g></g><g fill="#808080" fill-opacity="1"><g transform="translate(252.507104, 309.412979)"><g><path d="M 12.398438 -15.183594 C 17.574219 -15.929688 19.460938 -18.320312 19.460938 -21.460938 C 19.460938 -25.265625 16.753906 -27.972656 8.789062 -27.972656 C 6.511719 -27.972656 3.84375 -27.582031 1.53125 -27.542969 L 1.175781 -27.542969 L 1.175781 -27.1875 C 1.414062 -27.1875 2.078125 -26.757812 2.078125 -24.167969 L 2.078125 -3.375 C 2.078125 -0.824219 1.414062 -0.351562 1.175781 -0.351562 L 1.175781 0 L 5.765625 0 L 5.765625 -0.351562 C 5.53125 -0.351562 4.863281 -0.824219 4.863281 -3.375 L 4.863281 -14.988281 L 9.296875 -14.988281 L 15.261719 -4.667969 C 16.714844 -2.15625 17.300781 -0.351562 16.988281 -0.351562 L 16.988281 0 L 21.578125 0 L 21.578125 -0.351562 C 20.988281 -0.351562 19.695312 -2.589844 17.96875 -5.53125 Z M 4.863281 -27.421875 C 6.238281 -27.542969 7.570312 -27.660156 8.789062 -27.660156 C 12.203125 -27.660156 16.714844 -26.324219 16.714844 -21.460938 C 16.714844 -16.632812 12.203125 -15.300781 8.789062 -15.300781 L 4.863281 -15.300781 Z M 4.863281 -27.421875 "/></g></g></g><g fill="#808080" fill-opacity="1"><g transform="translate(289.499477, 309.412979)"><g><path d="M 23.539062 -27.542969 L 1.175781 -27.542969 L 1.175781 -24.207031 L 1.53125 -24.207031 C 3.804688 -26.71875 5.570312 -27.1875 10.945312 -27.1875 L 10.945312 -3.375 C 10.945312 -0.824219 10.277344 -0.351562 10.042969 -0.351562 L 10.042969 0 L 14.632812 0 L 14.632812 -0.351562 C 14.398438 -0.351562 13.730469 -0.824219 13.730469 -3.375 L 13.730469 -27.1875 C 19.105469 -27.1875 20.910156 -26.71875 23.1875 -24.207031 L 23.539062 -24.207031 Z M 23.539062 -27.542969 "/></g></g></g><path stroke-linecap="butt" transform="matrix(0.75, 0, 0, 0.75, 48.34774, 270.928897)" fill="none" stroke-linejoin="miter" d="M 60.109268 12.282304 L 44.16135 45.386473 L 28.197807 12.282304 L 24.072807 12.282304 L 26.06239 16.407305 L 26.06239 40.417723 C 26.06239 45.282306 24.848849 48.527098 24.072807 48.527098 L 24.072807 49.001057 L 28.515516 49.001057 L 28.515516 48.527098 C 27.734266 48.527098 26.520724 45.282306 26.520724 40.417723 L 26.520724 17.355221 L 41.744683 49.001057 L 45.885308 49.001057 L 44.416558 45.907306 L 60.109268 13.381263 L 60.109268 44.506265 C 60.109268 47.902098 59.218643 48.527098 58.911351 48.527098 L 58.911351 49.001057 L 65.078018 49.001057 L 65.078018 48.527098 C 64.770726 48.527098 63.880101 47.902098 63.880101 44.506265 L 63.880101 16.777096 C 63.880101 13.329179 64.770726 12.740638 65.078018 12.740638 L 65.078018 12.282304 Z M 87.874894 35.396889 C 92.744686 53.600015 118.999897 53.495849 122.39573 36.495848 L 121.937397 36.396889 C 118.848855 51.975015 96.307187 51.922932 91.593645 34.402097 C 91.067603 32.527097 90.864478 30.532305 90.864478 28.542722 L 91.963436 28.542722 C 100.32802 28.542722 109.484271 30.532305 109.484271 30.532305 L 109.958229 30.532305 L 109.958229 26.089597 L 109.484271 26.089597 C 109.484271 26.089597 100.32802 28.07918 91.963436 28.07918 L 90.916561 28.07918 C 91.119686 21.490638 94.364478 14.886471 101.10927 13.063554 C 108.692604 11.068763 115.025938 16.678138 118.27073 23.162513 L 118.744688 23.162513 L 119.994688 18.553138 C 115.499896 13.266679 108.171771 10.714596 101.005104 12.641679 C 91.119686 15.308346 85.208228 25.464597 87.874894 35.396889 Z M 174.34365 12.282304 L 144.52594 12.282304 L 144.52594 16.730221 L 144.999898 16.730221 C 148.02594 13.381263 150.385315 12.740638 157.551982 12.740638 L 157.551982 44.506265 C 157.551982 47.902098 156.656149 48.527098 156.348857 48.527098 L 156.348857 49.001057 L 162.468649 49.001057 L 162.468649 48.527098 C 162.150941 48.527098 161.265524 47.902098 161.265524 44.506265 L 161.265524 12.740638 C 168.432191 12.740638 170.833233 13.381263 173.8749 16.730221 L 174.34365 16.730221 Z M 197.562402 11.646888 L 196.463443 11.646888 L 196.463443 16.511471 L 197.562402 16.511471 Z M 242.598863 43.407306 C 243.54678 46.329181 243.598863 48.527098 243.229071 48.527098 L 243.229071 49.001057 L 249.343655 49.001057 L 249.343655 48.527098 C 248.567613 48.527098 247.249905 45.33439 245.895738 41.412515 L 235.911363 12.282304 L 231.926987 12.282304 L 232.921779 15.157304 L 223.609278 42.412515 C 221.989487 47.120848 220.468653 48.527098 219.692611 48.527098 L 219.692611 49.001057 L 224.13532 49.001057 L 224.13532 48.527098 C 222.781153 48.527098 222.66657 46.537515 224.083237 42.563556 L 226.650945 34.928139 C 227.380112 32.881264 229.994695 32.422931 231.874904 32.573972 C 237.005113 33.100014 240.609279 37.542723 242.182196 42.141681 Z M 233.187404 15.886471 L 240.874905 38.271889 C 238.885321 35.079181 235.796779 32.527097 231.874904 32.157306 C 230.35407 32.001056 228.426987 32.256264 227.223862 33.355222 Z M 286.426991 28.756264 C 293.333241 27.761472 295.848866 24.568763 295.848866 20.381263 C 295.848866 15.308346 292.234283 11.709388 281.624907 11.709388 C 278.58324 11.709388 275.02074 12.230221 271.942615 12.282304 L 271.468657 12.282304 L 271.468657 12.740638 C 271.775948 12.740638 272.671782 13.329179 272.671782 16.777096 L 272.671782 44.506265 C 272.671782 47.902098 271.775948 48.527098 271.468657 48.527098 L 271.468657 49.001057 L 277.588449 49.001057 L 277.588449 48.527098 C 277.281157 48.527098 276.390532 47.902098 276.390532 44.506265 L 276.390532 29.011472 L 282.301991 29.011472 L 290.244699 42.782306 C 292.187408 46.126056 292.96345 48.527098 292.5572 48.527098 L 292.5572 49.001057 L 298.671783 49.001057 L 298.671783 48.527098 C 297.880117 48.527098 296.156158 45.55314 293.859283 41.620848 Z M 276.390532 12.438554 C 278.213449 12.282304 279.999907 12.115638 281.624907 12.115638 C 286.171782 12.115638 292.187408 13.907304 292.187408 20.381263 C 292.187408 26.818764 286.171782 28.605222 281.624907 28.605222 L 276.390532 28.605222 Z M 350.614495 12.282304 L 320.796785 12.282304 L 320.796785 16.730221 L 321.265535 16.730221 C 324.291577 13.381263 326.65616 12.740638 333.822827 12.740638 L 333.822827 44.506265 C 333.822827 47.902098 332.926994 48.527098 332.619702 48.527098 L 332.619702 49.001057 L 338.739494 49.001057 L 338.739494 48.527098 C 338.416578 48.527098 337.536369 47.902098 337.536369 44.506265 L 337.536369 12.740638 C 344.703036 12.740638 347.104078 13.381263 350.140537 16.730221 L 350.614495 16.730221 Z M 350.614495 12.282304 " stroke="#000000" stroke-width="2.910122" stroke-opacity="1" stroke-miterlimit="4"/><path stroke-linecap="butt" transform="matrix(3.740259, 0, 0, 3.75, 331.746105, 292.753867)" fill="none" stroke-linejoin="miter" d="M -0.00000303865 0.0000104198 L 10.829167 0.0000104198 " stroke="#000000" stroke-width="1" stroke-opacity="1" stroke-miterlimit="4"/><path stroke-linecap="butt" transform="matrix(3.740259, 0, 0, 3.75, 2.646066, 292.753867)" fill="none" stroke-linejoin="miter" d="M -0.000410341 0.0000104198 L 10.82876 0.0000104198 " stroke="#000000" stroke-width="1" stroke-opacity="1" stroke-miterlimit="4"/></svg>