<svg xmlns="http://www.w3.org/2000/svg" xmlns:xlink="http://www.w3.org/1999/xlink" width="500" zoomAndPan="magnify" viewBox="0 0 375 374.999991" height="500" preserveAspectRatio="xMidYMid meet" version="1.0"><defs><filter x="0%" y="0%" width="100%" height="100%" id="c06bf999c8"><feColorMatrix values="0 0 0 0 1 0 0 0 0 1 0 0 0 0 1 0 0 0 1 0" color-interpolation-filters="sRGB"/></filter><g/><mask id="e75895bebc"><g filter="url(#c06bf999c8)"><rect x="-37.5" width="450" fill="#000000" y="-37.499999" height="449.999989" fill-opacity="0.349"/></g></mask><clipPath id="1337f1998b"><path d="M 1 12 L 153 12 L 153 74 L 1 74 Z M 1 12 " clip-rule="nonzero"/></clipPath><clipPath id="eb445213b3"><path d="M 6.3125 82.21875 L -0.410156 15.808594 L 148.828125 0.703125 L 155.546875 67.113281 Z M 6.3125 82.21875 " clip-rule="nonzero"/></clipPath><clipPath id="7a469b792c"><path d="M 6.3125 82.21875 L -0.410156 15.808594 L 148.828125 0.703125 L 155.546875 67.113281 Z M 6.3125 82.21875 " clip-rule="nonzero"/></clipPath><clipPath id="c788300ea0"><rect x="0" width="156" y="0" height="83"/></clipPath><clipPath id="16f9eab9b4"><path d="M 23 47 L 152.527344 47 L 152.527344 104 L 23 104 Z M 23 47 " clip-rule="nonzero"/></clipPath></defs><g mask="url(#e75895bebc)"><g transform="matrix(1, 0, 0, 1, 0, 55)"><g clip-path="url(#c788300ea0)"><g clip-path="url(#1337f1998b)"><g clip-path="url(#eb445213b3)"><g clip-path="url(#7a469b792c)"><path fill="#ffffff" d="M 37.691406 35.332031 C 37.644531 35.40625 37.566406 35.453125 37.476562 35.476562 C 37.171875 35.546875 36.867188 35.589844 36.5625 35.636719 C 33.21875 36.710938 30.066406 38.359375 26.699219 39.355469 C 21.3125 40.945312 15.105469 41.09375 9.628906 39.957031 C 7.789062 39.582031 5.957031 39.269531 4.144531 38.742188 C 3.855469 38.664062 3.335938 38.582031 2.878906 38.46875 C 2.507812 38.371094 2.183594 38.230469 1.992188 38.0625 C 1.875 37.953125 1.875 37.847656 1.867188 37.765625 C 1.871094 37.660156 1.914062 37.574219 2.015625 37.496094 C 2.050781 37.464844 2.117188 37.433594 2.210938 37.421875 C 2.261719 37.417969 2.355469 37.421875 2.410156 37.417969 C 2.746094 37.394531 3.078125 37.375 3.410156 37.355469 C 4.226562 37.3125 5.050781 37.214844 5.855469 37.066406 C 8.1875 36.617188 10.601562 36.144531 12.84375 35.355469 C 17.609375 33.691406 22.839844 33.203125 27.847656 33.824219 C 30.148438 34.113281 32.277344 34.835938 34.496094 34.988281 L 34.507812 34.984375 C 37.027344 34.367188 39.582031 33.867188 42.171875 33.539062 C 44.601562 33.238281 47.042969 33.101562 49.5 33.199219 C 50.390625 33.230469 51.269531 33.300781 52.15625 33.402344 C 50.847656 32.824219 49.574219 32.199219 48.351562 31.546875 C 46.761719 30.6875 45.039062 29.871094 43.617188 28.726562 C 41.292969 26.859375 39.535156 24.609375 37.613281 22.375 C 36.804688 21.425781 36.160156 20.339844 35.386719 19.355469 C 34.539062 18.277344 33.574219 17.261719 32.726562 16.167969 C 32.199219 15.496094 31.652344 14.855469 31.117188 14.199219 C 30.949219 14 30.792969 13.816406 30.613281 13.632812 C 30.539062 13.558594 30.371094 13.46875 30.296875 13.398438 C 30.222656 13.324219 30.171875 13.25 30.152344 13.195312 C 30.117188 13.078125 30.132812 12.984375 30.191406 12.898438 C 30.238281 12.828125 30.308594 12.738281 30.46875 12.710938 C 30.71875 12.65625 31.035156 12.730469 31.371094 12.871094 C 31.75 13.035156 32.164062 13.289062 32.417969 13.410156 C 33.953125 14.085938 35.53125 14.664062 37.03125 15.410156 C 41.0625 17.429688 44.871094 19.84375 47.59375 23.539062 C 49.230469 25.746094 50.304688 28.132812 51.734375 30.160156 C 53.019531 31.984375 54.597656 33.515625 57.164062 34.316406 C 60.78125 35.234375 64.082031 36.644531 67.457031 38.289062 C 73.523438 41.238281 79.828125 44.984375 88.746094 48.011719 C 91.878906 49.074219 95.035156 49.855469 98.191406 50.367188 C 98.09375 50.324219 97.992188 50.28125 97.894531 50.234375 C 94.988281 48.882812 91.085938 46.554688 88.996094 44.097656 C 86.539062 41.183594 84.425781 36.515625 82.304688 33.230469 C 81.445312 31.898438 80.417969 30.769531 79.308594 29.644531 C 79.070312 29.402344 78.664062 29.09375 78.320312 28.769531 C 78.050781 28.511719 77.835938 28.242188 77.730469 27.984375 C 77.660156 27.816406 77.703125 27.703125 77.734375 27.632812 C 77.789062 27.519531 77.890625 27.445312 78.066406 27.441406 C 78.117188 27.433594 78.199219 27.453125 78.285156 27.496094 C 78.386719 27.554688 78.558594 27.683594 78.660156 27.726562 C 78.941406 27.875 79.210938 28.019531 79.496094 28.152344 C 80.328125 28.566406 81.21875 28.863281 82.074219 29.21875 C 82.410156 29.359375 82.75 29.511719 83.074219 29.65625 C 83.136719 29.609375 83.226562 29.597656 83.289062 29.660156 C 83.40625 29.753906 83.519531 29.835938 83.636719 29.933594 C 84.898438 30.554688 86.082031 31.238281 87.25 32.019531 C 87.3125 31.972656 87.40625 31.964844 87.464844 32.023438 C 88.003906 32.425781 88.527344 32.84375 89.019531 33.289062 C 89.207031 33.429688 89.410156 33.585938 89.601562 33.738281 C 93.332031 36.621094 95.582031 40.253906 98.035156 44.1875 C 98.886719 45.550781 99.667969 47.027344 100.65625 48.292969 C 101.613281 49.511719 102.75 50.523438 104.34375 51.003906 C 104.480469 51.042969 104.632812 51.082031 104.769531 51.109375 C 112.320312 51.496094 119.910156 50.527344 127.4375 48.574219 C 121.179688 48.75 114.070312 45.527344 109.246094 42.234375 C 109.144531 42.164062 109.042969 42.09375 108.945312 42.023438 C 107.007812 40.707031 105.359375 39.15625 103.824219 37.394531 C 103.71875 37.285156 103.515625 37.117188 103.347656 36.933594 C 103.199219 36.773438 103.0625 36.613281 103.003906 36.457031 C 102.949219 36.316406 102.9375 36.183594 102.976562 36.058594 C 103.019531 35.933594 103.101562 35.804688 103.265625 35.707031 C 105.351562 34.546875 108.621094 34.738281 112.046875 35.652344 C 117.101562 36.988281 122.484375 39.863281 124.78125 41.949219 C 125.84375 42.914062 126.703125 44.355469 127.699219 45.570312 C 128.511719 46.5625 129.414062 47.394531 130.648438 47.617188 C 137.179688 45.363281 147.132812 40.265625 151.023438 35.847656 C 151.21875 35.628906 151.550781 35.609375 151.773438 35.800781 C 151.949219 35.957031 152 36.191406 151.914062 36.402344 C 151.941406 36.425781 151.945312 36.464844 151.964844 36.492188 C 152 36.445312 152.035156 36.417969 152.070312 36.371094 C 152.144531 36.296875 152.253906 36.300781 152.328125 36.359375 C 152.402344 36.433594 152.398438 36.539062 152.339844 36.613281 C 151.878906 37.117188 151.371094 37.554688 150.851562 37.996094 C 150.804688 38.042969 150.722656 38.050781 150.667969 38.015625 C 150.320312 38.332031 149.964844 38.652344 149.601562 38.929688 C 149.527344 38.988281 149.40625 38.976562 149.359375 38.898438 C 149.355469 38.886719 149.34375 38.886719 149.34375 38.875 C 147.152344 40.625 144.324219 42.398438 141.367188 43.984375 C 141.335938 44.070312 141.261719 44.144531 141.171875 44.179688 C 140.707031 44.375 140.257812 44.566406 139.820312 44.785156 C 139.707031 44.851562 139.578125 44.902344 139.464844 44.96875 C 138.824219 45.300781 138.203125 45.660156 137.597656 46.054688 C 137.335938 46.644531 137.226562 47.300781 137.160156 47.953125 C 137.085938 48.683594 137.039062 49.410156 136.878906 50.109375 C 135.625 55.640625 133.886719 59.988281 129.773438 64.078125 C 129.296875 64.542969 126.339844 67.066406 124.890625 67.734375 C 124.570312 67.890625 124.292969 67.957031 124.117188 67.933594 C 123.953125 67.925781 123.839844 67.855469 123.75 67.757812 C 123.597656 67.597656 123.507812 67.351562 123.472656 67.019531 C 123.4375 66.648438 123.492188 66.148438 123.597656 65.574219 C 124.003906 63.496094 125.234375 60.5 125.542969 59.839844 C 127.8125 55.039062 130.914062 50.378906 135.046875 47.011719 L 135.023438 47.027344 C 134.082031 47.429688 133.128906 47.824219 132.15625 48.175781 C 131.367188 48.46875 130.5625 48.753906 129.753906 49.007812 C 129.492188 49.089844 129.234375 49.167969 128.957031 49.25 C 128.828125 49.289062 128.695312 49.316406 128.554688 49.359375 C 128.394531 49.402344 128.238281 49.445312 128.082031 49.488281 C 127.585938 49.617188 127.085938 49.75 126.601562 49.863281 C 125.460938 50.140625 124.304688 50.40625 123.148438 50.644531 C 122.578125 50.753906 122.011719 50.867188 121.460938 50.976562 C 121.304688 51.03125 121.148438 51.085938 120.980469 51.144531 C 120.984375 51.171875 120.96875 51.183594 120.960938 51.214844 C 117.652344 60.773438 110.652344 68.855469 100.660156 71.582031 C 100.085938 71.734375 96.371094 72.863281 94.59375 73.230469 C 94.066406 73.335938 93.691406 73.359375 93.539062 73.320312 C 93.347656 73.273438 93.253906 73.164062 93.214844 73.035156 C 93.179688 72.929688 93.164062 72.808594 93.230469 72.667969 C 93.277344 72.570312 93.355469 72.441406 93.464844 72.3125 C 93.570312 72.179688 93.707031 72.046875 93.761719 71.945312 C 94.164062 71.273438 94.597656 70.640625 94.917969 69.9375 C 95.929688 67.71875 97.007812 65.890625 98.621094 64.054688 C 104.527344 57.339844 117.917969 51.546875 117.917969 51.546875 C 109.9375 52.652344 101.941406 52.507812 94.027344 50.667969 C 94.015625 50.667969 94.015625 50.667969 94.003906 50.671875 C 91.621094 50.898438 89.398438 52.035156 87.296875 53.453125 C 85.160156 54.902344 83.144531 56.636719 81.269531 58.03125 C 77.96875 60.484375 74.246094 62.214844 70.222656 63.066406 C 67.984375 63.535156 65.746094 63.707031 63.449219 63.726562 C 62.761719 63.726562 62.089844 63.714844 61.402344 63.703125 C 61.121094 63.707031 60.839844 63.695312 60.554688 63.683594 C 60.542969 63.683594 60.34375 63.71875 60.261719 63.726562 C 60.15625 63.722656 60.085938 63.703125 60.027344 63.667969 C 59.945312 63.625 59.882812 63.550781 59.863281 63.472656 C 59.828125 63.394531 59.816406 63.289062 59.871094 63.160156 C 59.949219 63.007812 60.121094 62.839844 60.359375 62.695312 C 60.742188 62.484375 61.328125 62.304688 61.570312 62.160156 C 62.671875 61.511719 63.800781 60.710938 64.777344 59.875 C 66.582031 58.3125 68.109375 56.789062 70.269531 55.699219 C 75.230469 53.214844 80.496094 52.921875 85.847656 51.898438 C 87.957031 51.496094 89.953125 50.746094 92.015625 50.148438 C 90.769531 49.816406 89.535156 49.433594 88.296875 49.023438 C 81.84375 46.832031 76.746094 44.265625 72.125 41.890625 C 72.082031 41.894531 72.03125 41.898438 71.988281 41.890625 C 69.023438 41.414062 66.328125 42.140625 63.746094 43.316406 C 61.113281 44.507812 58.605469 46.15625 56.09375 47.480469 C 52.535156 49.355469 47.78125 50.066406 43.832031 49.542969 C 42.632812 49.378906 40.289062 49.066406 39.171875 48.511719 C 39.074219 48.492188 38.996094 48.488281 38.898438 48.472656 C 38.800781 48.453125 38.738281 48.367188 38.742188 48.273438 C 38.761719 48.175781 38.847656 48.113281 38.941406 48.117188 C 38.949219 48.039062 38.996094 47.964844 39.066406 47.890625 C 39.105469 47.859375 39.167969 47.8125 39.273438 47.789062 C 39.363281 47.765625 39.550781 47.761719 39.644531 47.726562 C 39.917969 47.644531 40.171875 47.523438 40.433594 47.429688 C 41.210938 47.136719 41.910156 46.757812 42.636719 46.363281 C 44.828125 45.175781 46.6875 43.527344 49.097656 42.746094 C 53.496094 41.335938 57.882812 42.046875 62.382812 41.910156 C 65.007812 41.832031 67.523438 41.054688 70.125 40.871094 C 69.035156 40.3125 67.957031 39.765625 66.898438 39.253906 C 57.878906 34.859375 49.414062 32.203125 33.636719 36.308594 Z M 136.316406 47.207031 C 136.316406 47.207031 136.332031 47.21875 136.332031 47.21875 C 136.34375 47.1875 136.339844 47.175781 136.351562 47.148438 Z M 128.226562 64.460938 C 128.746094 64.019531 129.152344 63.65625 129.3125 63.519531 C 133.320312 59.535156 135 55.289062 136.226562 49.910156 C 136.273438 49.703125 136.304688 49.484375 136.335938 49.269531 C 136.238281 49.601562 136.121094 49.933594 136.007812 50.253906 C 135.625 51.390625 135.269531 52.527344 134.789062 53.632812 C 133.417969 56.816406 131.820312 60.144531 129.679688 62.894531 C 129.242188 63.460938 128.714844 63.957031 128.226562 64.460938 Z M 126.148438 65.558594 C 126.960938 64.683594 127.695312 63.722656 128.378906 62.757812 C 129.976562 60.503906 131.28125 58.105469 132.589844 55.667969 C 133.847656 53.328125 135.269531 50.808594 136.054688 48.210938 C 135.753906 48.9375 135.34375 49.648438 135.023438 50.351562 C 134.472656 51.546875 133.960938 52.753906 133.328125 53.917969 C 132.5 55.421875 131.503906 56.863281 130.585938 58.308594 C 129.5 60.042969 128.355469 61.753906 127.296875 63.511719 C 126.921875 64.179688 126.578125 64.910156 126.148438 65.558594 Z M 135.445312 47.617188 C 131.453125 50.914062 128.457031 55.441406 126.242188 60.117188 C 125.945312 60.75 124.746094 63.660156 124.347656 65.6875 C 124.246094 66.164062 124.195312 66.597656 124.230469 66.917969 C 124.230469 66.945312 124.234375 66.972656 124.238281 66.996094 C 124.304688 66.601562 124.46875 66.222656 124.5625 65.824219 C 124.664062 65.386719 124.699219 64.914062 124.828125 64.46875 C 125.203125 63.253906 125.90625 62.109375 126.460938 60.964844 C 126.898438 60.089844 127.261719 59.183594 127.742188 58.34375 C 128.550781 56.921875 129.535156 55.601562 130.472656 54.257812 C 131.519531 52.773438 132.535156 51.261719 133.636719 49.796875 C 134.21875 49.039062 134.847656 48.347656 135.445312 47.617188 Z M 124.628906 66.863281 C 124.699219 66.789062 124.773438 66.703125 124.832031 66.628906 C 125.164062 65.9375 125.414062 65.203125 125.746094 64.511719 C 126.078125 63.820312 126.496094 63.175781 126.859375 62.496094 C 127.253906 61.757812 127.59375 60.984375 128.003906 60.261719 C 128.917969 58.667969 130 57.148438 130.972656 55.589844 C 132.425781 53.242188 133.835938 50.847656 135.207031 48.445312 C 134.773438 48.957031 134.328125 49.472656 133.925781 50.007812 C 132.835938 51.460938 131.820312 52.96875 130.777344 54.457031 C 129.847656 55.785156 128.863281 57.089844 128.070312 58.511719 C 127.589844 59.351562 127.222656 60.257812 126.800781 61.121094 C 126.242188 62.234375 125.550781 63.363281 125.1875 64.566406 C 125.054688 64.996094 125.023438 65.457031 124.917969 65.894531 C 124.84375 66.226562 124.714844 66.546875 124.628906 66.863281 Z M 125.644531 65.648438 C 126.164062 64.9375 126.550781 64.082031 126.996094 63.324219 C 128.054688 61.570312 129.199219 59.859375 130.285156 58.125 C 131.203125 56.679688 132.199219 55.25 133.015625 53.746094 C 133.636719 52.597656 134.148438 51.40625 134.6875 50.210938 C 134.851562 49.847656 135.042969 49.492188 135.222656 49.125 C 133.945312 51.375 132.625 53.597656 131.273438 55.785156 C 130.316406 57.34375 129.246094 58.847656 128.332031 60.457031 C 127.921875 61.179688 127.582031 61.9375 127.1875 62.675781 C 126.824219 63.34375 126.40625 63.988281 126.085938 64.679688 C 125.929688 64.988281 125.789062 65.324219 125.644531 65.648438 Z M 126.703125 65.488281 C 127.085938 65.128906 127.464844 64.753906 127.816406 64.371094 C 128.347656 63.804688 128.925781 63.277344 129.402344 62.667969 C 131.519531 59.945312 133.105469 56.648438 134.46875 53.492188 C 134.792969 52.722656 135.0625 51.945312 135.332031 51.167969 C 134.597656 52.78125 133.734375 54.359375 132.933594 55.847656 C 131.621094 58.285156 130.292969 60.699219 128.695312 62.964844 C 128.070312 63.835938 127.417969 64.691406 126.703125 65.488281 Z M 104.6875 36.757812 C 106.273438 37.695312 108.117188 38.367188 109.683594 39.242188 C 115.605469 42.53125 121.847656 45.386719 128.390625 47.214844 C 123.425781 44.621094 118.152344 42.449219 113.0625 40.121094 C 110.261719 38.835938 107.691406 37.339844 104.6875 36.757812 Z M 108.925781 41.046875 C 109.070312 41.15625 109.230469 41.273438 109.386719 41.375 C 109.488281 41.445312 109.589844 41.515625 109.691406 41.585938 C 114.574219 44.929688 121.867188 48.210938 128.136719 47.765625 C 125.898438 47.414062 123.738281 46.683594 121.542969 46.085938 C 117.324219 44.917969 112.78125 43.445312 108.925781 41.046875 Z M 103.855469 36.226562 C 103.882812 36.25 103.898438 36.261719 103.929688 36.285156 C 107.320312 36.734375 110.121094 38.394531 113.207031 39.808594 C 117.757812 41.898438 122.457031 43.847656 126.945312 46.101562 C 121.765625 42.726562 116.253906 39.367188 110.328125 37.660156 C 108.195312 37.019531 106.09375 36.292969 103.855469 36.226562 Z M 104.703125 37.183594 C 109.058594 41.824219 115.671875 44.105469 121.640625 45.726562 C 123.4375 46.214844 125.203125 46.800781 127.015625 47.195312 C 120.902344 45.347656 115.066406 42.640625 109.5 39.554688 C 107.992188 38.714844 106.246094 38.0625 104.703125 37.183594 Z M 106.929688 35.539062 C 108.222656 35.691406 109.550781 36.078125 110.667969 36.339844 C 114.078125 37.109375 120.378906 40.15625 123.234375 42.347656 C 124.269531 43.15625 125.265625 43.980469 126.289062 44.773438 C 125.664062 43.914062 125.050781 43.050781 124.34375 42.410156 C 122.09375 40.386719 116.824219 37.582031 111.894531 36.269531 C 110.144531 35.816406 108.433594 35.535156 106.929688 35.539062 Z M 104.847656 35.9375 C 106.75 36.148438 108.585938 36.765625 110.441406 37.300781 C 116.035156 38.921875 121.277344 41.984375 126.195312 45.171875 C 125.128906 44.34375 124.101562 43.480469 123.023438 42.652344 C 120.210938 40.484375 113.976562 37.464844 110.597656 36.710938 C 109.621094 36.488281 108.496094 36.15625 107.363281 35.976562 C 106.5 35.824219 105.636719 35.777344 104.847656 35.9375 Z M 120.042969 51.707031 C 120.042969 51.707031 120.054688 51.707031 120.054688 51.707031 L 120.066406 51.664062 Z M 102.210938 70.3125 C 102.992188 70.046875 103.738281 69.742188 104.484375 69.398438 C 108.625 66.742188 112.644531 61.84375 115.414062 58.546875 C 117.152344 56.464844 118.917969 54.796875 119.757812 52.207031 C 117.058594 57.292969 112.4375 60.871094 108.390625 64.832031 C 106.375 66.835938 104.523438 68.859375 102.210938 70.3125 Z M 97.449219 71.71875 C 98.875 71.320312 100.21875 70.917969 100.53125 70.832031 L 100.542969 70.832031 C 103.570312 69.398438 105.730469 66.953125 108.136719 64.578125 C 111.828125 60.945312 116.007812 57.652344 118.746094 53.234375 C 117.25 55.035156 115.726562 56.851562 114.0625 58.46875 C 110.976562 61.460938 107.425781 63.953125 104.054688 66.625 C 101.617188 68.5625 99.851562 70.351562 97.449219 71.71875 Z M 95.617188 70.230469 C 98.679688 67.011719 102.613281 64.707031 106.234375 62.140625 C 110.625 59.042969 114.632812 55.609375 118.609375 52.015625 C 118.453125 52.070312 118.300781 52.140625 118.132812 52.210938 C 117.773438 52.648438 117.316406 53.070312 116.808594 53.46875 C 115.488281 54.503906 113.84375 55.40625 112.875 56.175781 C 109.730469 58.679688 106.601562 61.113281 103.238281 63.316406 C 100.839844 64.875 98.46875 66.132812 96.613281 68.226562 C 96.273438 68.847656 95.949219 69.5 95.640625 70.171875 C 95.628906 70.203125 95.628906 70.214844 95.617188 70.230469 Z M 94.707031 71.851562 C 102.390625 66.367188 110.328125 61.273438 116.757812 54.308594 C 117.316406 53.699219 117.929688 53.15625 118.519531 52.585938 C 114.640625 56.078125 110.714844 59.410156 106.441406 62.445312 C 102.390625 65.308594 97.984375 67.832031 94.8125 71.679688 C 94.777344 71.734375 94.742188 71.792969 94.707031 71.851562 Z M 106.554688 68.34375 C 111.6875 65.425781 115.6875 60.863281 118.390625 55.550781 C 117.585938 56.648438 116.640625 57.65625 115.691406 58.785156 C 113.316406 61.601562 110.050781 65.578125 106.554688 68.34375 Z M 94.425781 72.496094 C 94.660156 72.445312 94.9375 72.390625 95.253906 72.316406 C 95.410156 72.273438 95.566406 72.246094 95.722656 72.203125 C 98.980469 70.789062 100.917969 68.6875 103.839844 66.367188 C 107.199219 63.707031 110.738281 61.21875 113.824219 58.238281 C 115.316406 56.785156 116.683594 55.171875 118.039062 53.558594 C 117.695312 53.890625 117.355469 54.21875 117.027344 54.574219 C 110.21875 61.914062 101.734375 67.195312 93.648438 73.054688 Z M 97.359375 66.96875 C 99.054688 65.417969 101.039062 64.316406 103.058594 63.015625 C 106.425781 60.824219 109.539062 58.390625 112.671875 55.898438 C 113.644531 55.132812 115.285156 54.226562 116.605469 53.195312 C 116.839844 53.011719 117.066406 52.828125 117.273438 52.632812 C 114.972656 53.9375 112.832031 55.496094 110.613281 56.914062 C 106.179688 59.707031 101.777344 62.433594 97.988281 66.035156 C 97.765625 66.339844 97.554688 66.65625 97.359375 66.96875 Z M 99.410156 64.269531 C 102.8125 61.363281 106.59375 59.023438 110.390625 56.601562 C 111.980469 55.582031 113.539062 54.5 115.140625 53.476562 C 109.28125 56.121094 103.601562 59.59375 99.410156 64.269531 Z M 81.359375 30 C 83.46875 32.121094 84.851562 34.878906 86.648438 37.242188 C 89.96875 41.640625 94 45.480469 98.644531 48.472656 C 99.535156 49.039062 100.402344 49.769531 101.320312 50.359375 C 101.378906 50.378906 101.421875 50.414062 101.476562 50.4375 C 101.332031 50.332031 101.199219 50.222656 101.054688 50.117188 C 99.992188 49.328125 98.980469 48.492188 97.957031 47.65625 C 93.910156 44.335938 90.371094 40.675781 87.070312 36.609375 C 85.289062 34.429688 83.636719 31.769531 81.359375 30 Z M 88.167969 41.753906 C 88.613281 42.421875 89.078125 43.042969 89.539062 43.601562 C 91.566406 45.984375 95.355469 48.242188 98.191406 49.5625 C 98.894531 49.894531 99.628906 50.222656 100.398438 50.519531 C 99.152344 49.90625 97.960938 49.171875 96.789062 48.484375 C 93.746094 46.675781 90.65625 44.4375 88.167969 41.753906 Z M 86.804688 32.535156 C 87.75 33.390625 88.660156 34.289062 89.523438 35.222656 C 91.679688 37.539062 93.5 40.261719 95.40625 42.777344 C 96.601562 44.347656 97.816406 45.859375 99.15625 47.304688 C 98.605469 46.492188 98.050781 45.675781 97.449219 44.890625 C 95.980469 43.003906 94.363281 41.222656 92.957031 39.285156 C 92.003906 37.976562 91.292969 36.503906 90.324219 35.179688 C 89.957031 34.855469 89.589844 34.546875 89.179688 34.238281 C 88.394531 33.632812 87.597656 33.058594 86.804688 32.535156 Z M 83.476562 30.605469 C 83.871094 30.886719 84.25 31.183594 84.578125 31.5 C 85.585938 32.429688 86.472656 33.519531 87.410156 34.523438 C 90.210938 37.5 92.796875 40.628906 95.386719 43.785156 C 96.414062 45.023438 97.484375 46.175781 98.617188 47.28125 C 97.375 45.90625 96.238281 44.492188 95.109375 43.011719 C 93.199219 40.496094 91.382812 37.796875 89.238281 35.480469 C 87.898438 34.03125 86.441406 32.664062 84.914062 31.386719 C 84.457031 31.109375 83.972656 30.851562 83.476562 30.605469 Z M 82 30.070312 C 84.074219 31.84375 85.65625 34.328125 87.328125 36.382812 C 90.613281 40.421875 94.128906 44.074219 98.167969 47.367188 C 98.285156 47.460938 98.402344 47.558594 98.507812 47.652344 C 97.316406 46.5 96.1875 45.300781 95.113281 44 C 92.511719 40.859375 89.9375 37.726562 87.148438 34.753906 C 86.214844 33.761719 85.339844 32.667969 84.332031 31.753906 C 83.667969 31.148438 82.855469 30.574219 82 30.070312 Z M 85.527344 37.316406 C 85.953125 38.078125 86.382812 38.851562 86.820312 39.597656 C 89.488281 43.121094 93.269531 45.957031 96.957031 48.144531 C 97.214844 48.292969 97.457031 48.445312 97.71875 48.605469 C 97.574219 48.511719 97.445312 48.429688 97.3125 48.335938 C 92.855469 45.449219 88.78125 41.574219 85.527344 37.316406 Z M 91.5 36.308594 C 92.078125 37.242188 92.605469 38.195312 93.246094 39.082031 C 94.402344 40.695312 95.722656 42.195312 96.96875 43.734375 C 95.285156 41.046875 93.660156 38.519531 91.5 36.308594 Z M 80.027344 29.292969 C 80.789062 30.074219 81.515625 30.871094 82.167969 31.730469 C 82.167969 31.730469 82.179688 31.714844 82.179688 31.714844 C 82.269531 31.667969 82.378906 31.683594 82.425781 31.769531 C 83.414062 33.308594 84.199219 34.929688 85.289062 36.402344 C 87.75 39.757812 90.757812 42.902344 94.0625 45.542969 C 91.183594 43.152344 88.597656 40.425781 86.347656 37.433594 C 84.359375 34.804688 82.875 31.683594 80.316406 29.519531 C 80.230469 29.445312 80.128906 29.375 80.027344 29.292969 Z M 62.03125 62.742188 C 62.664062 62.597656 63.289062 62.425781 63.882812 62.179688 C 64.722656 61.828125 65.445312 61.269531 66.300781 60.96875 C 71.3125 59.226562 76.355469 57.417969 81.203125 55.265625 C 82.671875 54.621094 84.085938 53.886719 85.503906 53.140625 C 85.695312 53.039062 85.898438 52.925781 86.089844 52.8125 C 85.113281 53.257812 84.050781 53.515625 83.050781 53.871094 C 80.9375 54.621094 78.851562 55.40625 76.738281 56.160156 C 73.25 57.398438 69.707031 58.640625 66.359375 60.226562 C 65.0625 60.839844 63.832031 61.6875 62.589844 62.402344 C 62.386719 62.53125 62.207031 62.628906 62.03125 62.742188 Z M 65.441406 60.304688 C 65.695312 60.171875 65.9375 60.039062 66.195312 59.921875 C 69.554688 58.332031 73.109375 57.089844 76.613281 55.835938 C 78.726562 55.085938 80.808594 54.296875 82.925781 53.546875 C 83.429688 53.363281 83.964844 53.214844 84.484375 53.042969 C 83.4375 53.296875 82.382812 53.523438 81.355469 53.828125 C 78.757812 54.601562 76.222656 55.59375 73.632812 56.394531 C 71.480469 57.050781 68.886719 57.597656 66.992188 58.929688 C 66.476562 59.382812 65.96875 59.835938 65.441406 60.304688 Z M 70.816406 62.160156 C 74.488281 61.292969 77.886719 59.664062 80.921875 57.410156 C 82.074219 56.558594 83.253906 55.59375 84.484375 54.636719 C 83.773438 55.042969 83.0625 55.453125 82.367188 55.871094 C 80.167969 57.234375 77.960938 58.554688 75.683594 59.804688 C 74.09375 60.691406 72.484375 61.511719 70.816406 62.160156 Z M 62.660156 62.960938 L 62.875 62.964844 C 63.449219 62.921875 64.03125 62.847656 64.597656 62.738281 C 65.914062 62.46875 67.082031 61.921875 68.328125 61.476562 C 69.921875 60.882812 71.5625 60.371094 73.132812 59.6875 C 74.445312 59.113281 75.675781 58.398438 76.988281 57.808594 C 79.132812 56.855469 81.230469 55.8125 83.28125 54.691406 C 82.644531 55.011719 82 55.304688 81.34375 55.597656 C 76.484375 57.753906 71.425781 59.566406 66.417969 61.320312 C 65.574219 61.621094 64.851562 62.175781 64.023438 62.511719 C 63.574219 62.707031 63.105469 62.847656 62.632812 62.960938 Z M 68.496094 57.691406 C 70.117188 56.976562 71.925781 56.539062 73.515625 56.054688 C 76.109375 55.257812 78.644531 54.261719 81.238281 53.492188 C 81.566406 53.390625 81.890625 53.304688 82.234375 53.214844 C 78.277344 53.832031 74.402344 54.4375 70.691406 56.300781 C 69.886719 56.703125 69.167969 57.179688 68.496094 57.691406 Z M 65.421875 62.910156 C 66.371094 62.851562 67.316406 62.769531 68.257812 62.648438 C 70.808594 61.960938 73.175781 60.796875 75.519531 59.5 C 77.390625 58.464844 79.203125 57.398438 81.023438 56.289062 C 79.746094 56.941406 78.453125 57.554688 77.128906 58.144531 C 75.828125 58.730469 74.585938 59.445312 73.273438 60.023438 C 71.703125 60.703125 70.0625 61.230469 68.453125 61.808594 C 67.429688 62.183594 66.453125 62.617188 65.421875 62.910156 Z M 47.292969 48.949219 C 50.25 48.851562 53.347656 48.121094 55.835938 46.8125 C 57.761719 45.796875 59.683594 44.597656 61.660156 43.554688 C 61.351562 43.664062 61.054688 43.789062 60.773438 43.925781 C 56.734375 45.847656 52.46875 48.0625 48.019531 48.835938 C 47.78125 48.871094 47.53125 48.910156 47.292969 48.949219 Z M 46.191406 44.984375 C 47.371094 44.679688 48.609375 44.566406 49.84375 44.414062 C 51.488281 44.21875 53.152344 43.917969 54.808594 43.832031 C 55.730469 43.777344 56.683594 43.75 57.617188 43.679688 C 58.691406 43.425781 59.78125 43.167969 60.855469 42.898438 C 60.84375 42.898438 60.816406 42.902344 60.804688 42.902344 C 58.957031 43.101562 57.117188 43.007812 55.269531 43.074219 C 52.578125 43.160156 49.789062 43.46875 47.230469 44.355469 C 46.875 44.566406 46.535156 44.777344 46.191406 44.984375 Z M 49.429688 43.382812 C 51.347656 42.960938 53.320312 42.789062 55.25 42.726562 C 56.949219 42.675781 58.652344 42.746094 60.34375 42.601562 C 56.667969 42.542969 53.046875 42.226562 49.429688 43.382812 Z M 42.839844 48.636719 C 43.207031 48.691406 43.535156 48.738281 43.835938 48.777344 C 45.207031 48.796875 46.570312 48.726562 47.972656 48.492188 C 52.328125 47.730469 56.492188 45.589844 60.453125 43.6875 C 60.242188 43.738281 60.03125 43.773438 59.804688 43.808594 C 58.949219 44.097656 58.09375 44.410156 57.238281 44.710938 C 54.734375 45.609375 52.285156 46.753906 49.707031 47.472656 C 47.472656 48.074219 45.152344 48.535156 42.839844 48.636719 Z M 40.8125 48.25 L 40.851562 48.261719 C 43.796875 48.417969 46.769531 47.902344 49.605469 47.121094 C 52.167969 46.417969 54.605469 45.273438 57.109375 44.375 C 57.445312 44.261719 57.78125 44.132812 58.121094 44.003906 C 57.972656 44.019531 57.828125 44.035156 57.679688 44.035156 C 54.28125 44.851562 50.878906 45.636719 47.5 46.488281 C 46.453125 46.753906 45.386719 46.984375 44.339844 47.277344 C 43.179688 47.621094 41.996094 48.023438 40.78125 48.242188 Z M 41.5625 47.71875 C 42.46875 47.492188 43.351562 47.203125 44.242188 46.953125 C 45.285156 46.644531 46.351562 46.417969 47.410156 46.148438 C 50.148438 45.457031 52.90625 44.816406 55.648438 44.160156 C 55.367188 44.175781 55.101562 44.191406 54.820312 44.207031 C 53.175781 44.292969 51.515625 44.59375 49.867188 44.789062 C 48.195312 44.984375 46.488281 45.117188 44.96875 45.792969 C 44.339844 46.203125 43.707031 46.605469 43.046875 46.964844 C 42.5625 47.214844 42.078125 47.480469 41.5625 47.71875 Z M 52.527344 32.449219 C 52.558594 32.476562 52.574219 32.488281 52.601562 32.511719 C 52.746094 32.601562 52.902344 32.695312 53.046875 32.789062 C 53.0625 32.800781 53.074219 32.8125 53.089844 32.824219 C 53.117188 32.832031 53.148438 32.84375 53.160156 32.855469 C 52.96875 32.6875 52.792969 32.519531 52.609375 32.335938 C 52.601562 32.363281 52.589844 32.390625 52.578125 32.417969 C 52.566406 32.433594 52.554688 32.449219 52.527344 32.449219 Z M 39.511719 23.472656 C 40.917969 25.140625 42.34375 26.75 44.070312 28.144531 C 45.460938 29.25 47.140625 30.058594 48.691406 30.894531 C 49.683594 31.425781 50.714844 31.9375 51.761719 32.421875 L 51.703125 32.386719 C 50.925781 31.890625 50.175781 31.363281 49.421875 30.835938 C 48.933594 30.507812 48.441406 30.167969 47.953125 29.84375 C 45.617188 28.285156 43.339844 26.90625 41.21875 25.054688 C 40.65625 24.550781 40.078125 24.019531 39.511719 23.472656 Z M 35.164062 15.304688 C 38.664062 17.203125 41.757812 19.757812 44.433594 22.71875 C 46.085938 24.5625 47.71875 26.476562 49.308594 28.378906 C 49.84375 29.035156 50.394531 29.703125 50.996094 30.3125 C 50.761719 29.976562 50.535156 29.621094 50.324219 29.269531 C 50.078125 28.945312 49.828125 28.621094 49.582031 28.296875 C 47.695312 25.714844 45.542969 23.316406 43.296875 21.050781 C 42.085938 19.832031 40.917969 18.488281 39.5 17.507812 C 38.585938 16.980469 37.648438 16.488281 36.714844 16.003906 C 36.191406 15.761719 35.683594 15.53125 35.164062 15.304688 Z M 36.480469 16.484375 C 39.507812 18.78125 42.046875 21.699219 44.609375 24.578125 C 46.15625 26.324219 47.921875 27.941406 49.652344 29.511719 C 49.917969 29.753906 50.171875 29.996094 50.4375 30.25 C 49.953125 29.722656 49.496094 29.164062 49.035156 28.609375 C 47.457031 26.703125 45.828125 24.789062 44.175781 22.945312 C 41.90625 20.453125 39.332031 18.246094 36.480469 16.484375 Z M 33.773438 15.109375 C 34.648438 15.894531 35.457031 16.722656 36.304688 17.535156 C 38.507812 19.644531 40.730469 21.6875 42.859375 23.871094 C 44.328125 25.371094 45.839844 26.90625 47.441406 28.261719 C 48.292969 28.976562 49.15625 29.667969 50.019531 30.371094 C 49.8125 30.179688 49.605469 29.984375 49.398438 29.792969 C 47.664062 28.210938 45.890625 26.59375 44.324219 24.820312 C 41.136719 21.203125 37.957031 17.515625 33.773438 15.109375 Z M 32.664062 14.617188 C 33.242188 15.429688 33.808594 16.257812 34.480469 17.023438 C 36.722656 19.53125 39.292969 21.710938 41.769531 23.980469 C 44.257812 26.277344 46.863281 28.53125 49.632812 30.519531 L 49.691406 30.554688 C 48.855469 29.886719 48.019531 29.207031 47.199219 28.527344 C 45.582031 27.160156 44.070312 25.613281 42.585938 24.113281 C 40.457031 21.929688 38.238281 19.898438 36.035156 17.789062 C 34.945312 16.71875 33.863281 15.597656 32.664062 14.617188 Z M 41.65625 18.882812 C 42.296875 19.515625 42.914062 20.175781 43.542969 20.8125 C 45.386719 22.675781 47.167969 24.628906 48.789062 26.6875 C 48.25 25.765625 47.671875 24.832031 47.003906 23.933594 C 45.507812 21.898438 43.675781 20.273438 41.65625 18.882812 Z M 36.488281 19.621094 C 36.691406 19.910156 36.894531 20.195312 37.101562 20.484375 C 38.472656 21.953125 39.984375 23.492188 41.457031 24.777344 C 42.800781 25.941406 44.214844 26.925781 45.65625 27.878906 C 44.246094 26.707031 42.875 25.476562 41.523438 24.234375 C 39.851562 22.699219 38.125 21.199219 36.488281 19.621094 Z M 15.957031 35.175781 C 17.738281 34.980469 19.546875 34.90625 21.347656 34.9375 C 24.082031 34.980469 26.757812 35.152344 29.507812 35.371094 C 30.6875 35.464844 31.894531 35.558594 33.085938 35.519531 C 31.335938 35.238281 29.59375 34.746094 27.742188 34.515625 C 23.863281 34.023438 19.8125 34.234375 15.957031 35.175781 Z M 14.257812 39.878906 C 18.371094 40.183594 22.648438 39.804688 26.496094 38.664062 C 28.335938 38.117188 30.101562 37.390625 31.882812 36.660156 C 30.179688 37.097656 28.472656 37.488281 26.765625 37.875 C 22.585938 38.808594 18.472656 39.691406 14.257812 39.878906 Z M 11.140625 39.496094 C 11.152344 39.496094 11.167969 39.507812 11.183594 39.503906 C 16.476562 39.761719 21.527344 38.671875 26.691406 37.519531 C 28.332031 37.152344 29.960938 36.773438 31.597656 36.351562 C 31.410156 36.359375 31.222656 36.351562 31.046875 36.339844 C 29.507812 36.671875 27.960938 37.082031 26.433594 37.386719 C 22.691406 38.125 18.925781 38.628906 15.132812 39.105469 C 13.6875 39.292969 12.414062 39.449219 11.140625 39.496094 Z M 12.929688 36.070312 C 16.320312 35.714844 19.742188 35.675781 23.105469 35.832031 C 24.929688 35.914062 26.9375 35.699219 28.761719 35.820312 C 29.210938 35.855469 29.644531 35.894531 30.0625 35.929688 C 30.355469 35.902344 30.648438 35.871094 30.941406 35.828125 C 30.453125 35.796875 29.980469 35.765625 29.492188 35.722656 C 26.742188 35.503906 24.0625 35.332031 21.34375 35.285156 C 18.664062 35.234375 16.023438 35.421875 13.386719 35.917969 C 13.28125 35.953125 13.191406 35.976562 13.097656 36.011719 C 13.046875 36.03125 12.980469 36.050781 12.929688 36.070312 Z M 4.476562 38.050781 C 9.480469 38.632812 14.632812 38.164062 19.585938 37.554688 C 22.304688 37.226562 24.988281 36.914062 27.6875 36.480469 C 27.527344 36.496094 27.378906 36.5 27.21875 36.515625 C 24.714844 36.726562 22.246094 36.898438 19.730469 37.003906 C 15.167969 37.183594 9.089844 37.679688 4.476562 38.050781 Z M 7.601562 37.441406 C 11.613281 37.128906 16.132812 36.792969 19.722656 36.644531 C 22.222656 36.539062 24.691406 36.367188 27.183594 36.15625 C 27.289062 36.144531 27.394531 36.132812 27.503906 36.125 C 26.039062 36.125 24.492188 36.242188 23.074219 36.167969 C 19.050781 35.988281 14.894531 36.085938 10.855469 36.683594 C 9.796875 36.976562 8.691406 37.222656 7.601562 37.441406 Z M 6.53125 38.582031 C 7.46875 38.78125 8.398438 38.957031 9.332031 39.15625 C 11.261719 39.214844 12.988281 39.015625 15.070312 38.75 C 18.785156 38.28125 22.484375 37.796875 26.148438 37.078125 C 23.976562 37.390625 21.8125 37.652344 19.621094 37.914062 C 15.347656 38.425781 10.886719 38.851562 6.53125 38.582031 Z M 6.53125 38.582031 " fill-opacity="1" fill-rule="evenodd"/></g></g></g></g></g></g><g clip-path="url(#16f9eab9b4)"><path fill="#ffffff" d="M 25.953125 49.914062 C 27.84375 45.863281 30.742188 48.082031 28.941406 51.945312 C 19.503906 72.214844 36.125 89.941406 61.992188 97.132812 C 92.40625 105.589844 127.535156 102.882812 151.957031 90.28125 L 152.53125 91.382812 C 129.347656 103.347656 94.1875 107.378906 61.660156 98.332031 C 34.984375 90.914062 16.023438 71.195312 25.953125 49.914062 Z M 25.953125 49.914062 " fill-opacity="1" fill-rule="nonzero"/></g><g fill="#ffffff" fill-opacity="1"><g transform="translate(156.990601, 123.137043)"><g><path d="M 8.101562 5.757812 C 8.933594 5.589844 9.621094 5.324219 10.140625 4.847656 C 13.929688 2.214844 17.722656 -4.617188 21.054688 -13.089844 C 22.792969 -17.277344 24.339844 -21.800781 25.816406 -26.675781 C 28.691406 -36.167969 30.976562 -45.535156 32.484375 -53.261719 C 33.203125 -56.996094 33.691406 -60.0625 33.988281 -62.222656 C 34.515625 -66.289062 34.972656 -70.089844 35.527344 -74.035156 C 35.664062 -74.558594 35.6875 -75.058594 35.566406 -75.652344 C 35.394531 -76.484375 34.679688 -76.953125 33.851562 -76.785156 C 33.613281 -76.734375 33.398438 -76.570312 33.210938 -76.28125 C 32.738281 -75.566406 32.503906 -74.902344 32.320312 -74 L 31.585938 -68.53125 C 30.625 -60.546875 29.589844 -52.917969 27.605469 -45.09375 C 24.921875 -34.652344 19.664062 -16.265625 14.933594 -6.765625 C 13.617188 -4.148438 12.128906 -1.742188 10.121094 0.523438 C 9.246094 1.691406 8.515625 2.335938 7.921875 2.457031 C 7.210938 2.601562 6.421875 1.777344 5.414062 -0.121094 C 3.710938 -3.605469 2.484375 -7.183594 1.351562 -10.910156 C -0.335938 -16.128906 -1.429688 -21.464844 -1.742188 -27.214844 C -2.335938 -37.351562 -2.761719 -47.28125 -2.210938 -57.28125 C -2.125 -58.660156 -2.058594 -59.539062 -2.679688 -60.773438 C -2.800781 -61.367188 -3.417969 -61.363281 -3.894531 -61.265625 C -4.132812 -61.21875 -4.34375 -61.050781 -4.4375 -60.90625 C -4.625 -60.003906 -4.90625 -58.957031 -5.015625 -57.699219 C -5.480469 -49.691406 -5.371094 -41.921875 -5.214844 -33.917969 C -5.023438 -28.148438 -4.761719 -22.640625 -3.667969 -17.917969 C -2.117188 -10.941406 0.203125 -2.019531 4.292969 4.066406 C 5.441406 5.4375 6.679688 6.050781 8.101562 5.757812 Z M 8.101562 5.757812 "/></g></g></g><g fill="#ffffff" fill-opacity="1"><g transform="translate(197.687677, 114.801841)"><g><path d="M 4.226562 -5.316406 C 7.429688 -5.972656 10.125 -9.121094 11.964844 -11.597656 C 16.289062 -17.058594 19.371094 -23.128906 22.429688 -29.320312 C 22.714844 -29.75 22.878906 -30.152344 22.875 -30.769531 C 22.871094 -31.390625 22.65625 -31.839844 22.109375 -32.097656 C 21.824219 -32.285156 21.5625 -32.355469 21.203125 -32.285156 C 20.96875 -32.234375 20.753906 -32.066406 20.660156 -31.925781 C 20.164062 -31.328125 19.667969 -30.734375 19.316406 -30.042969 C 18.585938 -28.78125 17.878906 -27.398438 17.265625 -26.160156 C 16.65625 -24.921875 15.949219 -23.542969 15.21875 -22.28125 C 13.144531 -18.515625 10.855469 -15.203125 8.210938 -11.820312 C 7.007812 -10.460938 5.871094 -9.363281 4.164062 -8.640625 C 2.859375 -8.375 2.121094 -8.347656 1.5 -9.578125 C 1.042969 -10.597656 0.707031 -11.640625 0.628906 -12.617188 C 0.199219 -18.339844 0.765625 -24.636719 1.710938 -30.269531 C 1.710938 -30.886719 1.496094 -31.335938 0.851562 -31.453125 C 0.472656 -31.5 0.210938 -31.570312 -0.0273438 -31.519531 C -0.265625 -31.472656 -0.597656 -31.28125 -0.902344 -30.96875 C -3.355469 -27.253906 -2.691406 -17.375 -2.453125 -11.984375 C -2.089844 -10.203125 -1.847656 -9.019531 -1.105469 -7.808594 C 0.1875 -5.726562 1.972656 -4.855469 4.226562 -5.316406 Z M 1.117188 -36.207031 C 2.421875 -36.472656 3.363281 -37.902344 3.097656 -39.207031 C 2.710938 -40.488281 1.757812 -40.910156 0.335938 -40.621094 C -1.089844 -40.328125 -1.65625 -39.46875 -1.363281 -38.046875 C -0.953125 -36.648438 0.0703125 -35.867188 1.117188 -36.207031 Z M 1.117188 -36.207031 "/></g></g></g><g fill="#ffffff" fill-opacity="1"><g transform="translate(219.756649, 110.281876)"><g><path d="M 0.0585938 2.089844 C 0.769531 1.945312 1.289062 1.464844 1.523438 0.800781 C 2.085938 -0.675781 2.582031 -1.886719 2.90625 -3.316406 C 3.5625 -5.550781 4.121094 -7.644531 4.683594 -9.738281 C 5.125 -11.804688 5.683594 -13.898438 6.246094 -15.992188 C 7.109375 -19.011719 8.234375 -21.960938 10.027344 -24.679688 C 10.382812 -25.367188 10.734375 -26.058594 11.804688 -26.277344 C 12.257812 -25.875 12.589844 -25.449219 12.925781 -25.023438 C 13.257812 -24.597656 13.710938 -24.195312 14.164062 -23.796875 C 15.835938 -22.28125 17.546875 -21.769531 19.566406 -22.179688 C 22.886719 -22.863281 27.070312 -27.796875 28.863281 -30.515625 C 29.144531 -30.941406 29.402344 -31.492188 29.613281 -32.273438 C 29.753906 -32.796875 29.539062 -33.25 28.964844 -33.625 C 28.5625 -33.789062 28.300781 -33.859375 27.945312 -33.789062 C 27.707031 -33.738281 27.589844 -33.714844 27.492188 -33.570312 C 26.972656 -33.09375 26.570312 -32.640625 26.195312 -32.070312 C 24.515625 -29.996094 21.070312 -25.703125 18.933594 -25.265625 C 17.867188 -25.046875 16.769531 -25.566406 15.648438 -26.820312 C 15.339844 -27.125 15.003906 -27.550781 14.761719 -28.121094 C 14.429688 -28.546875 14.09375 -28.972656 13.785156 -29.28125 C 12.996094 -30.109375 12.1875 -30.4375 11.238281 -30.242188 C 10.761719 -30.144531 10.3125 -29.929688 9.886719 -29.59375 C 6.671875 -26.585938 4.648438 -21.96875 3.503906 -17.902344 L 0.796875 -7.582031 L 0.652344 -7.675781 L 0.773438 -7.699219 C -0.0898438 -8.882812 0.0234375 -10.144531 0.113281 -11.519531 C 0.332031 -15.273438 0.886719 -19.21875 1.675781 -23.214844 C 2.257812 -25.804688 2.839844 -28.398438 3.300781 -30.964844 C 3.460938 -31.988281 3.53125 -32.867188 3.359375 -33.699219 C 3.355469 -34.316406 3.046875 -34.621094 2.285156 -34.714844 L 1.929688 -34.640625 C 1.457031 -34.542969 1.125 -34.351562 0.933594 -34.066406 C 0.675781 -33.519531 0.5625 -32.878906 0.328125 -32.210938 C -1.882812 -21.867188 -3.601562 -13.355469 -2.980469 -2.480469 C -2.976562 -1.863281 -2.878906 -1.386719 -2.785156 -0.914062 C -2.542969 -0.34375 -2.445312 0.128906 -2.347656 0.605469 C -2.035156 1.53125 -1.441406 2.027344 -0.558594 2.09375 C -0.441406 2.070312 -0.324219 2.042969 -0.296875 2.164062 C -0.179688 2.136719 -0.0625 2.113281 0.0585938 2.089844 Z M 0.0585938 2.089844 "/></g></g></g><g fill="#ffffff" fill-opacity="1"><g transform="translate(248.707335, 104.352462)"><g><path d="M 3.859375 7.988281 C 5.757812 7.597656 7.675781 5.476562 8.449219 3.832031 C 11.347656 -1.335938 14.429688 -8.023438 17.25 -14.164062 C 19.648438 -19.355469 22.800781 -26.304688 24.589844 -29.640625 C 24.777344 -29.925781 24.847656 -30.1875 24.800781 -30.425781 C 25.011719 -31.207031 24.769531 -31.777344 24.078125 -32.128906 C 23.699219 -32.175781 23.4375 -32.246094 23.199219 -32.199219 C 23.082031 -32.171875 23.082031 -32.171875 22.964844 -32.148438 C 22.867188 -32.007812 22.867188 -32.007812 22.75 -31.980469 C 22.207031 -31.625 21.804688 -31.171875 21.519531 -30.742188 C 21.261719 -30.195312 20.886719 -29.621094 20.625 -29.074219 C 17.890625 -24.929688 10.65625 -7.128906 6.960938 0.179688 C 6.511719 1.015625 6.066406 1.847656 5.617188 2.683594 C 5.144531 3.398438 4.53125 4.015625 3.488281 4.355469 C 1.417969 3.296875 1.574219 1.039062 1.328125 -0.765625 C 0.832031 -4.992188 0.527344 -8.886719 0.675781 -12.996094 C 0.808594 -20.195312 3.117188 -40.324219 4.605469 -46.933594 C 4.882812 -48.597656 5.921875 -49.554688 7.558594 -50.011719 L 32.609375 -57.492188 C 33.179688 -57.730469 33.652344 -57.828125 34.101562 -58.042969 C 34.578125 -58.140625 35.027344 -58.359375 35.597656 -58.597656 C 36.046875 -58.8125 36.1875 -59.335938 36.066406 -59.929688 C 35.777344 -60.738281 35.347656 -61.019531 34.875 -60.921875 L 32.027344 -60.339844 L 30.601562 -60.046875 C 27.351562 -59.011719 23.867188 -57.925781 20 -56.886719 C 16.15625 -55.730469 12.667969 -54.644531 9.417969 -53.605469 C 9.300781 -53.582031 9.0625 -53.535156 8.828125 -53.484375 C 8.613281 -53.320312 8.375 -53.269531 8.140625 -53.222656 C 7.664062 -53.125 7.164062 -53.144531 6.546875 -53.144531 C 6.425781 -53.734375 6.421875 -54.355469 6.5625 -54.875 C 6.609375 -55.257812 6.75 -55.78125 6.796875 -56.160156 C 7.679688 -59.679688 8.59375 -63.082031 9.242188 -66.550781 C 9.617188 -67.742188 9.539062 -68.714844 9.300781 -69.285156 C 8.941406 -69.828125 8.535156 -69.992188 8.0625 -69.894531 C 7.230469 -69.726562 6.546875 -68.84375 6.007812 -67.25 C 5.609375 -66.179688 5.210938 -65.109375 4.929688 -64.0625 C 4.53125 -62.992188 4.25 -61.945312 3.851562 -60.875 L 2.105469 -53.097656 C 1.78125 -51.671875 0.953125 -50.882812 -0.445312 -50.472656 C -2.414062 -49.824219 -4.503906 -49.148438 -6.589844 -48.472656 C -8.675781 -47.800781 -10.765625 -47.125 -12.828125 -46.332031 C -13.394531 -46.089844 -13.964844 -45.851562 -14.535156 -45.609375 C -14.984375 -45.394531 -15.410156 -45.058594 -15.980469 -44.820312 C -16.546875 -44.578125 -16.570312 -44.082031 -16.304688 -43.394531 C -16.113281 -43.0625 -15.828125 -42.871094 -15.328125 -42.851562 C -14.949219 -42.804688 -14.59375 -42.878906 -14 -43 C -13.050781 -43.195312 -12.03125 -43.652344 -11.105469 -43.964844 C -9.585938 -44.398438 -7.976562 -44.976562 -6.363281 -45.554688 C -4.867188 -46.105469 -3.257812 -46.683594 -1.738281 -47.117188 L -0.789062 -47.3125 C 0.636719 -47.605469 0.875 -47.035156 0.648438 -45.132812 C 0.230469 -42.945312 0.0234375 -40.925781 -0.34375 -38.503906 C -2.074219 -27.023438 -3.726562 -9.746094 -1.371094 1.765625 C -0.8125 4.492188 0.777344 8.617188 3.859375 7.988281 Z M 3.859375 7.988281 "/></g></g></g><g fill="#ffffff" fill-opacity="1"><g transform="translate(272.556055, 99.467986)"><g><path d="M 23.285156 -14.289062 C 23.757812 -14.386719 24.113281 -14.457031 24.445312 -14.648438 C 30.421875 -16.863281 36.21875 -26.582031 39.28125 -32.152344 C 39.46875 -32.441406 39.609375 -32.960938 39.84375 -33.628906 C 40.078125 -34.296875 39.746094 -34.722656 39.03125 -35.191406 C 38.746094 -35.382812 38.484375 -35.453125 38.125 -35.378906 C 37.890625 -35.328125 37.675781 -35.164062 37.582031 -35.019531 C 36.898438 -34.136719 36.332031 -33.28125 35.789062 -32.304688 C 33.574219 -28.636719 27.277344 -18.320312 23.125 -17.46875 C 22.175781 -17.277344 21.4375 -17.867188 21.027344 -19.265625 C 20.667969 -20.429688 20.421875 -21.613281 20.296875 -22.824219 C 19.851562 -26.8125 19.953125 -30.542969 20.316406 -34.203125 C 20.316406 -34.820312 20.429688 -35.464844 20.425781 -36.082031 C 20.449219 -36.578125 20.445312 -37.195312 20.441406 -37.816406 C 20.414062 -38.550781 20.082031 -38.976562 19.296875 -39.1875 C 18.917969 -39.234375 18.65625 -39.304688 18.417969 -39.253906 C 18.0625 -39.179688 17.847656 -39.015625 17.566406 -38.585938 C 17.09375 -37.871094 16.597656 -37.273438 16.246094 -36.582031 C 15.773438 -35.871094 15.394531 -35.296875 14.921875 -34.582031 C 12.332031 -29.726562 9.550781 -25.199219 6.101562 -20.90625 C 5.605469 -20.3125 5.109375 -19.714844 4.589844 -19.238281 C 4.09375 -18.640625 3.480469 -18.019531 2.984375 -17.425781 C 2.582031 -16.972656 2.25 -16.78125 2.132812 -16.757812 C 1.894531 -16.707031 1.777344 -16.683594 1.632812 -16.777344 C 1.253906 -16.824219 1.085938 -17.035156 1.035156 -17.273438 C 0.988281 -17.511719 0.9375 -17.75 0.890625 -17.984375 C 0.707031 -21.902344 1.046875 -25.683594 2.144531 -29.367188 C 2.472656 -30.179688 2.683594 -30.964844 2.917969 -31.628906 C 3.339844 -32.582031 3.101562 -33.148438 2.265625 -33.597656 C 1.980469 -33.785156 1.601562 -33.832031 1.246094 -33.757812 C 0.890625 -33.6875 0.464844 -33.351562 0.0859375 -32.78125 L -0.597656 -31.28125 C -2.117188 -26.640625 -2.523438 -21.984375 -2.171875 -17.234375 C -2.070312 -16.144531 -1.875 -15.195312 -1.492188 -14.53125 C -0.9375 -13.035156 0.0625 -12.375 1.605469 -12.691406 C 1.960938 -12.765625 2.292969 -12.957031 2.742188 -13.171875 C 6.53125 -15.800781 9.691406 -20.28125 12.238281 -24.140625 C 12.710938 -24.855469 13.207031 -25.453125 13.679688 -26.167969 C 14.03125 -26.859375 14.410156 -27.429688 14.882812 -28.144531 C 14.976562 -28.289062 15.164062 -28.574219 15.355469 -28.859375 C 15.425781 -29.121094 15.636719 -29.289062 15.992188 -29.363281 L 16.230469 -29.410156 C 16.609375 -29.363281 16.894531 -29.175781 16.851562 -28.796875 C 16.804688 -28.414062 16.734375 -28.152344 16.808594 -27.796875 C 16.90625 -26.707031 17.03125 -25.496094 17.132812 -24.402344 C 17.230469 -23.308594 17.1875 -22.3125 17.214844 -21.578125 C 17.96875 -17.898438 19.128906 -13.4375 23.285156 -14.289062 Z M 23.285156 -14.289062 "/></g></g></g><g fill="#ffffff" fill-opacity="1"><g transform="translate(311.592022, 91.472997)"><g><path d="M -1.496094 -10.324219 C 0.046875 -10.640625 1.722656 -12.714844 2.597656 -13.882812 C 5.003906 -17.21875 7.03125 -20.601562 9.105469 -24.367188 C 9.386719 -24.792969 9.765625 -25.367188 10.023438 -25.914062 C 10.28125 -26.460938 10.800781 -26.9375 11.558594 -27.464844 C 11.386719 -24.089844 11.304688 -20.859375 11.960938 -17.65625 C 12.421875 -15.402344 13.617188 -14.410156 15.632812 -14.824219 C 16.105469 -14.921875 16.464844 -14.992188 16.675781 -15.160156 C 21.488281 -17.011719 28.285156 -26.6875 31.023438 -30.832031 C 31.117188 -30.976562 31.304688 -31.261719 31.398438 -31.40625 C 31.492188 -31.546875 31.46875 -31.667969 31.5625 -31.808594 C 31.632812 -32.6875 31.390625 -33.257812 30.722656 -33.492188 C 30.4375 -33.679688 30.175781 -33.75 29.820312 -33.675781 C 29.703125 -33.652344 29.609375 -33.511719 29.277344 -33.320312 C 28.96875 -33.007812 28.660156 -32.699219 28.472656 -32.414062 C 28.191406 -31.984375 27.882812 -31.671875 27.597656 -31.246094 C 26.703125 -30.195312 25.921875 -29.171875 25.261719 -28.167969 C 24.484375 -27.144531 23.726562 -26 22.832031 -24.953125 C 21.675781 -23.355469 20.324219 -22.089844 19.097656 -20.847656 C 18.148438 -20.035156 17.179688 -19.34375 16.207031 -18.648438 C 16.113281 -18.507812 15.996094 -18.484375 15.757812 -18.433594 C 15.285156 -18.335938 14.972656 -18.644531 14.828125 -19.355469 C 13.78125 -24.457031 15.6875 -33.875 17.019531 -38.84375 C 17.132812 -39.484375 17.273438 -40.007812 17.507812 -40.675781 C 17.648438 -41.199219 17.789062 -41.722656 17.902344 -42.363281 C 18.042969 -43.503906 17.753906 -44.3125 16.824219 -44.617188 C 16.445312 -44.660156 16.183594 -44.730469 16.0625 -44.707031 C 15.707031 -44.632812 15.28125 -44.300781 14.8125 -43.585938 C 14.527344 -43.15625 14.386719 -42.632812 14.222656 -42.226562 C 13.964844 -41.679688 13.824219 -41.15625 13.542969 -40.726562 C 13.023438 -39.632812 12.507812 -38.539062 12.105469 -37.46875 C 11.589844 -36.371094 11.074219 -35.277344 10.53125 -34.300781 C 10.175781 -33.609375 9.894531 -33.183594 9.65625 -33.132812 C 9.539062 -33.109375 9.132812 -33.273438 8.46875 -33.507812 C 7.085938 -34.214844 5.804688 -34.445312 4.617188 -34.203125 C 3.3125 -33.933594 2.101562 -33.191406 1.015625 -31.859375 C 0.308594 -31.09375 -0.1875 -30.5 -0.445312 -29.949219 C -3.277344 -25.664062 -5.757812 -17.859375 -4.691406 -12.640625 C -4.183594 -10.765625 -3.039062 -10.011719 -1.496094 -10.324219 Z M -1.304688 -14.816406 C -1.328125 -14.933594 -1.328125 -14.933594 -1.445312 -14.910156 L -1.589844 -15.003906 C -1.683594 -20.300781 -0.1875 -25.058594 2.835938 -29.015625 C 3.308594 -29.730469 4.5625 -30.851562 5.390625 -31.023438 C 5.984375 -31.144531 6.507812 -31.003906 7.171875 -30.769531 C 7.839844 -30.535156 8.082031 -29.964844 7.988281 -29.207031 C 7.941406 -28.824219 7.730469 -28.660156 7.636719 -28.515625 C 5.234375 -23.945312 2.832031 -19.371094 -0.308594 -15.390625 C -0.496094 -15.105469 -0.828125 -14.914062 -1.304688 -14.816406 Z M -1.304688 -14.816406 "/></g></g></g><g fill="#ffffff" fill-opacity="1"><g transform="translate(342.322466, 85.179069)"><g><path d="M 5.203125 5.488281 C 7.578125 5 10.546875 0.1875 11.4375 -2.09375 C 13.25 -5.929688 15.15625 -9.902344 17.011719 -14.117188 C 18.777344 -18.1875 20.683594 -22.164062 22.515625 -25.875 C 22.917969 -26.945312 23.410156 -28.160156 23.691406 -29.207031 C 23.972656 -29.636719 23.992188 -30.136719 23.871094 -30.726562 C 23.871094 -31.347656 23.652344 -31.796875 23.011719 -31.910156 C 22.632812 -31.957031 22.371094 -32.027344 22.132812 -31.980469 C 21.300781 -31.808594 20.625 -29.691406 20.390625 -29.027344 C 16.648438 -20.71875 12.324219 -11.054688 8.207031 -2.792969 C 7.78125 -1.839844 6.113281 1.46875 5.042969 1.6875 C 4.449219 1.808594 4.019531 1.523438 3.78125 0.957031 C 2.464844 -1.246094 2.191406 -3.785156 2.0625 -6.234375 C 1.148438 -13.710938 0.160156 -26.984375 3.023438 -34.125 C 6.804688 -43.429688 13.511719 -62.605469 13.703125 -72.535156 C 13.628906 -73.507812 13.3125 -74.433594 12.148438 -74.6875 C 11.648438 -74.710938 11.386719 -74.78125 11.269531 -74.757812 C 10.796875 -74.660156 10.25 -74.300781 9.753906 -73.703125 C 3.246094 -63.839844 0.269531 -44.5625 -1.078125 -33.035156 C -1.351562 -30.136719 -1.578125 -27.617188 -2.894531 -25 C -3.273438 -24.425781 -3.480469 -23.640625 -2.886719 -23.144531 C -1.550781 -22.058594 -1.734375 -20.539062 -1.824219 -19.160156 C -1.84375 -13.839844 -1.65625 -8.6875 -0.535156 -2.609375 C -0.460938 -2.253906 -0.339844 -1.660156 -0.195312 -0.949219 C -0.046875 -0.238281 0.0976562 0.476562 0.386719 1.28125 C 1.128906 3.105469 2.949219 5.949219 5.203125 5.488281 Z M 4.800781 -45.367188 C 4.300781 -46.007812 4.25 -46.859375 4.410156 -47.882812 C 5.472656 -54.160156 7.085938 -60.175781 9.195312 -66.171875 C 9.546875 -66.863281 9.832031 -67.292969 10.1875 -67.363281 C 10.304688 -67.386719 10.566406 -67.316406 10.949219 -67.273438 C 10.804688 -67.367188 10.78125 -67.484375 10.757812 -67.605469 C 10.78125 -67.484375 10.78125 -67.484375 10.925781 -67.390625 L 10.949219 -67.273438 L 9.058594 -60.210938 C 7.605469 -55.214844 6.277344 -50.242188 4.921875 -45.390625 C 4.898438 -45.511719 4.898438 -45.511719 4.898438 -45.511719 C 4.777344 -45.484375 4.777344 -45.484375 4.800781 -45.367188 Z M 4.800781 -45.367188 "/></g></g></g><g fill="#a39692" fill-opacity="1"><g transform="translate(40.773523, 65.102135)"><g><path d="M 0.789062 0.285156 L 3.308594 1.199219 L 3.402344 0.9375 C 2.535156 0.28125 2.324219 -0.539062 3.152344 -2.835938 L 5.980469 -10.636719 L 7.894531 -1.179688 L 8.324219 -1.023438 L 15.703125 -7.304688 L 12.40625 1.796875 C 11.917969 3.148438 11.582031 3.664062 10.886719 3.648438 L 10.789062 3.910156 L 14.285156 5.175781 L 14.382812 4.914062 C 13.835938 4.484375 13.910156 3.871094 14.398438 2.515625 L 17.03125 -4.738281 C 17.859375 -7.03125 18.511719 -7.539062 19.488281 -7.527344 L 19.582031 -7.792969 L 16.914062 -8.757812 L 9.703125 -2.652344 L 7.851562 -12.042969 L 5.03125 -13.0625 L 4.9375 -12.800781 C 5.691406 -12.1875 5.867188 -11.378906 5.035156 -9.085938 L 2.40625 -1.828125 C 1.917969 -0.476562 1.582031 0.0390625 0.886719 0.0234375 Z M 0.789062 0.285156 "/></g></g></g><g fill="#a39692" fill-opacity="1"><g transform="translate(61.314197, 72.093121)"><g><path d="M 0.914062 0.21875 L 10.757812 2.550781 L 11.570312 -0.257812 L 11.324219 -0.355469 C 10.113281 1.453125 8.632812 1.71875 6.667969 1.253906 L 4.800781 0.808594 C 4.179688 0.664062 3.910156 0.230469 4.058594 -0.394531 L 5.453125 -6.269531 L 7.320312 -5.828125 C 9.695312 -5.261719 10.265625 -4.636719 10.335938 -3.550781 L 10.609375 -3.484375 L 11.382812 -6.753906 L 11.109375 -6.816406 C 10.558594 -5.878906 9.769531 -5.574219 7.394531 -6.136719 L 5.527344 -6.582031 L 6.910156 -12.417969 L 9.1875 -11.878906 C 11.367188 -11.359375 12.453125 -10.484375 12.78125 -8.394531 L 13.046875 -8.394531 L 13.484375 -11.1875 L 4.144531 -13.402344 L 4.078125 -13.128906 C 4.671875 -12.761719 4.667969 -12.148438 4.335938 -10.746094 L 2.277344 -2.070312 C 1.945312 -0.667969 1.671875 -0.117188 0.980469 -0.0546875 Z M 0.914062 0.21875 "/></g></g></g><g fill="#a39692" fill-opacity="1"><g transform="translate(77.730548, 75.721573)"><g><path d="M 3.726562 0.503906 L 7.429688 1.007812 L 7.46875 0.730469 C 6.84375 0.425781 6.785156 -0.1875 6.980469 -1.617188 L 8.472656 -12.613281 L 9.046875 -12.535156 C 10.808594 -12.292969 11.632812 -11.679688 12.152344 -9.992188 L 12.394531 -10 L 12.601562 -12.414062 L 2.277344 -13.816406 L 1.835938 -11.433594 L 2.066406 -11.363281 C 3.015625 -12.847656 3.972656 -13.222656 5.738281 -12.984375 L 6.351562 -12.898438 L 4.859375 -1.902344 C 4.664062 -0.476562 4.445312 0.0976562 3.761719 0.226562 Z M 3.726562 0.503906 "/></g></g></g><g fill="#a39692" fill-opacity="1"><g transform="translate(93.589466, 77.558724)"><g><path d="M 1.570312 -12.582031 L 2.050781 -8.882812 L 2.210938 -8.875 L 3.164062 -12.480469 C 3.378906 -13.328125 3.101562 -13.964844 2.460938 -14.007812 C 1.824219 -14.046875 1.464844 -13.449219 1.570312 -12.582031 Z M 1.570312 -12.582031 "/></g></g></g><g fill="#a39692" fill-opacity="1"><g transform="translate(101.457347, 78.0665)"><g><path d="M -0.417969 0.00390625 L 1.898438 -0.0234375 L 1.894531 -0.300781 C 1.214844 -0.453125 1.085938 -1.03125 1.613281 -2.378906 L 2.738281 -5.25 L 8.074219 -5.316406 L 9.308594 -2.449219 C 9.882812 -1.136719 10.171875 -0.621094 9.511719 -0.394531 L 9.515625 -0.113281 L 13.15625 -0.15625 L 13.152344 -0.4375 C 12.691406 -0.652344 12.164062 -1.164062 11.589844 -2.476562 L 6.488281 -14.234375 L 4.539062 -13.332031 L 4.808594 -12.773438 C 4.992188 -12.417969 5.015625 -12.097656 4.859375 -11.695312 L 1.230469 -2.375 C 0.707031 -1.027344 0.175781 -0.503906 -0.421875 -0.273438 Z M 2.851562 -5.574219 L 5.277344 -11.78125 L 7.929688 -5.632812 Z M 2.851562 -5.574219 "/></g></g></g><g fill="#a39692" fill-opacity="1"><g transform="translate(119.25849, 77.583498)"><g><path d="M 11.058594 -1.152344 C 11.394531 -1.191406 12.027344 -1.285156 12.472656 -1.457031 L 12.441406 -1.734375 C 12.34375 -1.703125 12.242188 -1.691406 12.144531 -1.679688 C 11.410156 -1.59375 11.136719 -2.046875 9.773438 -4.566406 C 8.414062 -7.082031 7.867188 -7.964844 5.59375 -7.960938 C 8.195312 -8.585938 9.289062 -10.105469 9.074219 -11.929688 C 8.886719 -13.539062 7.808594 -15.003906 3.480469 -14.5 L -0.691406 -14.011719 L -0.660156 -13.734375 C 0.0234375 -13.589844 0.230469 -13.011719 0.398438 -11.582031 L 1.433594 -2.722656 C 1.601562 -1.292969 1.53125 -0.683594 0.902344 -0.386719 L 0.933594 -0.109375 L 4.628906 -0.539062 L 4.59375 -0.820312 C 3.914062 -0.960938 3.707031 -1.539062 3.539062 -2.96875 L 3 -7.578125 L 4.171875 -7.714844 C 5.917969 -7.917969 6.132812 -6.957031 7.664062 -4.195312 C 8.886719 -1.984375 9.410156 -0.957031 11.058594 -1.152344 Z M 2.960938 -7.894531 L 2.253906 -13.972656 C 2.546875 -14.046875 2.839844 -14.101562 3.121094 -14.132812 C 5.601562 -14.425781 6.835938 -12.816406 7.023438 -11.207031 C 7.203125 -9.679688 6.496094 -8.308594 4.234375 -8.042969 Z M 2.960938 -7.894531 "/></g></g></g><g fill="#a39692" fill-opacity="1"><g transform="translate(136.38741, 75.306563)"><g><path d="M 3.671875 -0.804688 L 7.324219 -1.605469 L 7.265625 -1.878906 C 6.574219 -1.953125 6.308594 -2.507812 6 -3.914062 L 3.625 -14.753906 L 4.191406 -14.878906 C 5.929688 -15.257812 6.914062 -14.964844 7.980469 -13.558594 L 8.207031 -13.648438 L 7.570312 -15.988281 L -2.605469 -13.757812 L -2.203125 -11.367188 L -1.960938 -11.382812 C -1.582031 -13.101562 -0.808594 -13.78125 0.929688 -14.164062 L 1.535156 -14.296875 L 3.910156 -3.457031 C 4.21875 -2.050781 4.210938 -1.433594 3.613281 -1.078125 Z M 3.671875 -0.804688 "/></g></g></g><path stroke-linecap="butt" transform="matrix(0.705131, 0.255519, -0.255519, 0.705131, 45.834757, 47.936966)" fill="none" stroke-linejoin="miter" d="M 1.118276 23.000972 L 4.691894 23.002296 L 4.695426 22.629853 C 3.303571 22.198004 2.668289 21.270404 2.667924 18.013163 L 2.669609 6.949671 L 9.360037 17.936986 L 9.969657 17.937667 L 16.371202 6.710011 L 16.371022 19.612155 C 16.369764 21.534905 16.177973 22.335651 15.304152 22.63014 L 15.30062 23.002583 L 20.263022 22.999229 L 20.261656 22.628561 C 19.38582 22.336566 19.195374 21.535838 19.191736 19.614862 L 19.197006 9.325636 C 19.191745 6.07017 19.780598 5.142158 21.008333 4.708341 L 21.013638 4.340795 L 17.224204 4.34012 L 10.951595 15.266225 L 4.371454 4.33866 L 0.371102 4.33686 L 0.372468 4.707528 C 1.602798 5.136972 2.185563 6.072523 2.184154 9.324867 L 2.185555 19.617215 C 2.187419 21.533294 1.997403 22.338937 1.121807 22.628529 Z M 1.118276 23.000972 " stroke="#ffffff" stroke-width="1.833336" stroke-opacity="1" stroke-miterlimit="4"/><path stroke-linecap="butt" transform="matrix(0.729761, 0.173055, -0.173055, 0.729761, 64.47876, 54.361446)" fill="none" stroke-linejoin="miter" d="M 1.254688 23.000263 L 14.742973 22.997262 L 14.929132 19.109823 L 14.584885 19.057638 C 13.570292 21.776574 11.730119 22.571588 9.043078 22.571812 L 6.478605 22.569734 C 5.622091 22.569442 5.150354 22.092504 5.146781 21.24226 L 5.148513 13.191273 L 7.706716 13.189485 C 10.955919 13.18977 11.889302 13.830225 12.314615 15.217438 L 12.693657 15.213197 L 12.692396 10.738574 L 12.312153 10.737748 C 11.891088 12.122265 10.956065 12.761513 7.706862 12.761228 L 5.148659 12.763016 L 5.146004 4.761244 L 8.266369 4.759965 C 11.254031 4.763391 12.932074 5.564482 13.996851 8.18107 L 14.345327 8.09308 L 14.054852 4.34008 L 1.256365 4.340086 L 1.258202 4.708991 C 2.136405 5.003896 2.314948 5.801942 2.315623 7.723429 L 2.31524 19.617389 C 2.314713 21.533809 2.135688 22.336357 1.257918 22.630155 Z M 1.254688 23.000263 " stroke="#ffffff" stroke-width="1.833336" stroke-opacity="1" stroke-miterlimit="4"/><path stroke-linecap="butt" transform="matrix(0.743185, 0.100874, -0.100874, 0.743185, 79.234929, 57.681147)" fill="none" stroke-linejoin="miter" d="M 5.013474 23.001497 L 9.995777 22.998021 L 9.998351 22.629746 C 9.117249 22.334108 8.929854 21.534337 8.932217 19.615543 L 8.931784 4.819704 L 9.704463 4.81995 C 12.074809 4.818841 13.279624 5.485772 14.262798 7.617699 L 14.58654 7.563245 L 14.421997 4.337315 L 0.535826 4.340424 L 0.368921 7.564038 L 0.691891 7.620066 C 1.679122 5.483497 2.877021 4.821576 5.252528 4.819766 L 6.078218 4.823328 L 6.077951 19.614005 C 6.081449 21.53726 5.890247 22.335858 5.010187 22.628761 Z M 5.013474 23.001497 " stroke="#ffffff" stroke-width="1.833336" stroke-opacity="1" stroke-miterlimit="4"/><path stroke-linecap="butt" transform="matrix(0.748462, 0.0480042, -0.0480042, 0.748462, 93.877842, 59.396931)" fill="none" stroke-linejoin="miter" d="M 1.015101 6.121463 L 1.970107 11.002638 L 2.189408 11.00423 L 3.144411 6.12059 C 3.358276 4.979562 2.934571 4.150816 2.078489 4.148313 C 1.22274 4.151008 0.800758 4.976585 1.015101 6.121463 Z M 1.015101 6.121463 " stroke="#ffffff" stroke-width="1.833336" stroke-opacity="1" stroke-miterlimit="4"/><path stroke-linecap="butt" transform="matrix(0.749947, -0.00892764, 0.00892764, 0.749947, 100.436292, 59.870562)" fill="none" stroke-linejoin="miter" d="M -0.558679 23.000899 L 2.530078 23.001208 L 2.534479 22.631443 C 1.625566 22.412274 1.462878 21.63945 2.187281 19.85628 L 3.727597 16.041011 L 10.847877 16.042434 L 12.453295 19.884733 C 13.198097 21.638515 13.570033 22.3357 12.691499 22.627347 L 12.692243 23.002382 L 17.541602 22.997606 L 17.540796 22.627779 C 16.929666 22.334025 16.234774 21.638204 15.489973 19.884422 L 8.880253 4.122333 L 6.267157 5.294436 L 6.612433 6.043391 C 6.851504 6.525438 6.87773 6.947655 6.663026 7.481595 L 1.676838 19.855412 C 0.957644 21.638644 0.240929 22.338495 -0.559486 22.631072 Z M 3.89419 15.610672 L 7.226788 7.378924 L 10.660266 15.613087 Z M 3.89419 15.610672 " stroke="#ffffff" stroke-width="1.833336" stroke-opacity="1" stroke-miterlimit="4"/><path stroke-linecap="butt" transform="matrix(0.74493, -0.0870606, 0.0870606, 0.74493, 116.440367, 59.502956)" fill="none" stroke-linejoin="miter" d="M 14.82101 23.190981 C 15.277722 23.186675 16.130278 23.160464 16.741443 23.001165 L 16.742984 22.629036 C 16.608819 22.655306 16.472504 22.655106 16.341362 22.655511 C 15.355514 22.655657 15.063528 22.013254 13.647462 18.470761 C 12.237174 14.923699 11.650178 13.664757 8.63821 13.323234 C 12.185418 12.898794 13.863905 11.055128 13.86233 8.600854 C 13.86311 6.440507 12.666617 4.339496 6.851025 4.341515 L 1.256333 4.337887 L 1.254792 4.710015 C 2.133151 5.001446 2.317243 5.804285 2.318408 7.723646 L 2.318081 19.616507 C 2.319246 21.535868 2.136382 22.33777 1.258165 22.628416 L 1.256625 23.000545 L 6.206559 23.002232 L 6.208099 22.630103 C 5.330345 22.333499 5.150822 21.536439 5.149657 19.617078 L 5.148575 13.434531 L 6.716499 13.434244 C 9.066102 13.430923 9.196722 14.73616 10.797748 18.625384 C 12.074739 21.742608 12.608327 23.189328 14.82101 23.190981 Z M 5.14642 13.004289 L 5.150823 4.845477 C 5.545726 4.786754 5.94157 4.764848 6.319476 4.76182 C 9.654322 4.763527 11.03994 7.085904 11.039764 9.241078 C 11.040729 11.296754 9.892183 13.00309 6.855832 13.004806 Z M 5.14642 13.004289 " stroke="#ffffff" stroke-width="1.833336" stroke-opacity="1" stroke-miterlimit="4"/><path stroke-linecap="butt" transform="matrix(0.732622, -0.160514, 0.160514, 0.732622, 131.879878, 57.509091)" fill="none" stroke-linejoin="miter" d="M 5.010225 22.999311 L 9.995691 22.998567 L 9.996289 22.630799 C 9.116953 22.336835 8.930392 21.533502 8.929751 19.613887 L 8.928578 4.823009 L 9.701958 4.821833 C 12.075202 4.819275 13.278778 5.482863 14.261335 7.617611 L 14.588259 7.561274 L 14.42555 4.337164 L 0.535729 4.338475 L 0.3736 7.560729 L 0.691264 7.619663 C 1.681428 5.485246 2.87765 4.819586 5.24978 4.822116 L 6.081353 4.823026 L 6.077439 19.612789 C 6.076964 21.537492 5.891784 22.334024 5.011937 22.626455 Z M 5.010225 22.999311 " stroke="#ffffff" stroke-width="1.833336" stroke-opacity="1" stroke-miterlimit="4"/></svg>