<svg xmlns="http://www.w3.org/2000/svg" xmlns:xlink="http://www.w3.org/1999/xlink" width="500" zoomAndPan="magnify" viewBox="0 0 375 374.999991" height="500" preserveAspectRatio="xMidYMid meet" version="1.0"><defs><filter x="0%" y="0%" width="100%" height="100%" id="1409432fc5"><feColorMatrix values="0 0 0 0 1 0 0 0 0 1 0 0 0 0 1 0 0 0 1 0" color-interpolation-filters="sRGB"/></filter><g/><mask id="4113165875"><g filter="url(#1409432fc5)"><rect x="-37.5" width="450" fill="#000000" y="-37.499999" height="449.999989" fill-opacity="0.349"/></g></mask><clipPath id="9e780eb5de"><path d="M 1 12 L 153 12 L 153 74 L 1 74 Z M 1 12 " clip-rule="nonzero"/></clipPath><clipPath id="43085e8483"><path d="M 6.3125 82.261719 L -0.410156 15.851562 L 148.828125 0.746094 L 155.546875 67.15625 Z M 6.3125 82.261719 " clip-rule="nonzero"/></clipPath><clipPath id="d8399d3faa"><path d="M 6.3125 82.261719 L -0.410156 15.851562 L 148.828125 0.746094 L 155.546875 67.15625 Z M 6.3125 82.261719 " clip-rule="nonzero"/></clipPath><clipPath id="4e296d047e"><rect x="0" width="156" y="0" height="83"/></clipPath><clipPath id="42e7136c5d"><path d="M 23 163 L 152.527344 163 L 152.527344 220 L 23 220 Z M 23 163 " clip-rule="nonzero"/></clipPath></defs><g mask="url(#4113165875)"><g transform="matrix(1, 0, 0, 1, 0, 171)"><g clip-path="url(#4e296d047e)"><g clip-path="url(#9e780eb5de)"><g clip-path="url(#43085e8483)"><g clip-path="url(#d8399d3faa)"><path fill="#b2935b" d="M 37.691406 35.375 C 37.644531 35.449219 37.566406 35.496094 37.476562 35.519531 C 37.171875 35.589844 36.867188 35.632812 36.5625 35.679688 C 33.21875 36.753906 30.066406 38.402344 26.699219 39.398438 C 21.3125 40.988281 15.105469 41.136719 9.628906 40 C 7.789062 39.625 5.957031 39.3125 4.144531 38.785156 C 3.855469 38.707031 3.335938 38.625 2.878906 38.511719 C 2.507812 38.414062 2.183594 38.273438 1.992188 38.105469 C 1.875 37.996094 1.875 37.890625 1.867188 37.808594 C 1.871094 37.703125 1.914062 37.617188 2.015625 37.539062 C 2.050781 37.507812 2.117188 37.476562 2.210938 37.464844 C 2.261719 37.460938 2.355469 37.464844 2.410156 37.460938 C 2.746094 37.4375 3.078125 37.417969 3.410156 37.398438 C 4.226562 37.355469 5.050781 37.257812 5.855469 37.109375 C 8.1875 36.660156 10.601562 36.1875 12.84375 35.398438 C 17.609375 33.734375 22.839844 33.246094 27.847656 33.867188 C 30.148438 34.15625 32.277344 34.878906 34.496094 35.03125 L 34.507812 35.027344 C 37.027344 34.410156 39.582031 33.910156 42.171875 33.582031 C 44.601562 33.28125 47.042969 33.144531 49.5 33.242188 C 50.390625 33.273438 51.269531 33.34375 52.15625 33.445312 C 50.847656 32.867188 49.574219 32.242188 48.351562 31.589844 C 46.761719 30.730469 45.039062 29.914062 43.617188 28.769531 C 41.292969 26.902344 39.535156 24.652344 37.613281 22.417969 C 36.804688 21.46875 36.160156 20.382812 35.386719 19.398438 C 34.539062 18.320312 33.574219 17.304688 32.726562 16.210938 C 32.199219 15.539062 31.652344 14.898438 31.117188 14.242188 C 30.949219 14.042969 30.792969 13.859375 30.613281 13.675781 C 30.539062 13.601562 30.371094 13.511719 30.296875 13.441406 C 30.222656 13.367188 30.171875 13.292969 30.152344 13.238281 C 30.117188 13.121094 30.132812 13.027344 30.191406 12.941406 C 30.238281 12.871094 30.308594 12.78125 30.46875 12.753906 C 30.71875 12.699219 31.035156 12.773438 31.371094 12.914062 C 31.75 13.078125 32.164062 13.332031 32.417969 13.453125 C 33.953125 14.128906 35.53125 14.707031 37.03125 15.453125 C 41.0625 17.472656 44.871094 19.886719 47.59375 23.582031 C 49.230469 25.789062 50.304688 28.175781 51.734375 30.203125 C 53.019531 32.027344 54.597656 33.558594 57.164062 34.359375 C 60.78125 35.277344 64.082031 36.6875 67.457031 38.332031 C 73.523438 41.28125 79.828125 45.027344 88.746094 48.054688 C 91.878906 49.117188 95.035156 49.898438 98.191406 50.410156 C 98.09375 50.367188 97.992188 50.324219 97.894531 50.277344 C 94.988281 48.925781 91.085938 46.597656 88.996094 44.140625 C 86.539062 41.226562 84.425781 36.558594 82.304688 33.273438 C 81.445312 31.941406 80.417969 30.8125 79.308594 29.6875 C 79.070312 29.445312 78.664062 29.136719 78.320312 28.8125 C 78.050781 28.554688 77.835938 28.28125 77.730469 28.027344 C 77.660156 27.859375 77.703125 27.746094 77.734375 27.675781 C 77.789062 27.5625 77.890625 27.488281 78.066406 27.484375 C 78.117188 27.476562 78.199219 27.496094 78.285156 27.539062 C 78.386719 27.597656 78.558594 27.726562 78.660156 27.769531 C 78.941406 27.917969 79.210938 28.0625 79.496094 28.195312 C 80.328125 28.609375 81.21875 28.90625 82.074219 29.261719 C 82.410156 29.402344 82.75 29.554688 83.074219 29.695312 C 83.136719 29.652344 83.226562 29.640625 83.289062 29.703125 C 83.40625 29.796875 83.519531 29.878906 83.636719 29.976562 C 84.898438 30.597656 86.082031 31.28125 87.25 32.0625 C 87.3125 32.015625 87.40625 32.007812 87.464844 32.066406 C 88.003906 32.46875 88.527344 32.886719 89.019531 33.332031 C 89.207031 33.472656 89.410156 33.628906 89.601562 33.78125 C 93.332031 36.664062 95.582031 40.296875 98.035156 44.230469 C 98.886719 45.59375 99.667969 47.070312 100.65625 48.335938 C 101.613281 49.554688 102.75 50.566406 104.34375 51.046875 C 104.480469 51.085938 104.632812 51.125 104.769531 51.152344 C 112.320312 51.539062 119.910156 50.570312 127.4375 48.617188 C 121.179688 48.792969 114.070312 45.570312 109.246094 42.277344 C 109.144531 42.207031 109.042969 42.136719 108.945312 42.066406 C 107.007812 40.75 105.359375 39.199219 103.824219 37.4375 C 103.71875 37.328125 103.515625 37.160156 103.347656 36.976562 C 103.199219 36.816406 103.0625 36.65625 103.003906 36.5 C 102.949219 36.359375 102.9375 36.226562 102.976562 36.101562 C 103.019531 35.976562 103.101562 35.847656 103.265625 35.75 C 105.351562 34.589844 108.621094 34.78125 112.046875 35.695312 C 117.101562 37.03125 122.484375 39.90625 124.78125 41.992188 C 125.84375 42.957031 126.703125 44.398438 127.699219 45.613281 C 128.511719 46.605469 129.414062 47.4375 130.648438 47.660156 C 137.179688 45.40625 147.132812 40.308594 151.023438 35.890625 C 151.21875 35.671875 151.550781 35.652344 151.773438 35.84375 C 151.949219 36 152 36.234375 151.914062 36.445312 C 151.941406 36.46875 151.945312 36.507812 151.964844 36.535156 C 152 36.488281 152.035156 36.460938 152.070312 36.414062 C 152.144531 36.339844 152.253906 36.34375 152.328125 36.402344 C 152.402344 36.476562 152.398438 36.582031 152.339844 36.65625 C 151.878906 37.160156 151.371094 37.597656 150.851562 38.039062 C 150.804688 38.085938 150.722656 38.09375 150.667969 38.058594 C 150.320312 38.375 149.964844 38.695312 149.601562 38.972656 C 149.527344 39.03125 149.40625 39.019531 149.359375 38.941406 C 149.355469 38.929688 149.34375 38.929688 149.34375 38.917969 C 147.152344 40.667969 144.324219 42.441406 141.367188 44.027344 C 141.335938 44.113281 141.261719 44.1875 141.171875 44.222656 C 140.707031 44.417969 140.257812 44.609375 139.820312 44.828125 C 139.707031 44.894531 139.578125 44.945312 139.464844 45.011719 C 138.824219 45.34375 138.203125 45.703125 137.597656 46.097656 C 137.335938 46.6875 137.226562 47.34375 137.160156 47.996094 C 137.085938 48.726562 137.039062 49.453125 136.878906 50.152344 C 135.625 55.683594 133.886719 60.03125 129.773438 64.121094 C 129.296875 64.585938 126.339844 67.109375 124.890625 67.777344 C 124.570312 67.933594 124.292969 68 124.117188 67.976562 C 123.953125 67.96875 123.839844 67.898438 123.75 67.800781 C 123.597656 67.640625 123.507812 67.394531 123.472656 67.0625 C 123.4375 66.691406 123.492188 66.191406 123.597656 65.617188 C 124.003906 63.539062 125.234375 60.542969 125.542969 59.882812 C 127.8125 55.082031 130.914062 50.421875 135.046875 47.054688 L 135.023438 47.070312 C 134.082031 47.472656 133.128906 47.867188 132.15625 48.21875 C 131.367188 48.511719 130.5625 48.796875 129.753906 49.050781 C 129.492188 49.132812 129.234375 49.210938 128.957031 49.292969 C 128.828125 49.332031 128.695312 49.359375 128.554688 49.402344 C 128.394531 49.445312 128.238281 49.488281 128.082031 49.53125 C 127.585938 49.660156 127.085938 49.792969 126.601562 49.90625 C 125.460938 50.183594 124.304688 50.449219 123.148438 50.6875 C 122.578125 50.796875 122.011719 50.910156 121.460938 51.019531 C 121.304688 51.074219 121.148438 51.128906 120.980469 51.1875 C 120.984375 51.214844 120.96875 51.226562 120.960938 51.257812 C 117.652344 60.816406 110.652344 68.898438 100.660156 71.625 C 100.085938 71.777344 96.371094 72.90625 94.59375 73.273438 C 94.066406 73.378906 93.691406 73.402344 93.539062 73.363281 C 93.347656 73.316406 93.253906 73.207031 93.214844 73.078125 C 93.179688 72.972656 93.164062 72.851562 93.230469 72.710938 C 93.277344 72.613281 93.355469 72.484375 93.464844 72.355469 C 93.570312 72.222656 93.707031 72.089844 93.761719 71.988281 C 94.164062 71.316406 94.597656 70.683594 94.917969 69.980469 C 95.929688 67.761719 97.007812 65.933594 98.621094 64.09375 C 104.527344 57.382812 117.917969 51.589844 117.917969 51.589844 C 109.9375 52.695312 101.941406 52.550781 94.027344 50.710938 C 94.015625 50.710938 94.015625 50.710938 94.003906 50.714844 C 91.621094 50.941406 89.398438 52.078125 87.296875 53.496094 C 85.160156 54.945312 83.144531 56.679688 81.269531 58.074219 C 77.96875 60.527344 74.246094 62.257812 70.222656 63.109375 C 67.984375 63.578125 65.746094 63.75 63.449219 63.769531 C 62.761719 63.769531 62.089844 63.757812 61.402344 63.746094 C 61.121094 63.75 60.839844 63.738281 60.554688 63.726562 C 60.542969 63.726562 60.34375 63.761719 60.261719 63.769531 C 60.15625 63.765625 60.085938 63.746094 60.027344 63.710938 C 59.945312 63.667969 59.882812 63.59375 59.863281 63.515625 C 59.828125 63.4375 59.816406 63.332031 59.871094 63.203125 C 59.949219 63.050781 60.121094 62.882812 60.359375 62.738281 C 60.742188 62.527344 61.328125 62.347656 61.570312 62.203125 C 62.671875 61.554688 63.800781 60.753906 64.777344 59.917969 C 66.582031 58.355469 68.109375 56.832031 70.269531 55.742188 C 75.230469 53.257812 80.496094 52.964844 85.847656 51.941406 C 87.957031 51.539062 89.953125 50.789062 92.015625 50.191406 C 90.769531 49.859375 89.535156 49.476562 88.296875 49.066406 C 81.84375 46.875 76.746094 44.308594 72.125 41.933594 C 72.082031 41.9375 72.03125 41.941406 71.988281 41.933594 C 69.023438 41.457031 66.328125 42.183594 63.746094 43.359375 C 61.113281 44.550781 58.605469 46.199219 56.09375 47.523438 C 52.535156 49.398438 47.78125 50.109375 43.832031 49.582031 C 42.632812 49.421875 40.289062 49.109375 39.171875 48.554688 C 39.074219 48.535156 38.996094 48.53125 38.898438 48.515625 C 38.800781 48.496094 38.738281 48.410156 38.742188 48.316406 C 38.761719 48.21875 38.847656 48.15625 38.941406 48.160156 C 38.949219 48.082031 38.996094 48.007812 39.066406 47.933594 C 39.105469 47.902344 39.167969 47.855469 39.273438 47.832031 C 39.363281 47.808594 39.550781 47.804688 39.644531 47.769531 C 39.917969 47.6875 40.171875 47.566406 40.433594 47.472656 C 41.210938 47.179688 41.910156 46.800781 42.636719 46.40625 C 44.828125 45.21875 46.6875 43.570312 49.097656 42.789062 C 53.496094 41.378906 57.882812 42.089844 62.382812 41.953125 C 65.007812 41.875 67.523438 41.097656 70.125 40.914062 C 69.035156 40.355469 67.957031 39.808594 66.898438 39.296875 C 57.878906 34.902344 49.414062 32.246094 33.636719 36.351562 Z M 136.316406 47.25 C 136.316406 47.25 136.332031 47.261719 136.332031 47.261719 C 136.34375 47.230469 136.339844 47.21875 136.351562 47.191406 Z M 128.226562 64.503906 C 128.746094 64.0625 129.152344 63.699219 129.3125 63.5625 C 133.320312 59.578125 135 55.332031 136.226562 49.953125 C 136.273438 49.746094 136.304688 49.527344 136.335938 49.3125 C 136.238281 49.644531 136.121094 49.976562 136.007812 50.296875 C 135.625 51.433594 135.269531 52.570312 134.789062 53.675781 C 133.417969 56.859375 131.820312 60.1875 129.679688 62.9375 C 129.242188 63.503906 128.714844 64 128.226562 64.503906 Z M 126.148438 65.601562 C 126.960938 64.726562 127.695312 63.765625 128.378906 62.800781 C 129.976562 60.546875 131.28125 58.148438 132.589844 55.710938 C 133.847656 53.371094 135.269531 50.851562 136.054688 48.253906 C 135.753906 48.980469 135.34375 49.691406 135.023438 50.394531 C 134.472656 51.589844 133.960938 52.796875 133.328125 53.960938 C 132.5 55.464844 131.503906 56.90625 130.585938 58.351562 C 129.5 60.085938 128.355469 61.796875 127.296875 63.554688 C 126.921875 64.222656 126.578125 64.953125 126.148438 65.601562 Z M 135.445312 47.660156 C 131.453125 50.957031 128.457031 55.484375 126.242188 60.160156 C 125.945312 60.792969 124.746094 63.703125 124.347656 65.730469 C 124.246094 66.207031 124.195312 66.640625 124.230469 66.960938 C 124.230469 66.988281 124.234375 67.015625 124.238281 67.039062 C 124.304688 66.644531 124.46875 66.265625 124.5625 65.867188 C 124.664062 65.429688 124.699219 64.957031 124.828125 64.511719 C 125.203125 63.296875 125.90625 62.152344 126.460938 61.007812 C 126.898438 60.132812 127.261719 59.226562 127.742188 58.386719 C 128.550781 56.964844 129.535156 55.644531 130.472656 54.300781 C 131.519531 52.816406 132.535156 51.304688 133.636719 49.839844 C 134.21875 49.082031 134.847656 48.390625 135.445312 47.660156 Z M 124.628906 66.90625 C 124.699219 66.832031 124.773438 66.746094 124.832031 66.671875 C 125.164062 65.980469 125.414062 65.246094 125.746094 64.554688 C 126.078125 63.863281 126.496094 63.21875 126.859375 62.539062 C 127.253906 61.800781 127.59375 61.027344 128.003906 60.304688 C 128.917969 58.710938 130 57.191406 130.972656 55.632812 C 132.425781 53.285156 133.835938 50.890625 135.207031 48.488281 C 134.773438 49 134.328125 49.515625 133.925781 50.050781 C 132.835938 51.503906 131.820312 53.011719 130.777344 54.5 C 129.847656 55.828125 128.863281 57.132812 128.070312 58.554688 C 127.589844 59.394531 127.222656 60.300781 126.800781 61.164062 C 126.242188 62.277344 125.550781 63.40625 125.1875 64.609375 C 125.054688 65.039062 125.023438 65.5 124.917969 65.9375 C 124.84375 66.269531 124.714844 66.589844 124.628906 66.90625 Z M 125.644531 65.691406 C 126.164062 64.980469 126.550781 64.125 126.996094 63.367188 C 128.054688 61.613281 129.199219 59.902344 130.285156 58.167969 C 131.203125 56.722656 132.199219 55.292969 133.015625 53.789062 C 133.636719 52.640625 134.148438 51.449219 134.6875 50.253906 C 134.851562 49.890625 135.042969 49.535156 135.222656 49.167969 C 133.945312 51.417969 132.625 53.640625 131.273438 55.828125 C 130.316406 57.386719 129.246094 58.890625 128.332031 60.5 C 127.921875 61.222656 127.582031 61.980469 127.1875 62.71875 C 126.824219 63.386719 126.40625 64.03125 126.085938 64.722656 C 125.929688 65.03125 125.789062 65.367188 125.644531 65.691406 Z M 126.703125 65.53125 C 127.085938 65.167969 127.464844 64.796875 127.816406 64.414062 C 128.347656 63.847656 128.925781 63.320312 129.402344 62.710938 C 131.519531 59.988281 133.105469 56.691406 134.46875 53.535156 C 134.792969 52.765625 135.0625 51.988281 135.332031 51.210938 C 134.597656 52.824219 133.734375 54.402344 132.933594 55.890625 C 131.621094 58.328125 130.292969 60.742188 128.695312 63.007812 C 128.070312 63.878906 127.417969 64.734375 126.703125 65.53125 Z M 104.6875 36.800781 C 106.273438 37.738281 108.117188 38.410156 109.683594 39.285156 C 115.605469 42.574219 121.847656 45.429688 128.390625 47.257812 C 123.425781 44.664062 118.152344 42.492188 113.0625 40.164062 C 110.261719 38.878906 107.691406 37.382812 104.6875 36.800781 Z M 108.925781 41.089844 C 109.070312 41.199219 109.230469 41.316406 109.386719 41.417969 C 109.488281 41.488281 109.589844 41.558594 109.691406 41.628906 C 114.574219 44.972656 121.867188 48.253906 128.136719 47.808594 C 125.898438 47.457031 123.738281 46.726562 121.542969 46.128906 C 117.324219 44.960938 112.78125 43.488281 108.925781 41.089844 Z M 103.855469 36.269531 C 103.882812 36.292969 103.898438 36.304688 103.929688 36.328125 C 107.320312 36.777344 110.121094 38.4375 113.207031 39.851562 C 117.757812 41.941406 122.457031 43.890625 126.945312 46.144531 C 121.765625 42.769531 116.253906 39.410156 110.328125 37.703125 C 108.195312 37.0625 106.09375 36.335938 103.855469 36.269531 Z M 104.703125 37.226562 C 109.058594 41.867188 115.671875 44.148438 121.640625 45.769531 C 123.4375 46.257812 125.203125 46.84375 127.015625 47.238281 C 120.902344 45.390625 115.066406 42.683594 109.5 39.597656 C 107.992188 38.757812 106.246094 38.105469 104.703125 37.226562 Z M 106.929688 35.582031 C 108.222656 35.734375 109.550781 36.121094 110.667969 36.382812 C 114.078125 37.152344 120.378906 40.199219 123.234375 42.390625 C 124.269531 43.199219 125.265625 44.023438 126.289062 44.816406 C 125.664062 43.957031 125.050781 43.09375 124.34375 42.453125 C 122.09375 40.429688 116.824219 37.625 111.894531 36.3125 C 110.144531 35.859375 108.433594 35.578125 106.929688 35.582031 Z M 104.847656 35.980469 C 106.75 36.191406 108.585938 36.808594 110.441406 37.34375 C 116.035156 38.964844 121.277344 42.027344 126.195312 45.214844 C 125.128906 44.386719 124.101562 43.523438 123.023438 42.695312 C 120.210938 40.527344 113.976562 37.507812 110.597656 36.753906 C 109.621094 36.53125 108.496094 36.199219 107.363281 36.019531 C 106.5 35.867188 105.636719 35.820312 104.847656 35.980469 Z M 120.042969 51.75 C 120.042969 51.75 120.054688 51.75 120.054688 51.75 L 120.066406 51.707031 Z M 102.210938 70.355469 C 102.992188 70.089844 103.738281 69.785156 104.484375 69.441406 C 108.625 66.785156 112.644531 61.886719 115.414062 58.589844 C 117.152344 56.507812 118.917969 54.839844 119.757812 52.25 C 117.058594 57.335938 112.4375 60.914062 108.390625 64.875 C 106.375 66.878906 104.523438 68.902344 102.210938 70.355469 Z M 97.449219 71.761719 C 98.875 71.363281 100.21875 70.960938 100.53125 70.875 L 100.542969 70.871094 C 103.570312 69.441406 105.730469 66.996094 108.136719 64.621094 C 111.828125 60.988281 116.007812 57.695312 118.746094 53.277344 C 117.25 55.078125 115.726562 56.894531 114.0625 58.511719 C 110.976562 61.503906 107.425781 63.996094 104.054688 66.667969 C 101.617188 68.605469 99.851562 70.394531 97.449219 71.761719 Z M 95.617188 70.273438 C 98.679688 67.054688 102.613281 64.75 106.234375 62.183594 C 110.625 59.085938 114.632812 55.652344 118.609375 52.058594 C 118.453125 52.113281 118.300781 52.183594 118.132812 52.253906 C 117.773438 52.691406 117.316406 53.113281 116.808594 53.511719 C 115.488281 54.546875 113.84375 55.449219 112.875 56.21875 C 109.730469 58.722656 106.601562 61.15625 103.238281 63.359375 C 100.839844 64.917969 98.46875 66.175781 96.613281 68.269531 C 96.273438 68.890625 95.949219 69.542969 95.640625 70.214844 C 95.628906 70.246094 95.628906 70.257812 95.617188 70.273438 Z M 94.707031 71.894531 C 102.390625 66.410156 110.328125 61.316406 116.757812 54.347656 C 117.316406 53.742188 117.929688 53.199219 118.519531 52.628906 C 114.640625 56.121094 110.714844 59.453125 106.441406 62.488281 C 102.390625 65.351562 97.984375 67.875 94.8125 71.722656 C 94.777344 71.777344 94.742188 71.835938 94.707031 71.894531 Z M 106.554688 68.386719 C 111.6875 65.46875 115.6875 60.90625 118.390625 55.59375 C 117.585938 56.691406 116.640625 57.699219 115.691406 58.828125 C 113.316406 61.644531 110.050781 65.621094 106.554688 68.386719 Z M 94.425781 72.539062 C 94.660156 72.488281 94.9375 72.433594 95.253906 72.359375 C 95.410156 72.316406 95.566406 72.289062 95.722656 72.246094 C 98.980469 70.832031 100.917969 68.730469 103.839844 66.410156 C 107.199219 63.75 110.738281 61.261719 113.824219 58.28125 C 115.316406 56.828125 116.683594 55.214844 118.039062 53.601562 C 117.695312 53.933594 117.355469 54.261719 117.027344 54.617188 C 110.21875 61.957031 101.734375 67.238281 93.648438 73.097656 Z M 97.359375 67.011719 C 99.054688 65.460938 101.039062 64.359375 103.058594 63.058594 C 106.425781 60.867188 109.539062 58.433594 112.671875 55.941406 C 113.644531 55.175781 115.285156 54.269531 116.605469 53.238281 C 116.839844 53.054688 117.066406 52.871094 117.273438 52.675781 C 114.972656 53.980469 112.832031 55.539062 110.613281 56.957031 C 106.179688 59.75 101.777344 62.476562 97.988281 66.078125 C 97.765625 66.382812 97.554688 66.699219 97.359375 67.011719 Z M 99.410156 64.3125 C 102.8125 61.40625 106.59375 59.066406 110.390625 56.644531 C 111.980469 55.625 113.539062 54.542969 115.140625 53.519531 C 109.28125 56.164062 103.601562 59.636719 99.410156 64.3125 Z M 81.359375 30.042969 C 83.46875 32.164062 84.851562 34.921875 86.648438 37.285156 C 89.96875 41.683594 94 45.523438 98.644531 48.515625 C 99.535156 49.082031 100.402344 49.8125 101.320312 50.402344 C 101.378906 50.421875 101.421875 50.457031 101.476562 50.480469 C 101.332031 50.375 101.199219 50.265625 101.054688 50.160156 C 99.992188 49.371094 98.980469 48.535156 97.957031 47.699219 C 93.910156 44.378906 90.371094 40.71875 87.070312 36.652344 C 85.289062 34.472656 83.636719 31.8125 81.359375 30.042969 Z M 88.167969 41.796875 C 88.613281 42.464844 89.078125 43.085938 89.539062 43.644531 C 91.566406 46.027344 95.355469 48.285156 98.191406 49.605469 C 98.894531 49.9375 99.628906 50.265625 100.398438 50.5625 C 99.152344 49.949219 97.960938 49.214844 96.789062 48.527344 C 93.746094 46.71875 90.65625 44.480469 88.167969 41.796875 Z M 86.804688 32.578125 C 87.75 33.433594 88.660156 34.332031 89.523438 35.265625 C 91.679688 37.582031 93.5 40.304688 95.40625 42.820312 C 96.601562 44.390625 97.816406 45.902344 99.15625 47.347656 C 98.605469 46.535156 98.050781 45.71875 97.449219 44.933594 C 95.980469 43.046875 94.363281 41.265625 92.957031 39.328125 C 92.003906 38.015625 91.292969 36.546875 90.324219 35.222656 C 89.957031 34.898438 89.589844 34.589844 89.179688 34.28125 C 88.394531 33.675781 87.597656 33.101562 86.804688 32.578125 Z M 83.476562 30.648438 C 83.871094 30.929688 84.25 31.226562 84.578125 31.542969 C 85.585938 32.472656 86.472656 33.5625 87.410156 34.566406 C 90.210938 37.542969 92.796875 40.671875 95.386719 43.828125 C 96.414062 45.066406 97.484375 46.21875 98.617188 47.324219 C 97.375 45.949219 96.238281 44.535156 95.109375 43.054688 C 93.199219 40.539062 91.382812 37.839844 89.238281 35.523438 C 87.898438 34.074219 86.441406 32.707031 84.914062 31.429688 C 84.457031 31.152344 83.972656 30.894531 83.476562 30.648438 Z M 82 30.113281 C 84.074219 31.886719 85.65625 34.371094 87.328125 36.425781 C 90.613281 40.464844 94.128906 44.117188 98.167969 47.410156 C 98.285156 47.503906 98.402344 47.601562 98.507812 47.695312 C 97.316406 46.542969 96.1875 45.34375 95.113281 44.042969 C 92.511719 40.902344 89.9375 37.769531 87.148438 34.796875 C 86.214844 33.804688 85.339844 32.710938 84.332031 31.796875 C 83.667969 31.191406 82.855469 30.617188 82 30.113281 Z M 85.527344 37.359375 C 85.953125 38.121094 86.382812 38.894531 86.820312 39.640625 C 89.488281 43.164062 93.269531 46 96.957031 48.1875 C 97.214844 48.335938 97.457031 48.488281 97.71875 48.648438 C 97.574219 48.554688 97.445312 48.472656 97.3125 48.378906 C 92.855469 45.492188 88.78125 41.617188 85.527344 37.359375 Z M 91.5 36.351562 C 92.078125 37.285156 92.605469 38.238281 93.246094 39.125 C 94.402344 40.738281 95.722656 42.238281 96.96875 43.777344 C 95.285156 41.089844 93.660156 38.5625 91.5 36.351562 Z M 80.027344 29.335938 C 80.789062 30.117188 81.515625 30.914062 82.167969 31.773438 C 82.167969 31.773438 82.179688 31.757812 82.179688 31.757812 C 82.269531 31.710938 82.378906 31.726562 82.425781 31.8125 C 83.414062 33.351562 84.199219 34.972656 85.289062 36.445312 C 87.75 39.800781 90.757812 42.945312 94.0625 45.585938 C 91.183594 43.195312 88.597656 40.46875 86.347656 37.476562 C 84.359375 34.847656 82.875 31.726562 80.316406 29.558594 C 80.230469 29.488281 80.128906 29.417969 80.027344 29.335938 Z M 62.03125 62.785156 C 62.664062 62.640625 63.289062 62.46875 63.882812 62.222656 C 64.722656 61.871094 65.445312 61.3125 66.300781 61.011719 C 71.3125 59.269531 76.355469 57.460938 81.203125 55.308594 C 82.671875 54.664062 84.085938 53.929688 85.503906 53.183594 C 85.695312 53.082031 85.898438 52.96875 86.089844 52.855469 C 85.113281 53.300781 84.050781 53.558594 83.050781 53.914062 C 80.9375 54.664062 78.851562 55.449219 76.738281 56.203125 C 73.25 57.441406 69.707031 58.683594 66.359375 60.269531 C 65.0625 60.882812 63.832031 61.730469 62.589844 62.445312 C 62.386719 62.574219 62.207031 62.671875 62.03125 62.785156 Z M 65.441406 60.347656 C 65.695312 60.214844 65.9375 60.082031 66.195312 59.964844 C 69.554688 58.375 73.109375 57.132812 76.613281 55.878906 C 78.726562 55.128906 80.808594 54.339844 82.925781 53.589844 C 83.429688 53.40625 83.964844 53.257812 84.484375 53.085938 C 83.4375 53.339844 82.382812 53.566406 81.355469 53.871094 C 78.757812 54.644531 76.222656 55.636719 73.632812 56.433594 C 71.480469 57.09375 68.886719 57.640625 66.992188 58.972656 C 66.476562 59.425781 65.96875 59.878906 65.441406 60.347656 Z M 70.816406 62.203125 C 74.488281 61.335938 77.886719 59.707031 80.921875 57.453125 C 82.074219 56.601562 83.253906 55.636719 84.484375 54.679688 C 83.773438 55.085938 83.0625 55.496094 82.367188 55.914062 C 80.167969 57.277344 77.960938 58.597656 75.683594 59.847656 C 74.09375 60.734375 72.484375 61.554688 70.816406 62.203125 Z M 62.660156 63.003906 L 62.875 63.007812 C 63.449219 62.964844 64.03125 62.890625 64.597656 62.78125 C 65.914062 62.511719 67.082031 61.964844 68.328125 61.515625 C 69.921875 60.925781 71.5625 60.414062 73.132812 59.730469 C 74.445312 59.15625 75.675781 58.441406 76.988281 57.851562 C 79.132812 56.898438 81.230469 55.855469 83.28125 54.734375 C 82.644531 55.054688 82 55.347656 81.34375 55.640625 C 76.484375 57.796875 71.425781 59.609375 66.417969 61.363281 C 65.574219 61.664062 64.851562 62.21875 64.023438 62.554688 C 63.574219 62.75 63.105469 62.890625 62.632812 63.003906 Z M 68.496094 57.734375 C 70.117188 57.019531 71.925781 56.582031 73.515625 56.097656 C 76.109375 55.300781 78.644531 54.304688 81.238281 53.535156 C 81.566406 53.433594 81.890625 53.347656 82.234375 53.257812 C 78.277344 53.875 74.402344 54.480469 70.691406 56.34375 C 69.886719 56.746094 69.167969 57.222656 68.496094 57.734375 Z M 65.421875 62.953125 C 66.371094 62.894531 67.316406 62.8125 68.257812 62.691406 C 70.808594 62.003906 73.175781 60.839844 75.519531 59.542969 C 77.390625 58.507812 79.203125 57.441406 81.023438 56.332031 C 79.746094 56.984375 78.453125 57.597656 77.128906 58.1875 C 75.828125 58.773438 74.585938 59.488281 73.273438 60.066406 C 71.703125 60.746094 70.0625 61.273438 68.453125 61.851562 C 67.429688 62.226562 66.453125 62.660156 65.421875 62.953125 Z M 47.292969 48.992188 C 50.25 48.894531 53.347656 48.164062 55.835938 46.855469 C 57.761719 45.839844 59.683594 44.640625 61.660156 43.597656 C 61.351562 43.707031 61.054688 43.832031 60.773438 43.96875 C 56.734375 45.890625 52.46875 48.105469 48.019531 48.878906 C 47.78125 48.914062 47.53125 48.953125 47.292969 48.992188 Z M 46.191406 45.027344 C 47.371094 44.722656 48.609375 44.609375 49.84375 44.457031 C 51.488281 44.261719 53.152344 43.960938 54.808594 43.875 C 55.730469 43.820312 56.683594 43.792969 57.617188 43.722656 C 58.691406 43.46875 59.78125 43.210938 60.855469 42.941406 C 60.84375 42.941406 60.816406 42.945312 60.804688 42.945312 C 58.957031 43.144531 57.117188 43.050781 55.269531 43.117188 C 52.578125 43.203125 49.789062 43.511719 47.230469 44.398438 C 46.875 44.609375 46.535156 44.820312 46.191406 45.027344 Z M 49.429688 43.425781 C 51.347656 43.003906 53.320312 42.832031 55.25 42.769531 C 56.949219 42.71875 58.652344 42.789062 60.34375 42.644531 C 56.667969 42.585938 53.046875 42.269531 49.429688 43.425781 Z M 42.839844 48.679688 C 43.207031 48.734375 43.535156 48.78125 43.835938 48.820312 C 45.207031 48.839844 46.570312 48.769531 47.972656 48.535156 C 52.328125 47.773438 56.492188 45.632812 60.453125 43.730469 C 60.242188 43.78125 60.03125 43.816406 59.804688 43.851562 C 58.949219 44.140625 58.09375 44.453125 57.238281 44.753906 C 54.734375 45.652344 52.285156 46.796875 49.707031 47.515625 C 47.472656 48.117188 45.152344 48.578125 42.839844 48.679688 Z M 40.8125 48.292969 L 40.851562 48.304688 C 43.796875 48.460938 46.769531 47.945312 49.605469 47.164062 C 52.167969 46.460938 54.605469 45.316406 57.109375 44.417969 C 57.445312 44.304688 57.78125 44.175781 58.121094 44.046875 C 57.972656 44.0625 57.828125 44.078125 57.679688 44.078125 C 54.28125 44.894531 50.878906 45.679688 47.5 46.53125 C 46.453125 46.796875 45.386719 47.027344 44.339844 47.320312 C 43.179688 47.664062 41.996094 48.066406 40.78125 48.285156 Z M 41.5625 47.761719 C 42.46875 47.535156 43.351562 47.246094 44.242188 46.996094 C 45.285156 46.6875 46.351562 46.460938 47.410156 46.191406 C 50.148438 45.5 52.90625 44.859375 55.648438 44.203125 C 55.367188 44.21875 55.101562 44.234375 54.820312 44.25 C 53.175781 44.335938 51.515625 44.636719 49.867188 44.828125 C 48.195312 45.027344 46.488281 45.160156 44.96875 45.835938 C 44.339844 46.246094 43.707031 46.648438 43.046875 47.007812 C 42.5625 47.257812 42.078125 47.523438 41.5625 47.761719 Z M 52.527344 32.492188 C 52.558594 32.519531 52.574219 32.53125 52.601562 32.554688 C 52.746094 32.644531 52.902344 32.738281 53.046875 32.832031 C 53.0625 32.84375 53.074219 32.855469 53.089844 32.867188 C 53.117188 32.875 53.148438 32.886719 53.160156 32.898438 C 52.96875 32.730469 52.792969 32.5625 52.609375 32.378906 C 52.601562 32.40625 52.589844 32.433594 52.578125 32.460938 C 52.566406 32.476562 52.554688 32.492188 52.527344 32.492188 Z M 39.511719 23.515625 C 40.917969 25.183594 42.34375 26.792969 44.070312 28.1875 C 45.460938 29.292969 47.140625 30.101562 48.691406 30.9375 C 49.683594 31.46875 50.714844 31.980469 51.761719 32.464844 L 51.703125 32.429688 C 50.925781 31.933594 50.175781 31.40625 49.421875 30.878906 C 48.933594 30.550781 48.441406 30.210938 47.953125 29.886719 C 45.617188 28.328125 43.339844 26.949219 41.21875 25.097656 C 40.65625 24.59375 40.078125 24.058594 39.511719 23.515625 Z M 35.164062 15.347656 C 38.664062 17.246094 41.757812 19.800781 44.433594 22.761719 C 46.085938 24.605469 47.71875 26.519531 49.308594 28.421875 C 49.84375 29.078125 50.394531 29.746094 50.996094 30.355469 C 50.761719 30.019531 50.535156 29.664062 50.324219 29.3125 C 50.078125 28.988281 49.828125 28.664062 49.582031 28.339844 C 47.695312 25.757812 45.542969 23.359375 43.296875 21.09375 C 42.085938 19.875 40.917969 18.53125 39.5 17.550781 C 38.585938 17.023438 37.648438 16.53125 36.714844 16.046875 C 36.191406 15.804688 35.683594 15.574219 35.164062 15.347656 Z M 36.480469 16.527344 C 39.507812 18.824219 42.046875 21.742188 44.609375 24.621094 C 46.15625 26.367188 47.921875 27.984375 49.652344 29.554688 C 49.917969 29.796875 50.171875 30.039062 50.4375 30.292969 C 49.953125 29.765625 49.496094 29.207031 49.035156 28.652344 C 47.457031 26.746094 45.828125 24.832031 44.175781 22.988281 C 41.90625 20.496094 39.332031 18.289062 36.480469 16.527344 Z M 33.773438 15.152344 C 34.648438 15.9375 35.457031 16.765625 36.304688 17.578125 C 38.507812 19.6875 40.730469 21.730469 42.859375 23.914062 C 44.328125 25.414062 45.839844 26.949219 47.441406 28.304688 C 48.292969 29.019531 49.15625 29.710938 50.019531 30.414062 C 49.8125 30.222656 49.605469 30.027344 49.398438 29.835938 C 47.664062 28.253906 45.890625 26.636719 44.324219 24.863281 C 41.136719 21.246094 37.957031 17.558594 33.773438 15.152344 Z M 32.664062 14.660156 C 33.242188 15.472656 33.808594 16.300781 34.480469 17.066406 C 36.722656 19.574219 39.292969 21.753906 41.769531 24.023438 C 44.257812 26.320312 46.863281 28.574219 49.632812 30.5625 L 49.691406 30.597656 C 48.855469 29.929688 48.019531 29.25 47.199219 28.570312 C 45.582031 27.203125 44.070312 25.652344 42.585938 24.15625 C 40.457031 21.972656 38.238281 19.941406 36.035156 17.832031 C 34.945312 16.761719 33.863281 15.640625 32.664062 14.660156 Z M 41.65625 18.925781 C 42.296875 19.558594 42.914062 20.21875 43.542969 20.855469 C 45.386719 22.71875 47.167969 24.671875 48.789062 26.730469 C 48.25 25.808594 47.671875 24.875 47.003906 23.976562 C 45.507812 21.941406 43.675781 20.316406 41.65625 18.925781 Z M 36.488281 19.664062 C 36.691406 19.953125 36.894531 20.238281 37.101562 20.527344 C 38.472656 21.996094 39.984375 23.535156 41.457031 24.820312 C 42.800781 25.984375 44.214844 26.964844 45.65625 27.921875 C 44.246094 26.75 42.875 25.519531 41.523438 24.277344 C 39.851562 22.742188 38.125 21.242188 36.488281 19.664062 Z M 15.957031 35.21875 C 17.738281 35.023438 19.546875 34.949219 21.347656 34.980469 C 24.082031 35.023438 26.757812 35.195312 29.507812 35.414062 C 30.6875 35.507812 31.894531 35.601562 33.085938 35.5625 C 31.335938 35.28125 29.59375 34.789062 27.742188 34.558594 C 23.863281 34.066406 19.8125 34.277344 15.957031 35.21875 Z M 14.257812 39.921875 C 18.371094 40.226562 22.648438 39.847656 26.496094 38.707031 C 28.335938 38.160156 30.101562 37.433594 31.882812 36.703125 C 30.179688 37.140625 28.472656 37.53125 26.765625 37.917969 C 22.585938 38.847656 18.472656 39.734375 14.257812 39.921875 Z M 11.140625 39.539062 C 11.152344 39.539062 11.167969 39.550781 11.183594 39.546875 C 16.476562 39.804688 21.527344 38.714844 26.691406 37.5625 C 28.332031 37.195312 29.960938 36.816406 31.597656 36.394531 C 31.410156 36.402344 31.222656 36.394531 31.046875 36.382812 C 29.507812 36.714844 27.960938 37.125 26.433594 37.429688 C 22.691406 38.167969 18.925781 38.671875 15.132812 39.148438 C 13.6875 39.335938 12.414062 39.492188 11.140625 39.539062 Z M 12.929688 36.113281 C 16.320312 35.757812 19.742188 35.71875 23.105469 35.875 C 24.929688 35.957031 26.9375 35.742188 28.761719 35.863281 C 29.210938 35.898438 29.644531 35.9375 30.0625 35.972656 C 30.355469 35.945312 30.648438 35.914062 30.941406 35.871094 C 30.453125 35.839844 29.980469 35.808594 29.492188 35.765625 C 26.742188 35.546875 24.0625 35.375 21.34375 35.328125 C 18.664062 35.277344 16.023438 35.464844 13.386719 35.960938 C 13.28125 35.996094 13.191406 36.019531 13.097656 36.054688 C 13.046875 36.074219 12.980469 36.09375 12.929688 36.113281 Z M 4.476562 38.09375 C 9.480469 38.675781 14.632812 38.207031 19.585938 37.597656 C 22.304688 37.269531 24.988281 36.957031 27.6875 36.523438 C 27.527344 36.539062 27.378906 36.542969 27.21875 36.558594 C 24.714844 36.769531 22.246094 36.941406 19.730469 37.046875 C 15.167969 37.226562 9.089844 37.722656 4.476562 38.09375 Z M 7.601562 37.484375 C 11.613281 37.171875 16.132812 36.835938 19.722656 36.6875 C 22.222656 36.582031 24.691406 36.410156 27.183594 36.199219 C 27.289062 36.1875 27.394531 36.175781 27.503906 36.167969 C 26.039062 36.167969 24.492188 36.285156 23.074219 36.210938 C 19.050781 36.03125 14.894531 36.128906 10.855469 36.726562 C 9.796875 37.019531 8.691406 37.265625 7.601562 37.484375 Z M 6.53125 38.625 C 7.46875 38.824219 8.398438 39 9.332031 39.199219 C 11.261719 39.257812 12.988281 39.058594 15.070312 38.792969 C 18.785156 38.324219 22.484375 37.839844 26.148438 37.121094 C 23.976562 37.433594 21.8125 37.695312 19.621094 37.957031 C 15.347656 38.46875 10.886719 38.894531 6.53125 38.625 Z M 6.53125 38.625 " fill-opacity="1" fill-rule="evenodd"/></g></g></g></g></g></g><g clip-path="url(#42e7136c5d)"><path fill="#473c38" d="M 25.953125 165.957031 C 27.84375 161.90625 30.742188 164.125 28.941406 167.988281 C 19.503906 188.257812 36.125 205.980469 61.992188 213.175781 C 92.40625 221.632812 127.535156 218.925781 151.957031 206.324219 L 152.53125 207.425781 C 129.347656 219.390625 94.1875 223.421875 61.660156 214.375 C 34.984375 206.957031 16.023438 187.238281 25.953125 165.957031 Z M 25.953125 165.957031 " fill-opacity="1" fill-rule="nonzero"/></g><g fill="#473c38" fill-opacity="1"><g transform="translate(156.990601, 239.179987)"><g><path d="M 8.101562 5.757812 C 8.933594 5.589844 9.621094 5.324219 10.140625 4.847656 C 13.929688 2.214844 17.722656 -4.617188 21.054688 -13.089844 C 22.792969 -17.277344 24.339844 -21.800781 25.816406 -26.675781 C 28.691406 -36.167969 30.976562 -45.535156 32.484375 -53.261719 C 33.203125 -56.996094 33.691406 -60.0625 33.988281 -62.222656 C 34.515625 -66.289062 34.972656 -70.089844 35.527344 -74.035156 C 35.664062 -74.558594 35.6875 -75.058594 35.566406 -75.652344 C 35.394531 -76.484375 34.679688 -76.953125 33.851562 -76.785156 C 33.613281 -76.734375 33.398438 -76.570312 33.210938 -76.28125 C 32.738281 -75.566406 32.503906 -74.902344 32.320312 -74 L 31.585938 -68.53125 C 30.625 -60.546875 29.589844 -52.917969 27.605469 -45.09375 C 24.921875 -34.652344 19.664062 -16.265625 14.933594 -6.765625 C 13.617188 -4.148438 12.128906 -1.742188 10.121094 0.523438 C 9.246094 1.691406 8.515625 2.335938 7.921875 2.457031 C 7.210938 2.601562 6.421875 1.777344 5.414062 -0.121094 C 3.710938 -3.605469 2.484375 -7.183594 1.351562 -10.910156 C -0.335938 -16.128906 -1.429688 -21.464844 -1.742188 -27.214844 C -2.335938 -37.351562 -2.761719 -47.28125 -2.210938 -57.28125 C -2.125 -58.660156 -2.058594 -59.539062 -2.679688 -60.773438 C -2.800781 -61.367188 -3.417969 -61.363281 -3.894531 -61.265625 C -4.132812 -61.21875 -4.34375 -61.050781 -4.4375 -60.90625 C -4.625 -60.003906 -4.90625 -58.957031 -5.015625 -57.699219 C -5.480469 -49.691406 -5.371094 -41.921875 -5.214844 -33.917969 C -5.023438 -28.148438 -4.761719 -22.640625 -3.667969 -17.917969 C -2.117188 -10.941406 0.203125 -2.019531 4.292969 4.066406 C 5.441406 5.4375 6.679688 6.050781 8.101562 5.757812 Z M 8.101562 5.757812 "/></g></g></g><g fill="#473c38" fill-opacity="1"><g transform="translate(197.687677, 230.844785)"><g><path d="M 4.226562 -5.316406 C 7.429688 -5.972656 10.125 -9.121094 11.964844 -11.597656 C 16.289062 -17.058594 19.371094 -23.128906 22.429688 -29.320312 C 22.714844 -29.75 22.878906 -30.152344 22.875 -30.769531 C 22.871094 -31.390625 22.65625 -31.839844 22.109375 -32.097656 C 21.824219 -32.285156 21.5625 -32.355469 21.203125 -32.285156 C 20.96875 -32.234375 20.753906 -32.066406 20.660156 -31.925781 C 20.164062 -31.328125 19.667969 -30.734375 19.316406 -30.042969 C 18.585938 -28.78125 17.878906 -27.398438 17.265625 -26.160156 C 16.65625 -24.921875 15.949219 -23.542969 15.21875 -22.28125 C 13.144531 -18.515625 10.855469 -15.203125 8.210938 -11.820312 C 7.007812 -10.460938 5.871094 -9.363281 4.164062 -8.640625 C 2.859375 -8.375 2.121094 -8.347656 1.5 -9.578125 C 1.042969 -10.597656 0.707031 -11.640625 0.628906 -12.617188 C 0.199219 -18.339844 0.765625 -24.636719 1.710938 -30.269531 C 1.710938 -30.886719 1.496094 -31.335938 0.851562 -31.453125 C 0.472656 -31.5 0.210938 -31.570312 -0.0273438 -31.519531 C -0.265625 -31.472656 -0.597656 -31.28125 -0.902344 -30.96875 C -3.355469 -27.253906 -2.691406 -17.375 -2.453125 -11.984375 C -2.089844 -10.203125 -1.847656 -9.019531 -1.105469 -7.808594 C 0.1875 -5.726562 1.972656 -4.855469 4.226562 -5.316406 Z M 1.117188 -36.207031 C 2.421875 -36.472656 3.363281 -37.902344 3.097656 -39.207031 C 2.710938 -40.488281 1.757812 -40.910156 0.335938 -40.621094 C -1.089844 -40.328125 -1.65625 -39.46875 -1.363281 -38.046875 C -0.953125 -36.648438 0.0703125 -35.867188 1.117188 -36.207031 Z M 1.117188 -36.207031 "/></g></g></g><g fill="#473c38" fill-opacity="1"><g transform="translate(219.756649, 226.32482)"><g><path d="M 0.0585938 2.089844 C 0.769531 1.945312 1.289062 1.464844 1.523438 0.800781 C 2.085938 -0.675781 2.582031 -1.886719 2.90625 -3.316406 C 3.5625 -5.550781 4.121094 -7.644531 4.683594 -9.738281 C 5.125 -11.804688 5.683594 -13.898438 6.246094 -15.992188 C 7.109375 -19.011719 8.234375 -21.960938 10.027344 -24.679688 C 10.382812 -25.367188 10.734375 -26.058594 11.804688 -26.277344 C 12.257812 -25.875 12.589844 -25.449219 12.925781 -25.023438 C 13.257812 -24.597656 13.710938 -24.195312 14.164062 -23.796875 C 15.835938 -22.28125 17.546875 -21.769531 19.566406 -22.179688 C 22.886719 -22.863281 27.070312 -27.796875 28.863281 -30.515625 C 29.144531 -30.941406 29.402344 -31.492188 29.613281 -32.273438 C 29.753906 -32.796875 29.539062 -33.25 28.964844 -33.625 C 28.5625 -33.789062 28.300781 -33.859375 27.945312 -33.789062 C 27.707031 -33.738281 27.589844 -33.714844 27.492188 -33.570312 C 26.972656 -33.09375 26.570312 -32.640625 26.195312 -32.070312 C 24.515625 -29.996094 21.070312 -25.703125 18.933594 -25.265625 C 17.867188 -25.046875 16.769531 -25.566406 15.648438 -26.820312 C 15.339844 -27.125 15.003906 -27.550781 14.761719 -28.121094 C 14.429688 -28.546875 14.09375 -28.972656 13.785156 -29.28125 C 12.996094 -30.109375 12.1875 -30.4375 11.238281 -30.242188 C 10.761719 -30.144531 10.3125 -29.929688 9.886719 -29.59375 C 6.671875 -26.585938 4.648438 -21.96875 3.503906 -17.902344 L 0.796875 -7.582031 L 0.652344 -7.675781 L 0.773438 -7.699219 C -0.0898438 -8.882812 0.0234375 -10.144531 0.113281 -11.519531 C 0.332031 -15.273438 0.886719 -19.21875 1.675781 -23.214844 C 2.257812 -25.804688 2.839844 -28.398438 3.300781 -30.964844 C 3.460938 -31.988281 3.53125 -32.867188 3.359375 -33.699219 C 3.355469 -34.316406 3.046875 -34.621094 2.285156 -34.714844 L 1.929688 -34.640625 C 1.457031 -34.542969 1.125 -34.351562 0.933594 -34.066406 C 0.675781 -33.519531 0.5625 -32.878906 0.328125 -32.210938 C -1.882812 -21.867188 -3.601562 -13.355469 -2.980469 -2.480469 C -2.976562 -1.863281 -2.878906 -1.386719 -2.785156 -0.914062 C -2.542969 -0.34375 -2.445312 0.128906 -2.347656 0.605469 C -2.035156 1.53125 -1.441406 2.027344 -0.558594 2.09375 C -0.441406 2.070312 -0.324219 2.042969 -0.296875 2.164062 C -0.179688 2.136719 -0.0625 2.113281 0.0585938 2.089844 Z M 0.0585938 2.089844 "/></g></g></g><g fill="#473c38" fill-opacity="1"><g transform="translate(248.707335, 220.395406)"><g><path d="M 3.859375 7.988281 C 5.757812 7.597656 7.675781 5.476562 8.449219 3.832031 C 11.347656 -1.335938 14.429688 -8.023438 17.25 -14.164062 C 19.648438 -19.355469 22.800781 -26.304688 24.589844 -29.640625 C 24.777344 -29.925781 24.847656 -30.1875 24.800781 -30.425781 C 25.011719 -31.207031 24.769531 -31.777344 24.078125 -32.128906 C 23.699219 -32.175781 23.4375 -32.246094 23.199219 -32.199219 C 23.082031 -32.171875 23.082031 -32.171875 22.964844 -32.148438 C 22.867188 -32.007812 22.867188 -32.007812 22.75 -31.980469 C 22.207031 -31.625 21.804688 -31.171875 21.519531 -30.742188 C 21.261719 -30.195312 20.886719 -29.621094 20.625 -29.074219 C 17.890625 -24.929688 10.65625 -7.128906 6.960938 0.179688 C 6.511719 1.015625 6.066406 1.847656 5.617188 2.683594 C 5.144531 3.398438 4.53125 4.015625 3.488281 4.355469 C 1.417969 3.296875 1.574219 1.039062 1.328125 -0.765625 C 0.832031 -4.992188 0.527344 -8.886719 0.675781 -12.996094 C 0.808594 -20.195312 3.117188 -40.324219 4.605469 -46.933594 C 4.882812 -48.597656 5.921875 -49.554688 7.558594 -50.011719 L 32.609375 -57.492188 C 33.179688 -57.730469 33.652344 -57.828125 34.101562 -58.042969 C 34.578125 -58.140625 35.027344 -58.359375 35.597656 -58.597656 C 36.046875 -58.8125 36.1875 -59.335938 36.066406 -59.929688 C 35.777344 -60.738281 35.347656 -61.019531 34.875 -60.921875 L 32.027344 -60.339844 L 30.601562 -60.046875 C 27.351562 -59.011719 23.867188 -57.925781 20 -56.886719 C 16.15625 -55.730469 12.667969 -54.644531 9.417969 -53.605469 C 9.300781 -53.582031 9.0625 -53.535156 8.828125 -53.484375 C 8.613281 -53.320312 8.375 -53.269531 8.140625 -53.222656 C 7.664062 -53.125 7.164062 -53.144531 6.546875 -53.144531 C 6.425781 -53.734375 6.421875 -54.355469 6.5625 -54.875 C 6.609375 -55.257812 6.75 -55.78125 6.796875 -56.160156 C 7.679688 -59.679688 8.59375 -63.082031 9.242188 -66.550781 C 9.617188 -67.742188 9.539062 -68.714844 9.300781 -69.285156 C 8.941406 -69.828125 8.535156 -69.992188 8.0625 -69.894531 C 7.230469 -69.726562 6.546875 -68.84375 6.007812 -67.25 C 5.609375 -66.179688 5.210938 -65.109375 4.929688 -64.0625 C 4.53125 -62.992188 4.25 -61.945312 3.851562 -60.875 L 2.105469 -53.097656 C 1.78125 -51.671875 0.953125 -50.882812 -0.445312 -50.472656 C -2.414062 -49.824219 -4.503906 -49.148438 -6.589844 -48.472656 C -8.675781 -47.800781 -10.765625 -47.125 -12.828125 -46.332031 C -13.394531 -46.089844 -13.964844 -45.851562 -14.535156 -45.609375 C -14.984375 -45.394531 -15.410156 -45.058594 -15.980469 -44.820312 C -16.546875 -44.578125 -16.570312 -44.082031 -16.304688 -43.394531 C -16.113281 -43.0625 -15.828125 -42.871094 -15.328125 -42.851562 C -14.949219 -42.804688 -14.59375 -42.878906 -14 -43 C -13.050781 -43.195312 -12.03125 -43.652344 -11.105469 -43.964844 C -9.585938 -44.398438 -7.976562 -44.976562 -6.363281 -45.554688 C -4.867188 -46.105469 -3.257812 -46.683594 -1.738281 -47.117188 L -0.789062 -47.3125 C 0.636719 -47.605469 0.875 -47.035156 0.648438 -45.132812 C 0.230469 -42.945312 0.0234375 -40.925781 -0.34375 -38.503906 C -2.074219 -27.023438 -3.726562 -9.746094 -1.371094 1.765625 C -0.8125 4.492188 0.777344 8.617188 3.859375 7.988281 Z M 3.859375 7.988281 "/></g></g></g><g fill="#473c38" fill-opacity="1"><g transform="translate(272.556055, 215.51093)"><g><path d="M 23.285156 -14.289062 C 23.757812 -14.386719 24.113281 -14.457031 24.445312 -14.648438 C 30.421875 -16.863281 36.21875 -26.582031 39.28125 -32.152344 C 39.46875 -32.441406 39.609375 -32.960938 39.84375 -33.628906 C 40.078125 -34.296875 39.746094 -34.722656 39.03125 -35.191406 C 38.746094 -35.382812 38.484375 -35.453125 38.125 -35.378906 C 37.890625 -35.328125 37.675781 -35.164062 37.582031 -35.019531 C 36.898438 -34.136719 36.332031 -33.28125 35.789062 -32.304688 C 33.574219 -28.636719 27.277344 -18.320312 23.125 -17.46875 C 22.175781 -17.277344 21.4375 -17.867188 21.027344 -19.265625 C 20.667969 -20.429688 20.421875 -21.613281 20.296875 -22.824219 C 19.851562 -26.8125 19.953125 -30.542969 20.316406 -34.203125 C 20.316406 -34.820312 20.429688 -35.464844 20.425781 -36.082031 C 20.449219 -36.578125 20.445312 -37.195312 20.441406 -37.816406 C 20.414062 -38.550781 20.082031 -38.976562 19.296875 -39.1875 C 18.917969 -39.234375 18.65625 -39.304688 18.417969 -39.253906 C 18.0625 -39.179688 17.847656 -39.015625 17.566406 -38.585938 C 17.09375 -37.871094 16.597656 -37.273438 16.246094 -36.582031 C 15.773438 -35.871094 15.394531 -35.296875 14.921875 -34.582031 C 12.332031 -29.726562 9.550781 -25.199219 6.101562 -20.90625 C 5.605469 -20.3125 5.109375 -19.714844 4.589844 -19.238281 C 4.09375 -18.640625 3.480469 -18.019531 2.984375 -17.425781 C 2.582031 -16.972656 2.25 -16.78125 2.132812 -16.757812 C 1.894531 -16.707031 1.777344 -16.683594 1.632812 -16.777344 C 1.253906 -16.824219 1.085938 -17.035156 1.035156 -17.273438 C 0.988281 -17.511719 0.9375 -17.75 0.890625 -17.984375 C 0.707031 -21.902344 1.046875 -25.683594 2.144531 -29.367188 C 2.472656 -30.179688 2.683594 -30.964844 2.917969 -31.628906 C 3.339844 -32.582031 3.101562 -33.148438 2.265625 -33.597656 C 1.980469 -33.785156 1.601562 -33.832031 1.246094 -33.757812 C 0.890625 -33.6875 0.464844 -33.351562 0.0859375 -32.78125 L -0.597656 -31.28125 C -2.117188 -26.640625 -2.523438 -21.984375 -2.171875 -17.234375 C -2.070312 -16.144531 -1.875 -15.195312 -1.492188 -14.53125 C -0.9375 -13.035156 0.0625 -12.375 1.605469 -12.691406 C 1.960938 -12.765625 2.292969 -12.957031 2.742188 -13.171875 C 6.53125 -15.800781 9.691406 -20.28125 12.238281 -24.140625 C 12.710938 -24.855469 13.207031 -25.453125 13.679688 -26.167969 C 14.03125 -26.859375 14.410156 -27.429688 14.882812 -28.144531 C 14.976562 -28.289062 15.164062 -28.574219 15.355469 -28.859375 C 15.425781 -29.121094 15.636719 -29.289062 15.992188 -29.363281 L 16.230469 -29.410156 C 16.609375 -29.363281 16.894531 -29.175781 16.851562 -28.796875 C 16.804688 -28.414062 16.734375 -28.152344 16.808594 -27.796875 C 16.90625 -26.707031 17.03125 -25.496094 17.132812 -24.402344 C 17.230469 -23.308594 17.1875 -22.3125 17.214844 -21.578125 C 17.96875 -17.898438 19.128906 -13.4375 23.285156 -14.289062 Z M 23.285156 -14.289062 "/></g></g></g><g fill="#473c38" fill-opacity="1"><g transform="translate(311.592022, 207.515941)"><g><path d="M -1.496094 -10.324219 C 0.046875 -10.640625 1.722656 -12.714844 2.597656 -13.882812 C 5.003906 -17.21875 7.03125 -20.601562 9.105469 -24.367188 C 9.386719 -24.792969 9.765625 -25.367188 10.023438 -25.914062 C 10.28125 -26.460938 10.800781 -26.9375 11.558594 -27.464844 C 11.386719 -24.089844 11.304688 -20.859375 11.960938 -17.65625 C 12.421875 -15.402344 13.617188 -14.410156 15.632812 -14.824219 C 16.105469 -14.921875 16.464844 -14.992188 16.675781 -15.160156 C 21.488281 -17.011719 28.285156 -26.6875 31.023438 -30.832031 C 31.117188 -30.976562 31.304688 -31.261719 31.398438 -31.40625 C 31.492188 -31.546875 31.46875 -31.667969 31.5625 -31.808594 C 31.632812 -32.6875 31.390625 -33.257812 30.722656 -33.492188 C 30.4375 -33.679688 30.175781 -33.75 29.820312 -33.675781 C 29.703125 -33.652344 29.609375 -33.511719 29.277344 -33.320312 C 28.96875 -33.007812 28.660156 -32.699219 28.472656 -32.414062 C 28.191406 -31.984375 27.882812 -31.671875 27.597656 -31.246094 C 26.703125 -30.195312 25.921875 -29.171875 25.261719 -28.167969 C 24.484375 -27.144531 23.726562 -26 22.832031 -24.953125 C 21.675781 -23.355469 20.324219 -22.089844 19.097656 -20.847656 C 18.148438 -20.035156 17.179688 -19.34375 16.207031 -18.648438 C 16.113281 -18.507812 15.996094 -18.484375 15.757812 -18.433594 C 15.285156 -18.335938 14.972656 -18.644531 14.828125 -19.355469 C 13.78125 -24.457031 15.6875 -33.875 17.019531 -38.84375 C 17.132812 -39.484375 17.273438 -40.007812 17.507812 -40.675781 C 17.648438 -41.199219 17.789062 -41.722656 17.902344 -42.363281 C 18.042969 -43.503906 17.753906 -44.3125 16.824219 -44.617188 C 16.445312 -44.660156 16.183594 -44.730469 16.0625 -44.707031 C 15.707031 -44.632812 15.28125 -44.300781 14.8125 -43.585938 C 14.527344 -43.15625 14.386719 -42.632812 14.222656 -42.226562 C 13.964844 -41.679688 13.824219 -41.15625 13.542969 -40.726562 C 13.023438 -39.632812 12.507812 -38.539062 12.105469 -37.46875 C 11.589844 -36.371094 11.074219 -35.277344 10.53125 -34.300781 C 10.175781 -33.609375 9.894531 -33.183594 9.65625 -33.132812 C 9.539062 -33.109375 9.132812 -33.273438 8.46875 -33.507812 C 7.085938 -34.214844 5.804688 -34.445312 4.617188 -34.203125 C 3.3125 -33.933594 2.101562 -33.191406 1.015625 -31.859375 C 0.308594 -31.09375 -0.1875 -30.5 -0.445312 -29.949219 C -3.277344 -25.664062 -5.757812 -17.859375 -4.691406 -12.640625 C -4.183594 -10.765625 -3.039062 -10.011719 -1.496094 -10.324219 Z M -1.304688 -14.816406 C -1.328125 -14.933594 -1.328125 -14.933594 -1.445312 -14.910156 L -1.589844 -15.003906 C -1.683594 -20.300781 -0.1875 -25.058594 2.835938 -29.015625 C 3.308594 -29.730469 4.5625 -30.851562 5.390625 -31.023438 C 5.984375 -31.144531 6.507812 -31.003906 7.171875 -30.769531 C 7.839844 -30.535156 8.082031 -29.964844 7.988281 -29.207031 C 7.941406 -28.824219 7.730469 -28.660156 7.636719 -28.515625 C 5.234375 -23.945312 2.832031 -19.371094 -0.308594 -15.390625 C -0.496094 -15.105469 -0.828125 -14.914062 -1.304688 -14.816406 Z M -1.304688 -14.816406 "/></g></g></g><g fill="#473c38" fill-opacity="1"><g transform="translate(342.322466, 201.222013)"><g><path d="M 5.203125 5.488281 C 7.578125 5 10.546875 0.1875 11.4375 -2.09375 C 13.25 -5.929688 15.15625 -9.902344 17.011719 -14.117188 C 18.777344 -18.1875 20.683594 -22.164062 22.515625 -25.875 C 22.917969 -26.945312 23.410156 -28.160156 23.691406 -29.207031 C 23.972656 -29.636719 23.992188 -30.136719 23.871094 -30.726562 C 23.871094 -31.347656 23.652344 -31.796875 23.011719 -31.910156 C 22.632812 -31.957031 22.371094 -32.027344 22.132812 -31.980469 C 21.300781 -31.808594 20.625 -29.691406 20.390625 -29.027344 C 16.648438 -20.71875 12.324219 -11.054688 8.207031 -2.792969 C 7.78125 -1.839844 6.113281 1.46875 5.042969 1.6875 C 4.449219 1.808594 4.019531 1.523438 3.78125 0.957031 C 2.464844 -1.246094 2.191406 -3.785156 2.0625 -6.234375 C 1.148438 -13.710938 0.160156 -26.984375 3.023438 -34.125 C 6.804688 -43.429688 13.511719 -62.605469 13.703125 -72.535156 C 13.628906 -73.507812 13.3125 -74.433594 12.148438 -74.6875 C 11.648438 -74.710938 11.386719 -74.78125 11.269531 -74.757812 C 10.796875 -74.660156 10.25 -74.300781 9.753906 -73.703125 C 3.246094 -63.839844 0.269531 -44.5625 -1.078125 -33.035156 C -1.351562 -30.136719 -1.578125 -27.617188 -2.894531 -25 C -3.273438 -24.425781 -3.480469 -23.640625 -2.886719 -23.144531 C -1.550781 -22.058594 -1.734375 -20.539062 -1.824219 -19.160156 C -1.84375 -13.839844 -1.65625 -8.6875 -0.535156 -2.609375 C -0.460938 -2.253906 -0.339844 -1.660156 -0.195312 -0.949219 C -0.046875 -0.238281 0.0976562 0.476562 0.386719 1.28125 C 1.128906 3.105469 2.949219 5.949219 5.203125 5.488281 Z M 4.800781 -45.367188 C 4.300781 -46.007812 4.25 -46.859375 4.410156 -47.882812 C 5.472656 -54.160156 7.085938 -60.175781 9.195312 -66.171875 C 9.546875 -66.863281 9.832031 -67.292969 10.1875 -67.363281 C 10.304688 -67.386719 10.566406 -67.316406 10.949219 -67.273438 C 10.804688 -67.367188 10.78125 -67.484375 10.757812 -67.605469 C 10.78125 -67.484375 10.78125 -67.484375 10.925781 -67.390625 L 10.949219 -67.273438 L 9.058594 -60.210938 C 7.605469 -55.214844 6.277344 -50.242188 4.921875 -45.390625 C 4.898438 -45.511719 4.898438 -45.511719 4.898438 -45.511719 C 4.777344 -45.484375 4.777344 -45.484375 4.800781 -45.367188 Z M 4.800781 -45.367188 "/></g></g></g><g fill="#a39692" fill-opacity="1"><g transform="translate(40.773502, 181.145084)"><g><path d="M 0.789062 0.285156 L 3.308594 1.199219 L 3.402344 0.9375 C 2.535156 0.28125 2.324219 -0.539062 3.152344 -2.835938 L 5.980469 -10.636719 L 7.894531 -1.179688 L 8.324219 -1.023438 L 15.703125 -7.304688 L 12.40625 1.796875 C 11.917969 3.148438 11.582031 3.664062 10.886719 3.648438 L 10.789062 3.910156 L 14.285156 5.175781 L 14.382812 4.914062 C 13.835938 4.484375 13.910156 3.871094 14.398438 2.515625 L 17.03125 -4.738281 C 17.859375 -7.03125 18.511719 -7.539062 19.488281 -7.527344 L 19.582031 -7.792969 L 16.914062 -8.757812 L 9.703125 -2.652344 L 7.851562 -12.042969 L 5.03125 -13.0625 L 4.9375 -12.800781 C 5.691406 -12.1875 5.867188 -11.378906 5.035156 -9.085938 L 2.40625 -1.828125 C 1.917969 -0.476562 1.582031 0.0390625 0.886719 0.0234375 Z M 0.789062 0.285156 "/></g></g></g><g fill="#a39692" fill-opacity="1"><g transform="translate(61.314176, 188.136063)"><g><path d="M 0.914062 0.21875 L 10.757812 2.550781 L 11.570312 -0.257812 L 11.324219 -0.355469 C 10.113281 1.453125 8.632812 1.71875 6.667969 1.253906 L 4.800781 0.808594 C 4.179688 0.664062 3.910156 0.230469 4.058594 -0.394531 L 5.453125 -6.269531 L 7.320312 -5.828125 C 9.695312 -5.261719 10.265625 -4.636719 10.335938 -3.550781 L 10.609375 -3.484375 L 11.382812 -6.753906 L 11.109375 -6.816406 C 10.558594 -5.878906 9.769531 -5.574219 7.394531 -6.136719 L 5.527344 -6.582031 L 6.910156 -12.417969 L 9.1875 -11.878906 C 11.367188 -11.359375 12.453125 -10.484375 12.78125 -8.394531 L 13.046875 -8.394531 L 13.484375 -11.1875 L 4.144531 -13.402344 L 4.078125 -13.128906 C 4.671875 -12.761719 4.667969 -12.148438 4.335938 -10.746094 L 2.277344 -2.070312 C 1.945312 -0.667969 1.671875 -0.117188 0.980469 -0.0546875 Z M 0.914062 0.21875 "/></g></g></g><g fill="#a39692" fill-opacity="1"><g transform="translate(77.730526, 191.764517)"><g><path d="M 3.726562 0.503906 L 7.429688 1.007812 L 7.46875 0.730469 C 6.84375 0.425781 6.785156 -0.1875 6.980469 -1.617188 L 8.472656 -12.613281 L 9.046875 -12.535156 C 10.808594 -12.292969 11.632812 -11.679688 12.152344 -9.992188 L 12.394531 -10 L 12.601562 -12.414062 L 2.277344 -13.816406 L 1.835938 -11.433594 L 2.066406 -11.363281 C 3.015625 -12.847656 3.972656 -13.222656 5.738281 -12.984375 L 6.351562 -12.898438 L 4.859375 -1.902344 C 4.664062 -0.476562 4.445312 0.0976562 3.761719 0.226562 Z M 3.726562 0.503906 "/></g></g></g><g fill="#a39692" fill-opacity="1"><g transform="translate(93.589445, 193.601666)"><g><path d="M 1.570312 -12.582031 L 2.050781 -8.882812 L 2.210938 -8.875 L 3.164062 -12.480469 C 3.378906 -13.328125 3.101562 -13.964844 2.460938 -14.007812 C 1.824219 -14.046875 1.464844 -13.449219 1.570312 -12.582031 Z M 1.570312 -12.582031 "/></g></g></g><g fill="#a39692" fill-opacity="1"><g transform="translate(101.457326, 194.109442)"><g><path d="M -0.417969 0.00390625 L 1.898438 -0.0234375 L 1.894531 -0.300781 C 1.214844 -0.453125 1.085938 -1.03125 1.613281 -2.378906 L 2.738281 -5.25 L 8.074219 -5.316406 L 9.308594 -2.449219 C 9.882812 -1.136719 10.171875 -0.621094 9.511719 -0.394531 L 9.515625 -0.113281 L 13.15625 -0.15625 L 13.152344 -0.4375 C 12.691406 -0.652344 12.164062 -1.164062 11.589844 -2.476562 L 6.488281 -14.234375 L 4.539062 -13.332031 L 4.808594 -12.773438 C 4.992188 -12.417969 5.015625 -12.097656 4.859375 -11.695312 L 1.230469 -2.375 C 0.707031 -1.027344 0.175781 -0.503906 -0.421875 -0.273438 Z M 2.851562 -5.574219 L 5.277344 -11.78125 L 7.929688 -5.632812 Z M 2.851562 -5.574219 "/></g></g></g><g fill="#a39692" fill-opacity="1"><g transform="translate(119.258462, 193.62645)"><g><path d="M 11.058594 -1.152344 C 11.394531 -1.191406 12.027344 -1.285156 12.472656 -1.457031 L 12.441406 -1.734375 C 12.34375 -1.703125 12.242188 -1.691406 12.144531 -1.679688 C 11.410156 -1.59375 11.136719 -2.046875 9.773438 -4.566406 C 8.414062 -7.082031 7.867188 -7.964844 5.59375 -7.960938 C 8.195312 -8.585938 9.289062 -10.105469 9.074219 -11.929688 C 8.886719 -13.539062 7.808594 -15.003906 3.480469 -14.5 L -0.691406 -14.011719 L -0.660156 -13.734375 C 0.0234375 -13.589844 0.230469 -13.011719 0.398438 -11.582031 L 1.433594 -2.722656 C 1.601562 -1.292969 1.53125 -0.683594 0.902344 -0.386719 L 0.933594 -0.109375 L 4.628906 -0.539062 L 4.59375 -0.820312 C 3.914062 -0.960938 3.707031 -1.539062 3.539062 -2.96875 L 3 -7.578125 L 4.171875 -7.714844 C 5.917969 -7.917969 6.132812 -6.957031 7.664062 -4.195312 C 8.886719 -1.984375 9.410156 -0.957031 11.058594 -1.152344 Z M 2.960938 -7.894531 L 2.253906 -13.972656 C 2.546875 -14.046875 2.839844 -14.101562 3.121094 -14.132812 C 5.601562 -14.425781 6.835938 -12.816406 7.023438 -11.207031 C 7.203125 -9.679688 6.496094 -8.308594 4.234375 -8.042969 Z M 2.960938 -7.894531 "/></g></g></g><g fill="#a39692" fill-opacity="1"><g transform="translate(136.387379, 191.349519)"><g><path d="M 3.671875 -0.804688 L 7.324219 -1.605469 L 7.265625 -1.878906 C 6.574219 -1.953125 6.308594 -2.507812 6 -3.914062 L 3.625 -14.753906 L 4.191406 -14.878906 C 5.929688 -15.257812 6.914062 -14.964844 7.980469 -13.558594 L 8.207031 -13.648438 L 7.570312 -15.988281 L -2.605469 -13.757812 L -2.203125 -11.367188 L -1.960938 -11.382812 C -1.582031 -13.101562 -0.808594 -13.78125 0.929688 -14.164062 L 1.535156 -14.296875 L 3.910156 -3.457031 C 4.21875 -2.050781 4.210938 -1.433594 3.613281 -1.078125 Z M 3.671875 -0.804688 "/></g></g></g><path stroke-linecap="butt" transform="matrix(0.705131, 0.255519, -0.255519, 0.705131, 45.834736, 163.9799)" fill="none" stroke-linejoin="miter" d="M 1.118318 23.001005 L 4.691937 23.002329 L 4.695468 22.629886 C 3.303614 22.198037 2.668332 21.270437 2.667967 18.013196 L 2.669652 6.949704 L 9.36008 17.937019 L 9.969699 17.9377 L 16.371245 6.710044 L 16.371065 19.612188 C 16.369806 21.534937 16.178015 22.335684 15.304194 22.630173 L 15.300663 23.002616 L 20.263064 22.999262 L 20.261698 22.628594 C 19.385863 22.336599 19.195417 21.53587 19.191779 19.614895 L 19.197048 9.325669 C 19.191787 6.070202 19.780641 5.142191 21.008375 4.708374 L 21.013681 4.340828 L 17.224247 4.340153 L 10.951637 15.266258 L 4.371497 4.338693 L 0.371144 4.336892 L 0.37251 4.707561 C 1.60284 5.137005 2.185606 6.072555 2.184196 9.3249 L 2.185598 19.617248 C 2.187461 21.533327 1.997445 22.33897 1.121849 22.628562 Z M 1.118318 23.001005 " stroke="#473c38" stroke-width="1.833336" stroke-opacity="1" stroke-miterlimit="4"/><path stroke-linecap="butt" transform="matrix(0.729761, 0.173055, -0.173055, 0.729761, 64.478739, 170.404398)" fill="none" stroke-linejoin="miter" d="M 1.254721 23.000279 L 14.743007 22.997278 L 14.929165 19.109839 L 14.584918 19.057654 C 13.570325 21.77659 11.730152 22.571604 9.043111 22.571828 L 6.478638 22.56975 C 5.622125 22.569458 5.150388 22.09252 5.146814 21.242276 L 5.148546 13.191289 L 7.70675 13.189501 C 10.955953 13.189785 11.889335 13.83024 12.314649 15.217454 L 12.69369 15.213212 L 12.692429 10.73859 L 12.312186 10.737763 C 11.891121 12.122281 10.956099 12.761529 7.706896 12.761244 L 5.148692 12.763032 L 5.146037 4.76126 L 8.266403 4.759981 C 11.254065 4.763407 12.932107 5.564498 13.996884 8.181085 L 14.34536 8.093095 L 14.054886 4.340096 L 1.256398 4.340101 L 1.258236 4.709007 C 2.136438 5.003911 2.314981 5.801958 2.315656 7.723444 L 2.315273 19.617405 C 2.314747 21.533824 2.135721 22.336373 1.257951 22.630171 Z M 1.254721 23.000279 " stroke="#473c38" stroke-width="1.833336" stroke-opacity="1" stroke-miterlimit="4"/><path stroke-linecap="butt" transform="matrix(0.743185, 0.100874, -0.100874, 0.743185, 79.234907, 173.724099)" fill="none" stroke-linejoin="miter" d="M 5.013506 23.001516 L 9.995808 22.99804 L 9.998383 22.629764 C 9.117281 22.334126 8.929885 21.534356 8.932249 19.615561 L 8.931816 4.819723 L 9.704494 4.819968 C 12.074841 4.818859 13.279656 5.48579 14.262829 7.617718 L 14.586572 7.563264 L 14.422029 4.337333 L 0.535857 4.340443 L 0.368953 7.564056 L 0.691923 7.620085 C 1.679154 5.483516 2.877052 4.821595 5.25256 4.819785 L 6.07825 4.823347 L 6.077983 19.614024 C 6.081481 21.537279 5.890278 22.335877 5.010218 22.628779 Z M 5.013506 23.001516 " stroke="#473c38" stroke-width="1.833336" stroke-opacity="1" stroke-miterlimit="4"/><path stroke-linecap="butt" transform="matrix(0.748462, 0.0480042, -0.0480042, 0.748462, 93.87782, 175.439885)" fill="none" stroke-linejoin="miter" d="M 1.015131 6.121481 L 1.970137 11.002656 L 2.189438 11.004248 L 3.144441 6.120608 C 3.358306 4.97958 2.934601 4.150833 2.078519 4.148331 C 1.22277 4.151026 0.800788 4.976603 1.015131 6.121481 Z M 1.015131 6.121481 " stroke="#473c38" stroke-width="1.833336" stroke-opacity="1" stroke-miterlimit="4"/><path stroke-linecap="butt" transform="matrix(0.749947, -0.00892764, 0.00892764, 0.749947, 100.436264, 175.913513)" fill="none" stroke-linejoin="miter" d="M -0.558641 23.000923 L 2.530116 23.001231 L 2.52931 22.631404 C 1.625604 22.412298 1.462916 21.639473 2.187319 19.856303 L 3.727635 16.041034 L 10.847915 16.042457 L 12.453333 19.884757 C 13.198135 21.638538 13.570071 22.335724 12.691537 22.62737 L 12.692281 23.002405 L 17.54164 22.99763 L 17.540834 22.627802 C 16.929704 22.334048 16.234813 21.638227 15.490011 19.884445 L 8.880291 4.122357 L 6.267196 5.29446 L 6.612472 6.043414 C 6.851542 6.525461 6.877768 6.947678 6.663064 7.481619 L 1.676876 19.855435 C 0.957682 21.638667 0.240967 22.338519 -0.559447 22.631095 Z M 3.894228 15.610695 L 7.226826 7.378947 L 10.660304 15.61311 Z M 3.894228 15.610695 " stroke="#473c38" stroke-width="1.833336" stroke-opacity="1" stroke-miterlimit="4"/><path stroke-linecap="butt" transform="matrix(0.74493, -0.0870606, 0.0870606, 0.74493, 116.440346, 175.545896)" fill="none" stroke-linejoin="miter" d="M 14.821034 23.191023 C 15.277746 23.186717 16.130303 23.160506 16.741467 23.001207 L 16.743008 22.629078 C 16.608843 22.655348 16.472528 22.655148 16.341387 22.655553 C 15.355538 22.655699 15.063552 22.013296 13.647486 18.470803 C 12.237198 14.923741 11.650202 13.664799 8.638234 13.323276 C 12.185442 12.898836 13.863929 11.05517 13.862354 8.600896 C 13.863134 6.440549 12.666641 4.339538 6.85105 4.341557 L 1.256357 4.337929 L 1.254816 4.710057 C 2.133175 5.001488 2.317267 5.804327 2.318432 7.723688 L 2.318105 19.616549 C 2.31927 21.53591 2.136407 22.337812 1.258189 22.628458 L 1.256649 23.000587 L 6.206583 23.002274 L 6.208123 22.630145 C 5.33037 22.333541 5.150846 21.536481 5.149681 19.61712 L 5.148599 13.434573 L 6.716523 13.434286 C 9.066126 13.430965 9.196746 14.736202 10.797772 18.625426 C 12.074763 21.74265 12.608351 23.18937 14.821034 23.191023 Z M 5.146444 13.004331 L 5.150847 4.845519 C 5.54575 4.786796 5.942198 4.759717 6.3195 4.761862 C 9.654347 4.763569 11.039964 7.085946 11.039788 9.24112 C 11.040753 11.296796 9.892207 13.003132 6.855857 13.004848 Z M 5.146444 13.004331 " stroke="#473c38" stroke-width="1.833336" stroke-opacity="1" stroke-miterlimit="4"/><path stroke-linecap="butt" transform="matrix(0.732622, -0.160514, 0.160514, 0.732622, 131.879849, 173.552038)" fill="none" stroke-linejoin="miter" d="M 5.010256 22.999348 L 9.995722 22.998604 L 9.99632 22.630836 C 9.116984 22.336872 8.930423 21.533539 8.929783 19.613924 L 8.928609 4.823046 L 9.701989 4.82187 C 12.075233 4.819312 13.278809 5.4829 14.261366 7.617648 L 14.58829 7.56131 L 14.425581 4.3372 L 0.53576 4.338511 L 0.373631 7.560765 L 0.691295 7.6197 C 1.681459 5.485283 2.877681 4.819623 5.249811 4.822153 L 6.081384 4.823063 L 6.07747 19.612826 C 6.076996 21.537529 5.891816 22.334061 5.011969 22.626492 Z M 5.010256 22.999348 " stroke="#473c38" stroke-width="1.833336" stroke-opacity="1" stroke-miterlimit="4"/></svg>